<svg id="Réteg_1" data-name="Réteg 1" xmlns="http://www.w3.org/2000/svg" viewBox="0 0 250 250">
  <defs>
    <style>
      .cls-1 {
        fill: #ddb980;
      }

      .cls-2 {
        fill: #b7784e;
      }

      .cls-3 {
        fill: none;
      }

      .cls-4 {
        fill: #f77261;
      }

      .cls-5 {
        fill: #ffd366;
      }

      .cls-6 {
        fill: #84a82d;
      }
    </style>
  </defs>
  <g>
    <g>
      <path class="cls-1" d="M239.8,125.3A115.2,115.2,0,1,1,124.6,10.1,115.2,115.2,0,0,1,239.8,125.3Z"/>
      <path class="cls-2" d="M124.6,250.3c-68.9,0-125-56.1-125-125S55.7.3,124.6.3s125,56.1,125,125S193.5,250.3,124.6,250.3Zm0-230.4A105.5,105.5,0,1,0,230,125.3,105.6,105.6,0,0,0,124.6,19.9Z"/>
    </g>
    <g>
      <path class="cls-3" d="M205.1,76.9v.3h0v-.3Z"/>
      <path class="cls-3" d="M124.6,10.1A115.2,115.2,0,1,0,239.8,125.3,115.2,115.2,0,0,0,124.6,10.1Zm97.1,92a3.7,3.7,0,0,1-1.8,3.1,6.3,6.3,0,0,1-3.2.7c-3.9,0-11.4-4.9-11.4-9,0-.6.2-3.8,5.1-3.8S221.7,97.9,221.7,102.1ZM152.3,43.7a8.3,8.3,0,1,1-.1,16.5,8.2,8.2,0,0,1-6.2-2.5,7.9,7.9,0,0,1-2.1-5.5A8.3,8.3,0,0,1,152.3,43.7Zm-18.8,57.8a8.1,8.1,0,0,1,6.1-2.3,9,9,0,0,1,4.8,1.3,11.9,11.9,0,0,1,7.1-6.4,5,5,0,0,1-.2-1.2,6.9,6.9,0,0,1,2.2-5.1,8.4,8.4,0,0,1,5.9-2.1c5.6,0,8.7,4.1,8.7,7.9a6.7,6.7,0,0,1-2.1,5l-.7.5A11.7,11.7,0,0,1,146,112.4h-.1a7.9,7.9,0,0,1-6.1,2.3,8.1,8.1,0,0,1-8.5-8A7.2,7.2,0,0,1,133.5,101.5Zm-10-76.4H126l.2,2.1c0,3.7-12.3,5.9-12.8,5.9h-2.5l-.2-2.2C110.7,27.2,122.9,25.1,123.5,25.1ZM110.2,46.6a5.4,5.4,0,0,1,1.9-4.3,7.7,7.7,0,0,1,5-1.6c5.4,0,9.6,4.9,9.6,9.1a6.4,6.4,0,0,1-.5,2.4A10.7,10.7,0,0,1,128,58a11.1,11.1,0,1,1-17.4-9A10,10,0,0,1,110.2,46.6ZM106,95.9a12.7,12.7,0,1,1,17-5.7A12.7,12.7,0,0,1,106,95.9Zm8.1,37.6a3.3,3.3,0,0,1-.8,2.3,3.3,3.3,0,0,1-2.5,1.1c-4.8,0-10.6-7.6-10.6-11.4a3.3,3.3,0,0,1,.9-2.3,3.3,3.3,0,0,1,2.5-1.1C108.3,122.1,114.1,129.7,114.1,133.5ZM69.7,35.6a19.4,19.4,0,1,1,8.7,26A19.3,19.3,0,0,1,69.7,35.6ZM86.6,86.2c-6.1,0-8-13.3-8-13.4V70.3h2c6.2,0,8,13.3,8,13.4v2.5Zm1.6,50.9a5.1,5.1,0,0,1-5.5,5.4c-4.6,0-9.1-6.1-9.1-10.6a5.6,5.6,0,0,1,1.4-3.8,5.6,5.6,0,0,1,4.1-1.5C83.7,126.6,88.2,132.6,88.2,137.1ZM55.6,57a6.5,6.5,0,0,1,4.3-1.3c5.3,0,10.5,5.7,10.5,10a5,5,0,0,1-1.7,3.8,7.3,7.3,0,0,1-4.3,1.2c-5.3,0-10.5-5.7-10.5-9.9A4.7,4.7,0,0,1,55.6,57ZM37.4,93.5a11.9,11.9,0,1,1,5.3,15.9A11.9,11.9,0,0,1,37.4,93.5Zm-3.6,36c0-3.8,4.7-7.3,9.7-7.3a9.1,9.1,0,0,1,4.7,1,4.3,4.3,0,0,1,2.2,3.8c0,3.8-4.7,7.3-9.6,7.3a8.9,8.9,0,0,1-4.7-1A4.2,4.2,0,0,1,33.8,129.5Zm9.3,30.8-1.8-.2a2.8,2.8,0,0,1-2.2-2.7c0-4.2,12-6.1,12.1-6.1a5,5,0,0,1,1.8.2,2.8,2.8,0,0,1,2.2,2.6C55.2,158.4,43.2,160.3,43.1,160.3Zm12.5,37.3A11.6,11.6,0,1,1,67.1,186,11.6,11.6,0,0,1,55.6,197.6Zm.3-81.2a11.3,11.3,0,1,1,11.2,11.3A11.2,11.2,0,0,1,55.9,116.4Zm19,69a12.1,12.1,0,0,1,10.8-21.7,6.4,6.4,0,0,1,2.8,1.8h.1c-.1,0-.1.2-.1.2a12.1,12.1,0,0,1-13.6,19.7Zm11.4,2.1a2.9,2.9,0,0,1,2.9-3.2c4.7,0,8.9,9.5,8.9,12.3a3.5,3.5,0,0,1-.5,1.8,2.7,2.7,0,0,1-2.5,1.4C90.5,199.8,86.3,190.3,86.3,187.5Zm15,38.1a6.5,6.5,0,0,1-4.1-1.2,4.2,4.2,0,0,1-1.8-3.6c0-4.4,5.6-9.7,10.2-9.7a7.1,7.1,0,0,1,4.1,1.1,4.7,4.7,0,0,1,1.7,3.7C111.4,220.2,105.8,225.6,101.3,225.6ZM117.7,187a18,18,0,1,1,18-18A17.9,17.9,0,0,1,117.7,187Zm35.1,37.6a12.6,12.6,0,0,1-16.7,5.6,12.4,12.4,0,0,1-1.2-21.6,10.9,10.9,0,0,1-6.9-9.8,6.6,6.6,0,0,1,1.6-4.4,6.8,6.8,0,0,1,4.9-1.9c5.3,0,9.4,5.6,9.4,10.3a6.5,6.5,0,0,1-1.2,3.9,12.3,12.3,0,0,1,10.1,17.9Zm-.8-36.9c0-3.9,8.2-9.5,11.7-9.5a4.1,4.1,0,0,1,2.3.6,3,3,0,0,1,1.4,2.6c0,3.9-8.2,9.5-11.7,9.5a4.4,4.4,0,0,1-2.3-.6A3,3,0,0,1,152,187.7Zm12.5,39.4a9.3,9.3,0,1,1,9.3-9.3A9.3,9.3,0,0,1,164.5,227.1Zm7.9-67.3a19.4,19.4,0,1,1-8.7-25.9A19.4,19.4,0,0,1,172.4,159.8ZM168.3,129a9.4,9.4,0,0,1-5.5-1.4,4.9,4.9,0,0,1-2.5-4.2c0-3,2.9-5.9,8.3-5.9a9.2,9.2,0,0,1,5.5,1.4,4.9,4.9,0,0,1,2.5,4.2C176.6,126.1,173.8,129,168.3,129Zm7.8-63.5a11.4,11.4,0,0,1,1.5-2.3,22,22,0,0,1-.4-3.6,18.1,18.1,0,1,1,36.2,0,17.9,17.9,0,0,1-7.6,14.7c1.6,1.6,2.7,3.2,2.7,4.5a2.9,2.9,0,0,1-1.3,2.5,3.7,3.7,0,0,1-2.1.6c-1.7,0-4.7-1.5-7.2-3.4a12.6,12.6,0,0,1-16.1,4.1A12.8,12.8,0,0,1,176.1,65.5Zm20.8,72.9v5h0c-3,0-5.6-3.3-8.8-6.9-.5-.7-1.3-2.4-1.6-2.6a1.5,1.5,0,0,1,1.1-.5h0v-5h0c3,0,5.6,3.2,8.8,6.8.5.6,1.3,2.4,1.6,2.6a1.4,1.4,0,0,1-1.1.6ZM191,94.8v-5h0a16.2,16.2,0,0,0,2.9-1.7c2.7-1.9,4.1-4.1,9.1-4.1v5h.2a18.5,18.5,0,0,0-3.1,1.6C197.5,92.6,195,94.8,191,94.8Zm7.7,79.9V177c-2,0-3.5-1.3-4.8-3a11.9,11.9,0,0,1,4.1-23,11.9,11.9,0,0,1,.8,23.7Zm21.2-36.3a10,10,0,1,1,13.4-4.5A10,10,0,0,1,219.9,138.4Z"/>
      <path class="cls-4" d="M105.9,58A11.1,11.1,0,0,0,128,58a10.7,10.7,0,0,0-1.8-5.8,6.2,6.2,0,0,1-1.4,1.9,7.9,7.9,0,0,1-5.1,1.5,10,10,0,0,1-9.1-6.6A11.1,11.1,0,0,0,105.9,58Z"/>
      <path class="cls-4" d="M148.1,107.2a7.4,7.4,0,0,1-2.1,5.2,11.7,11.7,0,0,0,19.3-13.3,8.4,8.4,0,0,1-5.2,1.6c-5.1,0-8.1-3.2-8.6-6.6a11.9,11.9,0,0,0-7.1,6.4A8.2,8.2,0,0,1,148.1,107.2Z"/>
      <path class="cls-4" d="M78.4,116.4a11.3,11.3,0,1,0-11.3,11.3A11.2,11.2,0,0,0,78.4,116.4Z"/>
      <path class="cls-4" d="M135.7,169a18,18,0,1,0-18,18A18.1,18.1,0,0,0,135.7,169Zm-16.3.1a3.3,3.3,0,0,1,.7-2.1,3.1,3.1,0,0,1,2.5-1.3c4.7,0,9.9,8.3,9.9,11.8a3.8,3.8,0,0,1-.7,2.1,3,3,0,0,1-2.5,1.2C124.6,180.8,119.4,172.6,119.4,169.1Z"/>
      <path class="cls-4" d="M197.9,151a11.9,11.9,0,0,0-4.1,23,28.2,28.2,0,0,1-3.1-5.3l-1.3-2.2a1.7,1.7,0,0,0,1.4.6h-.1l.2-5c3.7,0,6.1,4.6,7.9,8.2l1.3,2.3a1.7,1.7,0,0,0-1.4-.6h.1v2.7a11.9,11.9,0,0,0-.8-23.7Z"/>
      <path class="cls-4" d="M193.2,59.8a12.5,12.5,0,0,1,7,10.7,25.2,25.2,0,0,1,5.6,3.8,17.9,17.9,0,0,0,7.6-14.7,18.1,18.1,0,1,0-36.2,0,22,22,0,0,0,.4,3.6A12.6,12.6,0,0,1,193.2,59.8Z"/>
      <path class="cls-4" d="M164.5,208.5a9.3,9.3,0,1,0,9.3,9.3A9.3,9.3,0,0,0,164.5,208.5Z"/>
      <path class="cls-4" d="M55.6,174.4A11.6,11.6,0,1,0,67.1,186,11.6,11.6,0,0,0,55.6,174.4Z"/>
      <path class="cls-5" d="M42.7,109.4a11.9,11.9,0,1,0-5.3-15.9A11.9,11.9,0,0,0,42.7,109.4Z"/>
      <path class="cls-5" d="M123,90.2a12.7,12.7,0,1,0-17,5.7A12.7,12.7,0,0,0,123,90.2Z"/>
      <path class="cls-5" d="M91.1,180a12,12,0,0,0-2.5-14.2h0v3.1h0v2.4l1-.2a17.8,17.8,0,0,1-1.4,1.4c-3.4,2.8-7.6,5.6-9.6,5.7v-.7h-.3l.3.7v-3.1h0v-2.4l-1.2.2,1.5-1.5c3.4-2.7,5.7-5.5,9.7-5.6v-.3h-.1a6.4,6.4,0,0,0-2.8-1.8A12.1,12.1,0,1,0,91.1,180Z"/>
      <path class="cls-5" d="M163.7,133.9a19.3,19.3,0,1,0,8.7,25.9A19.4,19.4,0,0,0,163.7,133.9Z"/>
      <path class="cls-5" d="M197.9,78.5c-2.4-1.9-4.4-4.1-4.4-5.9a3,3,0,0,1,1.3-2.5,3.7,3.7,0,0,1,2.1-.6,8.6,8.6,0,0,1,3.3,1,12.7,12.7,0,0,0-22.6-7.3,11.4,11.4,0,0,0-1.5,2.3,12.8,12.8,0,0,0,5.7,17.1A12.6,12.6,0,0,0,197.9,78.5Z"/>
      <path class="cls-5" d="M78.4,61.6a19.4,19.4,0,1,0-8.7-26A19.4,19.4,0,0,0,78.4,61.6Z"/>
      <path class="cls-5" d="M228.8,120.6a10,10,0,1,0,4.5,13.3A9.9,9.9,0,0,0,228.8,120.6Z"/>
      <path class="cls-5" d="M147.2,207.9a12.6,12.6,0,0,0-4.5-1.2,1,1,0,0,0-.4.5,6.2,6.2,0,0,1-4.9,1.9,7,7,0,0,1-2.5-.5,12.4,12.4,0,0,0,1.2,21.6,12.5,12.5,0,0,0,11.1-22.3Z"/>
      <path class="cls-6" d="M64.4,70.7a7.3,7.3,0,0,0,4.3-1.2,5,5,0,0,0,1.7-3.8c0-4.3-5.2-10-10.5-10A6.5,6.5,0,0,0,55.6,57a4.7,4.7,0,0,0-1.7,3.8C53.9,65,59.1,70.7,64.4,70.7Z"/>
      <path class="cls-6" d="M88.6,83.6c0-.1-1.8-13.4-8-13.4h-2v2.5c0,.1,1.9,13.4,8,13.4h2Z"/>
      <path class="cls-6" d="M152.2,60.2a8.3,8.3,0,1,0-8.3-8,7.9,7.9,0,0,0,2.1,5.5A8.2,8.2,0,0,0,152.2,60.2Z"/>
      <path class="cls-6" d="M160.1,100.7a8.4,8.4,0,0,0,5.2-1.6l.7-.5a6.7,6.7,0,0,0,2.1-5c0-3.8-3.1-7.9-8.7-7.9a8.4,8.4,0,0,0-5.9,2.1,6.9,6.9,0,0,0-2.2,5.1,5,5,0,0,0,.2,1.2C152,97.5,155,100.7,160.1,100.7Z"/>
      <path class="cls-6" d="M139.8,114.8a7.9,7.9,0,0,0,6.1-2.3h.1a7.4,7.4,0,0,0,2.1-5.2,8.2,8.2,0,0,0-3.7-6.7,9,9,0,0,0-4.8-1.3,8.1,8.1,0,0,0-6.1,2.3,7.2,7.2,0,0,0-2.2,5.3A8.1,8.1,0,0,0,139.8,114.8Z"/>
      <path class="cls-6" d="M103.6,122.1a3.3,3.3,0,0,0-2.5,1.1,3.3,3.3,0,0,0-.9,2.3c0,3.8,5.8,11.4,10.6,11.4a3.3,3.3,0,0,0,2.5-1.1,3.3,3.3,0,0,0,.8-2.3C114.1,129.7,108.3,122.1,103.6,122.1Z"/>
      <path class="cls-6" d="M55.2,154.1a2.8,2.8,0,0,0-2.2-2.6,5,5,0,0,0-1.8-.2c-.1,0-12.1,1.9-12.1,6.1a2.8,2.8,0,0,0,2.2,2.7l1.8.2C43.2,160.3,55.2,158.4,55.2,154.1Z"/>
      <path class="cls-6" d="M50.4,127a4.3,4.3,0,0,0-2.2-3.8,9.1,9.1,0,0,0-4.7-1c-5,0-9.7,3.5-9.7,7.3a4.2,4.2,0,0,0,2.3,3.8,8.9,8.9,0,0,0,4.7,1C45.7,134.3,50.4,130.8,50.4,127Z"/>
      <path class="cls-6" d="M79.1,126.6a5.6,5.6,0,0,0-4.1,1.5,5.6,5.6,0,0,0-1.4,3.8c0,4.5,4.5,10.6,9.1,10.6a5.1,5.1,0,0,0,5.5-5.4C88.2,132.6,83.7,126.6,79.1,126.6Z"/>
      <path class="cls-6" d="M77.4,172.9l1.2-.2v2.4h0v3.1c2-.1,6.1-2.9,9.5-5.7.7-.5,1.2-1.2,1.5-1.4l-1,.2V169h0v-3.1c-4,.1-6.3,2.9-9.7,5.6Z"/>
      <path class="cls-6" d="M88.4,165.8h0Z"/>
      <path class="cls-6" d="M78.4,178.3Z"/>
      <path class="cls-6" d="M97.6,198.4a3.5,3.5,0,0,0,.5-1.8c0-2.8-4.2-12.3-8.9-12.3a2.9,2.9,0,0,0-2.9,3.2c0,2.8,4.2,12.3,8.8,12.3A2.7,2.7,0,0,0,97.6,198.4Z"/>
      <path class="cls-6" d="M131.8,179.6a3.8,3.8,0,0,0,.7-2.1c0-3.5-5.2-11.8-9.9-11.8a3.1,3.1,0,0,0-2.5,1.3,3.3,3.3,0,0,0-.7,2.1c0,3.5,5.2,11.7,9.9,11.7A3,3,0,0,0,131.8,179.6Z"/>
      <path class="cls-6" d="M155.7,190.9c3.5,0,11.7-5.6,11.7-9.5a3,3,0,0,0-1.4-2.6,4.1,4.1,0,0,0-2.3-.6c-3.5,0-11.7,5.6-11.7,9.5a3,3,0,0,0,1.4,2.6A4.4,4.4,0,0,0,155.7,190.9Z"/>
      <path class="cls-6" d="M198,137.8c-.3-.2-1.1-1.9-1.6-2.6-3.2-3.5-5.8-6.8-8.8-6.8h0v5h0a1.5,1.5,0,0,0-1.1.5c.3.2,1.1,2,1.6,2.6,3.2,3.6,5.8,6.9,8.8,6.9h0v-5h0A1.4,1.4,0,0,0,198,137.8Z"/>
      <path class="cls-6" d="M174.1,118.9a9.2,9.2,0,0,0-5.5-1.4c-5.4,0-8.3,2.9-8.3,5.9a4.9,4.9,0,0,0,2.5,4.2,9.4,9.4,0,0,0,5.5,1.4c5.5,0,8.3-2.9,8.3-5.9A4.9,4.9,0,0,0,174.1,118.9Z"/>
      <path class="cls-6" d="M203.2,89.1H203v-5c-5,0-6.4,2.2-9,4.1a20.6,20.6,0,0,1-3.1,1.7h.1v5c4,0,6.5-2.2,9.1-4.1A18.5,18.5,0,0,1,203.2,89.1Z"/>
      <path class="cls-6" d="M113.4,33.1c.5,0,12.8-2.2,12.8-5.9l-.2-2.1h-2.5c-.6,0-12.8,2.1-12.8,5.8l.2,2.2Z"/>
      <path class="cls-6" d="M119.7,55.6a7.9,7.9,0,0,0,5.1-1.5,6.2,6.2,0,0,0,1.4-1.9,6.4,6.4,0,0,0,.5-2.4c0-4.2-4.2-9.1-9.6-9.1a7.7,7.7,0,0,0-5,1.6,5.4,5.4,0,0,0-1.9,4.3,10,10,0,0,0,.4,2.4A10,10,0,0,0,119.7,55.6Z"/>
      <path class="cls-6" d="M198.7,172a1.7,1.7,0,0,1,1.4.6l-1.3-2.3c-1.8-3.6-4.2-8.2-7.9-8.2l-.2,5h.1a1.7,1.7,0,0,1-1.4-.6l1.3,2.2a28.2,28.2,0,0,0,3.1,5.3c1.3,1.7,2.8,3,4.8,3v-5Z"/>
      <path class="cls-6" d="M142.3,207.2a1,1,0,0,1,.4-.5,6.5,6.5,0,0,0,1.2-3.9c0-4.7-4.1-10.3-9.4-10.3a6.8,6.8,0,0,0-4.9,1.9,6.6,6.6,0,0,0-1.6,4.4,10.9,10.9,0,0,0,6.9,9.8,7,7,0,0,0,2.5.5A6.2,6.2,0,0,0,142.3,207.2Z"/>
      <path class="cls-6" d="M109.7,212.2a7.1,7.1,0,0,0-4.1-1.1c-4.6,0-10.2,5.3-10.2,9.7a4.2,4.2,0,0,0,1.8,3.6,6.5,6.5,0,0,0,4.1,1.2c4.5,0,10.1-5.4,10.1-9.7A4.7,4.7,0,0,0,109.7,212.2Z"/>
      <path class="cls-6" d="M205.3,96.9c0,4.1,7.5,9,11.4,9a6.3,6.3,0,0,0,3.2-.7,3.7,3.7,0,0,0,1.8-3.1c0-4.2-7.5-9-11.3-9S205.3,96.3,205.3,96.9Z"/>
      <path class="cls-6" d="M196.9,69.5a3.7,3.7,0,0,0-2.1.6,3,3,0,0,0-1.3,2.5c0,1.8,2,4,4.4,5.9s5.5,3.4,7.2,3.4a3.7,3.7,0,0,0,2.1-.6,2.9,2.9,0,0,0,1.3-2.5c0-1.3-1.1-2.9-2.7-4.5a25.2,25.2,0,0,0-5.6-3.8A8.6,8.6,0,0,0,196.9,69.5Zm8.2,7.7h0v-.3h0Z"/>
    </g>
    <path class="cls-2" d="M124.6,250.3c-68.9,0-125-56.1-125-125S55.7.3,124.6.3s125,56.1,125,125S193.5,250.3,124.6,250.3Zm0-230.4A105.5,105.5,0,1,0,230,125.3,105.6,105.6,0,0,0,124.6,19.9Z"/>
  </g>
</svg>
