<svg id="Réteg_1" data-name="Réteg 1" xmlns="http://www.w3.org/2000/svg" viewBox="0 0 123 125">
  <defs>
    <style>
      .cls-1 {
        fill: #ddb980;
      }

      .cls-2 {
        fill: #b7784e;
      }

      .cls-3 {
        fill: none;
      }

      .cls-4 {
        fill: #ffd366;
      }

      .cls-5 {
        fill: #f77261;
      }

      .cls-6 {
        fill: #84a82d;
      }
    </style>
  </defs>
  <g>
    <path class="cls-1" d="M5.5,24.6,2.8,19.3h0L58.1,125l59-97A113.3,113.3,0,0,0,5.5,24.6Z"/>
    <path class="cls-2" d="M119.9,23.4l3.1-5.2C86.5-3.7,39.6-6.7,0,14l2.8,5.3A119.3,119.3,0,0,1,119.9,23.4Z"/>
    <path class="cls-2" d="M117,28.1l2.9-4.7A119.3,119.3,0,0,0,2.8,19.3l2.7,5.3A113.1,113.1,0,0,1,117,28.1Z"/>
    <g>
      <path class="cls-3" d="M81.8,85.5A9.3,9.3,0,0,1,79,72.8,9.2,9.2,0,0,1,91.6,70l9.9-16.4a9.3,9.3,0,0,1-4.8-3.2h-.5a2.4,2.4,0,0,1-1.5-.4,2.5,2.5,0,0,1-1.3-2.2,3.6,3.6,0,0,1,1-2.2c0-.6-.1-1.1-.1-1.7a10.3,10.3,0,0,1,.6-3.5A9.2,9.2,0,0,1,93,28.4a8.5,8.5,0,0,1,4.8-3.7V23.4h2.3c.1,0,8.9.9,8.9,4.3v.8a10.3,10.3,0,0,1,.8,6.9,10.5,10.5,0,0,1,1.9,1.7l5.5-9.1A113.6,113.6,0,0,0,80.5,13.7a10.4,10.4,0,0,1-1.1,7.7A7.4,7.4,0,0,1,82,25.6a5,5,0,0,1,2.4.9,3.7,3.7,0,0,1,1.7,3.2c0,3-3.1,5.6-6.6,5.6a7,7,0,0,1-3.7-1l-.4-.4h-.3a7,7,0,0,1-7-7,3.4,3.4,0,0,1,.1-1,7.7,7.7,0,0,1-2.8-1.2,10.2,10.2,0,0,1-3.6-13.1,112.7,112.7,0,0,0-56.3,13L2.8,19.3h0l7.7,14.9a9.7,9.7,0,0,1,1.3-3.1,10.5,10.5,0,0,1-1.2-4,3.6,3.6,0,0,1,.8-2.3A2.9,2.9,0,0,1,14,23.5c2,0,3.7,1.6,4.9,3.4h.6a9.2,9.2,0,0,1,0,18.4,10.4,10.4,0,0,1-3.5-.7l9.8,18.7A16.7,16.7,0,0,1,28.1,61a7.3,7.3,0,0,1,1.2-3.6,7.8,7.8,0,0,1,14.4,4.7,11.5,11.5,0,0,1,3.6,8.5,11.9,11.9,0,0,1-11.4,12L58.1,125l24-39.4ZM59.5,32.8a2.5,2.5,0,0,1,2.1-1c3.5,0,7.3,5.6,7.3,8a3,3,0,0,1-.7,1.9,2.7,2.7,0,0,1-2.1,1c-3.4,0-7.2-5.7-7.2-8.1A2.5,2.5,0,0,1,59.5,32.8ZM42.6,50.9v-.3a2.3,2.3,0,0,1-1.4-.4A2.6,2.6,0,0,1,39.9,48c0-1.1,1-2.3,2.2-3.3a8.1,8.1,0,0,1-2.6-5.9h0a5.4,5.4,0,0,1-2.5-.9,7,7,0,0,1,3.6-13,1.3,1.3,0,0,1-.1-.6,2.9,2.9,0,0,1,1.2-2.3,3.5,3.5,0,0,1,1.8-.5c2.5,0,8,4,8,6.8a2.7,2.7,0,0,1-1.2,2.3,3.5,3.5,0,0,1-1.8.5l-.9-.2V31a7.8,7.8,0,0,1,7.6,7.8,7.9,7.9,0,0,1-4.8,7.3,15.9,15.9,0,0,1-2.7,2.4c2.7,1.5,4.9,5.5,4.9,7.6a3,3,0,0,1-.7,1.9,2.8,2.8,0,0,1-2.3,1.1C46,59.1,42.6,53.5,42.6,50.9Zm22.7,52.6a8,8,0,0,1,.8,3.3,4.4,4.4,0,0,1-1.3,3.3,4.9,4.9,0,0,1-3.6,1.4c-3.9,0-6.9-4-6.9-7.3a5.1,5.1,0,0,1,.6-2.5,5.8,5.8,0,0,1-1-1.2A11.1,11.1,0,0,1,50,98.9a12,12,0,0,1-3.8-16.5,12.1,12.1,0,0,1,7.5-5.3,4,4,0,0,1-.7-1.9,2.6,2.6,0,0,1,1.3-2.3,3.1,3.1,0,0,1,1.7-.5c2.6,0,8.2,3.8,8.2,6.6a1.3,1.3,0,0,1-.1.6,12.4,12.4,0,0,1,4.3,9.7,9.4,9.4,0,0,1,2.1,5.9A9,9,0,0,1,65.3,103.5Zm6-36.2h-1A8.7,8.7,0,0,1,61.9,61a5.3,5.3,0,0,1-1.7-.8,8.8,8.8,0,0,1,8.5-15.3c.9-2.7,3.8-5.4,6.9-5.4a4.9,4.9,0,0,1,3.3,1.1,3.7,3.7,0,0,1,1.4,3c0,2.9-2.9,6.5-6.4,7a8.8,8.8,0,0,1,5.2,8c0,.5-.1.9-.1,1.3a7,7,0,0,1,3.4,5.9A5.1,5.1,0,0,1,81,69.4,5.3,5.3,0,0,1,77,71,6.3,6.3,0,0,1,71.3,67.3Z"/>
      <path class="cls-3" d="M2.8,19.3Z"/>
      <path class="cls-4" d="M43.7,62.1a7.8,7.8,0,0,0-14.4-4.7A7.3,7.3,0,0,0,28.1,61a12,12,0,0,1,7.2-2.4A11.5,11.5,0,0,1,43.7,62.1Z"/>
      <path class="cls-4" d="M70.1,49.8l-.3-.2a3.7,3.7,0,0,1-1.4-3,4.7,4.7,0,0,1,.3-1.7,8.8,8.8,0,0,0-8.5,15.3,5.3,5.3,0,0,0,1.7.8,6.1,6.1,0,0,1-.4-2.4A8.8,8.8,0,0,1,70.1,49.8Z"/>
      <path class="cls-4" d="M47.3,30.9h.3v-.2c-2.4-.6-6.4-3.5-7-6a7,7,0,0,0-3.6,13,5.4,5.4,0,0,0,2.5.9A7.8,7.8,0,0,1,47.3,30.9Z"/>
      <path class="cls-4" d="M79,72.8a9.3,9.3,0,0,0,2.8,12.7h.3L91.6,70A9.2,9.2,0,0,0,79,72.8Z"/>
      <path class="cls-4" d="M61.4,86a9.2,9.2,0,0,1,7,3.3,12.4,12.4,0,0,0-4.3-9.7A2.5,2.5,0,0,1,63,81.3a3.5,3.5,0,0,1-1.8.5c-2,0-5.9-2.3-7.5-4.7a12.1,12.1,0,0,0-7.5,5.3A12,12,0,0,0,50,98.9a11.1,11.1,0,0,0,3.9,1.6,8.8,8.8,0,0,1-1.7-5.3A9.2,9.2,0,0,1,61.4,86Z"/>
      <path class="cls-4" d="M104.3,33.9a11,11,0,0,1,5.5,1.5,10.3,10.3,0,0,0-.8-6.9v1.6h-2.4c-.1,0-8.8-1-8.8-4.4v-1A8.5,8.5,0,0,0,93,28.4a9.3,9.3,0,0,0,2,12.1A10,10,0,0,1,104.3,33.9Z"/>
      <path class="cls-4" d="M65.4,24.7a7.7,7.7,0,0,0,2.8,1.2,6.8,6.8,0,0,1,6.9-6,6.7,6.7,0,0,1,4.2,1.5,10,10,0,0,0,1.2-7.7,116.4,116.4,0,0,0-18.7-2.1A10.2,10.2,0,0,0,65.4,24.7Z"/>
      <path class="cls-5" d="M49.8,42.1A2.4,2.4,0,0,1,51,44.3a3.2,3.2,0,0,1-.6,1.8,7.9,7.9,0,0,0,4.8-7.3A7.8,7.8,0,0,0,47.6,31h-.3a7.8,7.8,0,0,0-7.8,7.8h0a8.1,8.1,0,0,0,2.6,5.9c2-1.7,4.9-3,6.1-3A2.9,2.9,0,0,1,49.8,42.1Z"/>
      <path class="cls-5" d="M71.9,60.7a5,5,0,0,1,4-1.6,6.2,6.2,0,0,1,3.1.8c0-.4.1-.8.1-1.3a8.8,8.8,0,0,0-5.2-8h-.8a4.9,4.9,0,0,1-3-.9,8.8,8.8,0,0,0-8.6,8.8,6.1,6.1,0,0,0,.4,2.4,8.7,8.7,0,0,0,8.4,6.4h1a6.4,6.4,0,0,1-.8-3A5.1,5.1,0,0,1,71.9,60.7Z"/>
      <path class="cls-5" d="M68.2,25.9a3.4,3.4,0,0,0-.1,1,7,7,0,0,0,7,7h.3a3.7,3.7,0,0,1-1.3-2.8c0-3,3.1-5.6,6.7-5.6H82a7,7,0,0,0-2.7-4.2,6.7,6.7,0,0,0-4.2-1.5A6.8,6.8,0,0,0,68.2,25.9Z"/>
      <path class="cls-5" d="M61.4,86a9.2,9.2,0,0,0-9.2,9.2,8.8,8.8,0,0,0,1.7,5.3,5.8,5.8,0,0,0,1,1.2l.6-.8a4.8,4.8,0,0,1,3.7-1.5c2.6,0,4.9,1.9,6.1,4.1a9,9,0,0,0,5.2-8.3,9.4,9.4,0,0,0-2.1-5.9A9.2,9.2,0,0,0,61.4,86Z"/>
      <path class="cls-5" d="M47.3,70.6a11.5,11.5,0,0,0-3.6-8.5,11.5,11.5,0,0,0-8.4-3.5A12,12,0,0,0,28.1,61a16.7,16.7,0,0,0-2.3,2.3L35.9,82.6A11.9,11.9,0,0,0,47.3,70.6Z"/>
      <path class="cls-5" d="M28.7,36.1a9.2,9.2,0,0,0-9.2-9.2h-.6a10.1,10.1,0,0,1,1.6,4.7,3.5,3.5,0,0,1-.7,2.3,3.1,3.1,0,0,1-2.7,1.3c-2.2,0-4.1-2-5.3-4.1a9.7,9.7,0,0,0-1.3,3.1L16,44.6a10.4,10.4,0,0,0,3.5.7A9.2,9.2,0,0,0,28.7,36.1Z"/>
      <path class="cls-5" d="M109.6,35.4a10.6,10.6,0,0,0-5.3-1.5,10.1,10.1,0,0,0-9.4,6.6,10.3,10.3,0,0,0-.6,3.5c0,.6.1,1.1.1,1.7,2-2.1,5.9-3.9,7.4-3.9a3.3,3.3,0,0,1,1.5.3,2.8,2.8,0,0,1,1.3,2.3c0,2.7-5.5,5.7-7.9,6a9.3,9.3,0,0,0,4.8,3.2l10.1-16.5Z"/>
      <path class="cls-6" d="M47.6,30.8l.9.2a3.5,3.5,0,0,0,1.8-.5,2.7,2.7,0,0,0,1.2-2.3c0-2.8-5.5-6.8-8-6.8a3.5,3.5,0,0,0-1.8.5,2.9,2.9,0,0,0-1.2,2.3,1.3,1.3,0,0,0,.1.6C41.2,27.3,45.2,30.2,47.6,30.8Z"/>
      <path class="cls-6" d="M74.1,31.1a3.7,3.7,0,0,0,1.3,2.8l.4.4a7,7,0,0,0,3.7,1c3.5,0,6.6-2.6,6.6-5.6a3.7,3.7,0,0,0-1.7-3.2,5,5,0,0,0-2.4-.9H80.8C77.2,25.5,74.1,28.1,74.1,31.1Z"/>
      <path class="cls-6" d="M69.8,49.6l.3.2a4.9,4.9,0,0,0,3,.9h.8c3.5-.5,6.4-4.1,6.4-7a3.7,3.7,0,0,0-1.4-3,4.9,4.9,0,0,0-3.3-1.1c-3.1,0-6,2.7-6.9,5.4a4.7,4.7,0,0,0-.3,1.7A3.7,3.7,0,0,0,69.8,49.6Z"/>
      <path class="cls-6" d="M66.1,42.7a2.7,2.7,0,0,0,2.1-1,3,3,0,0,0,.7-1.9c0-2.4-3.8-8-7.3-8a2.7,2.7,0,0,0-2.7,2.8C58.9,37,62.7,42.7,66.1,42.7Z"/>
      <path class="cls-6" d="M82.4,65.8A7,7,0,0,0,79,59.9a6.2,6.2,0,0,0-3.1-.8,5,5,0,0,0-4,1.6,5.1,5.1,0,0,0-1.4,3.6,6.4,6.4,0,0,0,.8,3A6.3,6.3,0,0,0,77,71a5.3,5.3,0,0,0,4-1.6A5.1,5.1,0,0,0,82.4,65.8Z"/>
      <path class="cls-6" d="M104.6,44.4a2.8,2.8,0,0,0-1.3-2.3,3.3,3.3,0,0,0-1.5-.3c-1.5,0-5.4,1.8-7.4,3.9a3.6,3.6,0,0,0-1,2.2,2.5,2.5,0,0,0,1.3,2.2,2.4,2.4,0,0,0,1.5.4h.5C99.1,50.1,104.6,47.1,104.6,44.4Z"/>
      <path class="cls-6" d="M61.2,81.8a3.5,3.5,0,0,0,1.8-.5,2.5,2.5,0,0,0,1.1-1.7,1.3,1.3,0,0,0,.1-.6c0-2.8-5.6-6.6-8.2-6.6a3.1,3.1,0,0,0-1.7.5A2.6,2.6,0,0,0,53,75.2a4,4,0,0,0,.7,1.9C55.3,79.5,59.2,81.8,61.2,81.8Z"/>
      <path class="cls-6" d="M51.9,58a3,3,0,0,0,.7-1.9c0-2.1-2.2-6.1-4.9-7.6a15.9,15.9,0,0,0,2.7-2.4,3.2,3.2,0,0,0,.6-1.8,2.4,2.4,0,0,0-1.2-2.2,2.9,2.9,0,0,0-1.6-.4c-1.2,0-4.1,1.3-6.1,3s-2.2,2.2-2.2,3.3a2.6,2.6,0,0,0,1.3,2.2,2.3,2.3,0,0,0,1.4.4v.3c0,2.6,3.4,8.2,7,8.2A2.8,2.8,0,0,0,51.9,58Z"/>
      <path class="cls-6" d="M17.1,35.2a3.1,3.1,0,0,0,2.7-1.3,3.5,3.5,0,0,0,.7-2.3,10.1,10.1,0,0,0-1.6-4.7c-1.2-1.8-2.9-3.4-4.9-3.4a2.9,2.9,0,0,0-2.6,1.3,3.6,3.6,0,0,0-.8,2.3,10.5,10.5,0,0,0,1.2,4C13,33.2,14.9,35.2,17.1,35.2Z"/>
      <path class="cls-6" d="M59.2,99.4a4.8,4.8,0,0,0-3.7,1.5l-.6.8a5.1,5.1,0,0,0-.6,2.5c0,3.3,3,7.3,6.9,7.3a4.9,4.9,0,0,0,3.6-1.4,4.4,4.4,0,0,0,1.3-3.3,8,8,0,0,0-.8-3.3C64.1,101.3,61.8,99.4,59.2,99.4Z"/>
      <path class="cls-6" d="M106.6,30.1H109V27.7c0-3.4-8.8-4.3-8.9-4.3H97.8v2.3C97.8,29.1,106.5,30.1,106.6,30.1Z"/>
    </g>
  </g>
</svg>
