<svg id="Layer_1" data-name="Layer 1" xmlns="http://www.w3.org/2000/svg" viewBox="0 0 274 274"><defs><style>.cls-1{fill:#d6d6d6;}.cls-2{fill:red;}.cls-3{fill:#fff;}.cls-4{fill:#ababab;}</style></defs><path class="cls-1" d="M273.75,137A136.75,136.75,0,1,1,137,.25,136.75,136.75,0,0,1,273.75,137Z"/><path class="cls-2" d="M99.56,32.06l1.14-2.44a3.17,3.17,0,0,0,2.65.55c1-.31,1.47-1.13,1-2.56l-2.43-8,2.79-.85,2.47,8.11a4.69,4.69,0,0,1-.16,3.67,4.65,4.65,0,0,1-2.87,2.13A5.31,5.31,0,0,1,99.56,32.06Z"/><path class="cls-2" d="M113.67,16.68l2.59-.46L124,28.1l-2.93.52L119.42,26l-5.4,1L113.37,30l-2.87.52Zm4.3,7-2.43-3.84-1,4.44Z"/><path class="cls-2" d="M126.15,15l5.29-.26c3.09-.14,5.05,1.6,5.17,4.24v0c.14,3-2.12,4.66-5,4.8l-2.16.1.18,3.89-2.85.13Zm5.42,6.28a2,2,0,0,0,2.16-2.07v0c-.06-1.28-1-1.92-2.4-1.85l-2.2.1.18,4Z"/><path class="cls-2" d="M139.82,21v0a6.71,6.71,0,0,1,7.45-6.09,6.64,6.64,0,0,1,6.28,7.22v0a6.71,6.71,0,0,1-7.45,6.09A6.64,6.64,0,0,1,139.82,21Zm10.75.92v0a4,4,0,0,0-3.57-4.4,3.87,3.87,0,0,0-4.21,3.69v0a3.94,3.94,0,0,0,3.57,4.39A3.87,3.87,0,0,0,150.57,21.9Z"/><path class="cls-2" d="M157.66,16l3,.76L161,26l5-7.82,2.37.61L169,28l4.79-7.84,2.89.75-7.54,11.55-2.41-.62-.72-8.95-5,7.49-2.4-.62Z"/><path class="cls-2" d="M67.79,222.43l4.26,3.15c2.48,1.84,2.9,4.43,1.32,6.56l0,0c-1.79,2.41-4.59,2.27-6.92.54l-1.75-1.29-2.31,3.13-2.29-1.7Zm.22,8.3a2,2,0,0,0,3-.24l0,0c.75-1,.45-2.1-.7-3l-1.77-1.31-2.36,3.18Z"/><path class="cls-2" d="M74.22,235.2l0,0a6.89,6.89,0,0,1,12.05,6.67l0,0a6.71,6.71,0,0,1-9.3,2.5A6.64,6.64,0,0,1,74.22,235.2Zm9.43,5.25,0,0A3.94,3.94,0,0,0,82.22,235a3.87,3.87,0,0,0-5.36,1.63l0,0a3.94,3.94,0,0,0,1.45,5.47A3.88,3.88,0,0,0,83.65,240.45Z"/><path class="cls-2" d="M90,236.75l2.87,1L92.43,247l5.74-7.29,2.3.83-.28,9.28,5.52-7.34,2.8,1L99.9,254.22l-2.33-.85.14-9-5.64,7-2.34-.85Z"/><path class="cls-2" d="M110.59,243.68l5,.93c4,.76,6.25,4,5.57,7.61v0c-.67,3.58-4,5.85-8,5.09l-5-.94Zm3,11.14a3.7,3.7,0,0,0,4.56-3.08v0a3.73,3.73,0,0,0-3.11-4.57l-2.16-.41-1.45,7.68Z"/><path class="cls-2" d="M125,246.12l9.76.62-.16,2.53-6.93-.44-.16,2.63,6.1.39-.16,2.53-6.1-.39-.18,2.72,7,.44-.16,2.54-9.85-.63Z"/><path class="cls-2" d="M137.55,246.75l5.92-.31a5.12,5.12,0,0,1,3.84,1.11,4,4,0,0,1,1.27,2.9v0a4,4,0,0,1-2.55,4.17l3.41,4.45-3.33.18-3-4-2.24.12.23,4.14-2.85.15Zm6.07,6c1.39-.08,2.15-.86,2.09-2v0c-.06-1.22-.94-1.8-2.33-1.73l-2.83.15.2,3.72Z"/><path class="cls-2" d="M157.92,251.37v0a6.6,6.6,0,0,1,5-8.09,6.67,6.67,0,0,1,5.43.77l-1.28,2.45a4.78,4.78,0,0,0-3.56-.65,3.84,3.84,0,0,0-2.73,4.79v0a3.85,3.85,0,0,0,4.6,3.09,4.71,4.71,0,0,0,3-2.26l2.19,1.36a6.61,6.61,0,0,1-4.64,3.48A6.53,6.53,0,0,1,157.92,251.37Z"/><path class="cls-2" d="M174.44,239.88l2.46-.94,9.84,10.22L184,250.22l-2.14-2.29-5.12,1.95-.07,3.14-2.72,1Zm5.52,6.06-3.11-3.32-.11,4.54Z"/><path class="cls-2" d="M184,236.16l2.69-1.49,5.63,3.14.33-6.44,2.69-1.49,6.28,11.34-2.48,1.37-4.1-7.4-.51,6.61-.07,0-5.81-3.05,4.07,7.36-2.45,1.35Z"/><path class="cls-2" d="M198,228.05l4.26-3.14c2.49-1.84,5.08-1.48,6.65.65l0,0c1.78,2.42.82,5-1.52,6.78l-1.74,1.29,2.31,3.12-2.29,1.7Zm8,2.22a2,2,0,0,0,.66-2.92l0,0c-.76-1-1.88-1-3-.2l-1.78,1.31,2.36,3.18Z"/><rect class="cls-3" x="134.52" y="53.45" width="4.95" height="4.95"/><rect class="cls-3" x="114.72" y="53.45" width="4.95" height="4.95"/><rect class="cls-3" x="114.72" y="63.56" width="4.95" height="4.95"/><rect class="cls-3" x="94.91" y="63.56" width="4.95" height="4.95"/><rect class="cls-3" x="94.91" y="73.67" width="4.95" height="4.95"/><rect class="cls-3" x="94.91" y="83.77" width="4.95" height="4.95"/><rect class="cls-3" x="94.91" y="93.88" width="4.95" height="4.95"/><rect class="cls-3" x="94.91" y="103.99" width="4.95" height="4.95"/><rect class="cls-3" x="94.91" y="114.1" width="4.95" height="4.95"/><rect class="cls-3" x="94.91" y="124.21" width="4.95" height="4.95"/><rect class="cls-3" x="94.91" y="63.35" width="4.95" height="4.95"/><rect class="cls-3" x="94.91" y="53.04" width="4.95" height="4.95"/><rect class="cls-3" x="154.33" y="53.45" width="4.95" height="4.95"/><rect class="cls-3" x="154.33" y="63.56" width="4.95" height="4.95"/><rect class="cls-3" x="124.62" y="58.4" width="4.95" height="4.95"/><rect class="cls-3" x="124.62" y="48.08" width="4.95" height="4.95"/><rect class="cls-3" x="104.82" y="58.4" width="4.95" height="4.95"/><rect class="cls-3" x="104.82" y="68.51" width="4.95" height="4.95"/><rect class="cls-3" x="104.82" y="78.62" width="4.95" height="4.95"/><rect class="cls-3" x="104.82" y="88.73" width="4.95" height="4.95"/><rect class="cls-3" x="104.82" y="98.83" width="4.95" height="4.95"/><rect class="cls-3" x="104.82" y="108.94" width="4.95" height="4.95"/><rect class="cls-3" x="104.82" y="48.15" width="4.95" height="4.95"/><rect class="cls-3" x="75.11" y="73.67" width="4.95" height="4.95"/><rect class="cls-3" x="75.11" y="83.77" width="4.95" height="4.95"/><rect class="cls-3" x="75.11" y="93.88" width="4.95" height="4.95"/><rect class="cls-3" x="75.11" y="103.99" width="4.95" height="4.95"/><rect class="cls-3" x="75.11" y="114.1" width="4.95" height="4.95"/><rect class="cls-3" x="75.11" y="124.21" width="4.95" height="4.95"/><rect class="cls-3" x="75.11" y="134.32" width="4.95" height="4.95"/><rect class="cls-3" x="75.11" y="144.43" width="4.95" height="4.95"/><rect class="cls-3" x="75.11" y="154.54" width="4.95" height="4.95"/><rect class="cls-3" x="85.01" y="68.51" width="4.95" height="4.95"/><rect class="cls-3" x="85.01" y="78.62" width="4.95" height="4.95"/><rect class="cls-3" x="85.01" y="88.73" width="4.95" height="4.95"/><rect class="cls-3" x="85.01" y="98.83" width="4.95" height="4.95"/><rect class="cls-3" x="85.01" y="108.94" width="4.95" height="4.95"/><rect class="cls-3" x="85.01" y="119.05" width="4.95" height="4.95"/><rect class="cls-3" x="85.01" y="129.16" width="4.95" height="4.95"/><rect class="cls-3" x="85.01" y="139.27" width="4.95" height="4.95"/><rect class="cls-3" x="65.2" y="78.62" width="4.95" height="4.95"/><rect class="cls-3" x="55.3" y="65" width="4.95" height="4.95"/><rect class="cls-3" x="55.3" y="103.99" width="4.95" height="4.95"/><rect class="cls-3" x="55.3" y="114.1" width="4.95" height="4.95"/><rect class="cls-3" x="55.3" y="124.21" width="4.95" height="4.95"/><rect class="cls-3" x="55.3" y="134.32" width="4.95" height="4.95"/><rect class="cls-3" x="55.3" y="144.43" width="4.95" height="4.95"/><rect class="cls-3" x="55.3" y="154.54" width="4.95" height="4.95"/><rect class="cls-3" x="55.3" y="164.64" width="4.95" height="4.95"/><rect class="cls-3" x="55.3" y="174.75" width="4.95" height="4.95"/><rect class="cls-3" x="35.49" y="114.1" width="4.95" height="4.95"/><rect class="cls-3" x="65.2" y="88.73" width="4.95" height="4.95"/><rect class="cls-3" x="65.2" y="98.83" width="4.95" height="4.95"/><rect class="cls-3" x="65.2" y="108.94" width="4.95" height="4.95"/><rect class="cls-3" x="65.2" y="119.05" width="4.95" height="4.95"/><rect class="cls-3" x="65.2" y="129.16" width="4.95" height="4.95"/><rect class="cls-3" x="65.2" y="139.27" width="4.95" height="4.95"/><rect class="cls-3" x="65.2" y="149.38" width="4.95" height="4.95"/><rect class="cls-3" x="65.2" y="159.49" width="4.95" height="4.95"/><rect class="cls-3" x="65.2" y="169.6" width="4.95" height="4.95"/><rect class="cls-3" x="65.2" y="179.7" width="4.95" height="4.95"/><rect class="cls-3" x="45.4" y="129.16" width="4.95" height="4.95"/><rect class="cls-3" x="45.4" y="139.27" width="4.95" height="4.95"/><rect class="cls-3" x="45.4" y="149.38" width="4.95" height="4.95"/><rect class="cls-3" x="144.43" y="48.29" width="4.95" height="4.95"/><rect class="cls-3" x="144.43" y="58.4" width="4.95" height="4.95"/><rect class="cls-3" x="164.23" y="58.4" width="4.95" height="4.95"/><rect class="cls-3" x="164.23" y="68.51" width="4.95" height="4.95"/><rect class="cls-3" x="164.23" y="78.62" width="4.95" height="4.95"/><rect class="cls-3" x="164.23" y="88.73" width="4.95" height="4.95"/><rect class="cls-3" x="164.23" y="98.83" width="4.95" height="4.95"/><rect class="cls-3" x="164.23" y="108.94" width="4.95" height="4.95"/><rect class="cls-3" x="164.23" y="48.67" width="4.95" height="4.95"/><rect class="cls-3" x="174.14" y="63.35" width="4.95" height="4.95"/><rect class="cls-3" x="174.14" y="73.46" width="4.95" height="4.95"/><rect class="cls-3" x="174.14" y="83.57" width="4.95" height="4.95"/><rect class="cls-3" x="174.14" y="93.68" width="4.95" height="4.95"/><rect class="cls-3" x="174.14" y="103.79" width="4.95" height="4.95"/><rect class="cls-3" x="174.14" y="113.9" width="4.95" height="4.95"/><rect class="cls-3" x="174.14" y="124" width="4.95" height="4.95"/><rect class="cls-3" x="184.04" y="68.3" width="4.95" height="4.95"/><rect class="cls-3" x="184.04" y="78.41" width="4.95" height="4.95"/><rect class="cls-3" x="184.04" y="88.52" width="4.95" height="4.95"/><rect class="cls-3" x="184.04" y="98.63" width="4.95" height="4.95"/><rect class="cls-3" x="184.04" y="108.74" width="4.95" height="4.95"/><rect class="cls-3" x="184.04" y="118.85" width="4.95" height="4.95"/><rect class="cls-3" x="184.04" y="128.96" width="4.95" height="4.95"/><rect class="cls-3" x="184.04" y="139.06" width="4.95" height="4.95"/><rect class="cls-3" x="203.84" y="78.41" width="4.95" height="4.95"/><rect class="cls-3" x="223.65" y="78.41" width="4.95" height="4.95"/><rect class="cls-3" x="193.94" y="73.26" width="4.95" height="4.95"/><rect class="cls-3" x="193.94" y="83.36" width="4.95" height="4.95"/><rect class="cls-3" x="193.94" y="93.47" width="4.95" height="4.95"/><rect class="cls-3" x="193.94" y="103.58" width="4.95" height="4.95"/><rect class="cls-3" x="193.94" y="113.69" width="4.95" height="4.95"/><rect class="cls-3" x="193.94" y="123.8" width="4.95" height="4.95"/><rect class="cls-3" x="193.94" y="133.91" width="4.95" height="4.95"/><rect class="cls-3" x="193.94" y="144.02" width="4.95" height="4.95"/><rect class="cls-3" x="193.94" y="154.13" width="4.95" height="4.95"/><rect class="cls-3" x="203.84" y="88.73" width="4.95" height="4.95"/><rect class="cls-3" x="203.84" y="98.83" width="4.95" height="4.95"/><rect class="cls-3" x="203.84" y="108.94" width="4.95" height="4.95"/><rect class="cls-3" x="203.84" y="119.05" width="4.95" height="4.95"/><rect class="cls-3" x="203.84" y="129.16" width="4.95" height="4.95"/><rect class="cls-3" x="203.84" y="139.27" width="4.95" height="4.95"/><rect class="cls-3" x="203.84" y="149.38" width="4.95" height="4.95"/><rect class="cls-3" x="203.84" y="159.49" width="4.95" height="4.95"/><rect class="cls-3" x="203.84" y="169.6" width="4.95" height="4.95"/><rect class="cls-3" x="203.84" y="179.7" width="4.95" height="4.95"/><rect class="cls-3" x="223.65" y="129.16" width="4.95" height="4.95"/><rect class="cls-3" x="213.75" y="103.99" width="4.95" height="4.95"/><rect class="cls-3" x="213.75" y="114.1" width="4.95" height="4.95"/><rect class="cls-3" x="213.75" y="124.21" width="4.95" height="4.95"/><rect class="cls-3" x="213.75" y="134.32" width="4.95" height="4.95"/><rect class="cls-3" x="213.75" y="144.43" width="4.95" height="4.95"/><rect class="cls-3" x="213.75" y="154.54" width="4.95" height="4.95"/><rect class="cls-3" x="213.75" y="164.64" width="4.95" height="4.95"/><rect class="cls-3" x="213.75" y="174.75" width="4.95" height="4.95"/><rect class="cls-3" x="223.65" y="139.27" width="4.95" height="4.95"/><rect class="cls-3" x="223.65" y="149.38" width="4.95" height="4.95"/><rect class="cls-3" x="223.65" y="159.49" width="4.95" height="4.95"/><path class="cls-2" d="M149.41,108.9l-2.73-3.76a16.55,16.55,0,1,0-21.38-1.72,15.75,15.75,0,0,0,2,1.68l-2.74,3.76A21.5,21.5,0,0,1,122,106.7a21.19,21.19,0,1,1,30,0A21.48,21.48,0,0,1,149.41,108.9Z"/><polygon class="cls-3" points="79.61 178.64 75.55 175.82 137 87.39 198.45 175.4 194.39 178.24 137 96.05 79.61 178.64"/><path class="cls-3" d="M153.86,170.83c-13.38-36.57-40.2-44.16-41.38-44.47l-1.29,4.78c.07,0,6.92,1.94,15.14,8.44,6.84,5.4,15.92,15.1,22.22,31.25Z"/><path class="cls-3" d="M165.08,170.83c-17.72-43.07-44.82-51.49-46-51.83l-1.4,4.75c.07,0,6.84,2.11,15.59,9.47,7.52,6.33,18,17.89,26.44,37.61Z"/><rect class="cls-4" x="72.94" y="165.88" width="21.6" height="4.95" transform="translate(-102.3 141.07) rotate(-55.21)"/><rect class="cls-4" x="187.89" y="157.58" width="4.95" height="21.14" transform="matrix(0.82, -0.57, 0.57, 0.82, -61.98, 139.25)"/><path class="cls-4" d="M155.75,212.18a27.08,27.08,0,0,0-38.29,0l-15.61-15.61a49.14,49.14,0,0,1,69.51,0Z"/><path class="cls-3" d="M117.57,194.94l2.87-1.22a2.25,2.25,0,0,1,1.75-.14,1.33,1.33,0,0,1,.74.75h0a1.4,1.4,0,0,1-.33,1.62,1.49,1.49,0,0,1,1.7.9h0c.41,1-.12,1.88-1.46,2.45L120,200.55Zm3.44,1.18c.47-.2.66-.47.52-.8v0c-.13-.3-.45-.38-.91-.18l-1,.43.42,1Zm1.12,2c.47-.21.67-.5.53-.83v0c-.13-.3-.45-.4-1-.18l-1.19.5.44,1Z"/><path class="cls-3" d="M148.28,197.69l1.28-.72a3.13,3.13,0,0,0,1.59,1.38c.42.16.7.1.8-.15h0c.09-.24,0-.44-.75-.91-1.11-.73-1.92-1.43-1.48-2.6v0c.4-1,1.53-1.5,2.9-1a3.87,3.87,0,0,1,2.06,1.64l-1.21.82a2.92,2.92,0,0,0-1.39-1.16c-.38-.15-.63-.06-.7.15h0c-.1.27,0,.45.78.93,1.2.77,1.86,1.5,1.46,2.57v0c-.44,1.16-1.62,1.51-3,1A4.29,4.29,0,0,1,148.28,197.69Z"/><path class="cls-3" d="M135.76,190.58h-1.83V189.1h5.35v1.48h-1.83v8.16h-1.69Z"/><rect class="cls-3" x="142.73" y="193.41" width="2.23" height="2.23" transform="translate(-76.78 95.25) rotate(-29.29)"/><rect class="cls-3" x="128.05" y="193.41" width="2.23" height="2.23" transform="translate(-103.7 211.78) rotate(-60.65)"/></svg>