<svg xmlns="http://www.w3.org/2000/svg" xmlns:xlink="http://www.w3.org/1999/xlink" viewBox="0 0 320 315"><defs><style>.cls-1{isolation:isolate;}.cls-2{fill:url(#_44);}.cls-3{fill:#fff;}.cls-4{fill:#1e1240;}.cls-5{fill:#311e69;}.cls-6{fill:#614cd4;}.cls-7{fill:#ad263d;}.cls-8{fill:#ff6161;}.cls-9{fill:#8c80f9;}.cls-10{fill:#ffcc5a;}.cls-11{fill:#d7eef2;}.cls-12{fill:#b8d2d8;}.cls-13{fill:#fab443;}.cls-14{fill:#dd7237;}.cls-15{fill:#e08736;}.cls-16,.cls-17,.cls-18,.cls-19{mix-blend-mode:color-dodge;}.cls-16{fill:url(#_5);}.cls-17{fill:url(#_5-2);}.cls-18{fill:url(#_5-3);}.cls-19{fill:url(#_5-4);}</style><linearGradient id="_44" x1="156.1" y1="94.5" x2="306" y2="379.99" gradientUnits="userSpaceOnUse"><stop offset="0" stop-color="#ffa09c"/><stop offset="1" stop-color="#614cd4"/></linearGradient><linearGradient id="_5" x1="-249.55" y1="339.75" x2="-223" y2="339.75" gradientTransform="translate(421.2 -233.24) rotate(18.25)" gradientUnits="userSpaceOnUse"><stop offset="0" stop-color="#4d4d4d"/><stop offset="1"/></linearGradient><linearGradient id="_5-2" x1="-281.13" y1="345.98" x2="-253.98" y2="345.98" xlink:href="#_5"/><linearGradient id="_5-3" x1="-184.62" y1="302.38" x2="-167.09" y2="334.83" xlink:href="#_5"/><linearGradient id="_5-4" x1="-182.7" y1="461.93" x2="-167.93" y2="489.26" xlink:href="#_5"/></defs><g class="cls-1"><g id="Réteg_1" data-name="Réteg 1"><path class="cls-2" d="M100.89,123.07s21.8-59.54,133.3-45.78,129.29,207.57-36.46,204.1S100.89,123.07,100.89,123.07Z"/><path class="cls-3" d="M196.27,297.15s.85,7.39-.48,9.36a4.72,4.72,0,0,0,3.37,1.31,54.9,54.9,0,0,0,9.12-.67c-.83-2.93-.84-8.13-.92-9.77Z"/><path class="cls-3" d="M198.27,312.81a127.63,127.63,0,0,1-16.1-.72,4.15,4.15,0,0,0-.18,1c-.11,1.82,21.85,2.66,25.65,1.07a2.82,2.82,0,0,0,1.64-2.52A82.34,82.34,0,0,1,198.27,312.81Z"/><path class="cls-4" d="M198.27,312.81a82.34,82.34,0,0,0,11-1.17,7.47,7.47,0,0,0-.69-3.59,5.9,5.9,0,0,1-.31-.9,54.9,54.9,0,0,1-9.12.67,4.72,4.72,0,0,1-3.37-1.31l-.09.13c-.64.76-2.41,1.28-4.84,2-3.52,1.33-7.76.41-8.69,3.43A127.63,127.63,0,0,0,198.27,312.81Z"/><path class="cls-3" d="M237.91,297.15s.85,7.39-.48,9.36a4.72,4.72,0,0,0,3.37,1.31,54.83,54.83,0,0,0,9.12-.67c-.83-2.93-.84-8.13-.92-9.77Z"/><path class="cls-3" d="M239.91,312.81a127.73,127.73,0,0,1-16.1-.72,4.15,4.15,0,0,0-.18,1c-.11,1.82,21.85,2.66,25.65,1.07a2.82,2.82,0,0,0,1.64-2.52A82.34,82.34,0,0,1,239.91,312.81Z"/><path class="cls-4" d="M239.91,312.81a82.34,82.34,0,0,0,11-1.17,7.47,7.47,0,0,0-.69-3.59,7.23,7.23,0,0,1-.31-.9,54.83,54.83,0,0,1-9.12.67,4.72,4.72,0,0,1-3.37-1.31l-.09.13c-.64.76-2.4,1.28-4.84,2-3.52,1.33-7.76.41-8.69,3.43A127.73,127.73,0,0,0,239.91,312.81Z"/><path class="cls-4" d="M241.94,204.05s4.19-22.6-1.81-30.14c-4.3-5.4-26.35-3.06-36.49,2.81l-24.14-1.88s-3.09,29.4-4.51,51.22,9.28,77.69,15.75,78.88,14.74,2,19.79-1.46c2.42-1.64-5.5-39-6.5-49.49-2-21.2-1.12-34.59.25-51.85,7.81,33.72,21.41,100.17,22.9,102,2.06,2.51,18.95,2.65,23.06.8S241.94,204.05,241.94,204.05Z"/><path class="cls-5" d="M178,108.38s-11.85,13.4-22,13.39-8.49,14.79,6.82,17.7S184.16,118.18,178,108.38Z"/><path class="cls-6" d="M239.33,101.61c-4.17-5.32-15.34-6.23-30.78-4.32s-26.69,7.34-30.06,10.57c-7,6.65-1.29,41.44-1.9,50.05-1.35,19.08-4.05,22.19,19.63,24.5,20.11,2,47.36,10,49.86,1C249.61,170.87,251.69,117.4,239.33,101.61Z"/><path class="cls-7" d="M201.8,81.79a23.5,23.5,0,0,1,5.58-.31c1.69.32,3.46-1.66,5.11-1.06s1.18,2.76-.35,3.48-.44,7.75-4.89,8.94S198.36,84.3,201.8,81.79Z"/><path class="cls-5" d="M197.58,88.08a3,3,0,0,1-2.28-3.81c.41-2.11,4.62-4.88,6.28-4.69s.87,1.28,1.07,2c1,3.65,5.45,5.55,5.55,8.4s-4.28,3.82-5.68,3.1S197.58,88.08,197.58,88.08Z"/><path class="cls-8" d="M206.94,90.78l3.85,9.1c0,1.33-8.42,5.14-11,3.49-.75-.48-.57-1.75.09-3.14l4-7.58Z"/><path class="cls-5" d="M203.08,94.18l4.12-.7a5.91,5.91,0,0,1-2.5,4.12,8,8,0,0,1-4.2,1.52Z"/><path class="cls-8" d="M204.44,87.42l2.56,5.1c.68,1.74-.4,3.62-2.45,4.24a13.31,13.31,0,0,1-4.9.5c-1.81-.06-2.87-1.44-3.06-3.4a15.5,15.5,0,0,1,.82-6.23C198.38,84.74,202.48,84.2,204.44,87.42Z"/><path class="cls-8" d="M204.64,89.76a4.06,4.06,0,0,0,.42-1c.2-.63.67-1.53,1.64-.82,1.42,1,.13,4.34-1.81,4.18C203.45,92,204.17,90.53,204.64,89.76Z"/><path class="cls-3" d="M200.74,91.81a12.61,12.61,0,0,1-3.56.33s0,.6.89.94A2,2,0,0,0,200.74,91.81Z"/><path class="cls-7" d="M198.9,95.34c2-.47,3.74,2,7.06-.68a4,4,0,0,0,1-2.25l.05.11c.68,1.74-.4,3.62-2.45,4.24a13.31,13.31,0,0,1-4.9.5,2.84,2.84,0,0,1-2.44-1.42A9.78,9.78,0,0,0,198.9,95.34Z"/><path class="cls-9" d="M205.06,99.67s1.88-5.5,5.73-5.65,6,1.76,5.24,4.57-6.4,6.24-11,7.47-9.29-6.09-7.88-7.56a4.09,4.09,0,0,1,4.12-.9C202.07,97.91,205.06,99.67,205.06,99.67Z"/><path class="cls-9" d="M194,148.14s13.82-1.45,22.18,1.19c0,0-1.4,11.72,9.62,17.65,0,0-.19,6.46-13.9,8.57s-22.62-.79-27.81-8.43C184.08,167.12,191.47,162.5,194,148.14Z"/><path class="cls-5" d="M126,77.29a58.66,58.66,0,0,1-5.12,10c-1.2,1.75-.18,4,2.11,4.61l12.51,3.45s7.33-5.84,4.34-11S140.21,78.16,126,77.29Z"/><path class="cls-10" d="M130,198.2c14.89,1.79,28-.27,29.21-6.47l7.15.14a58.94,58.94,0,0,0,5.08-13.15c2.72-12.89-7.53-44.63-2.92-55.35,2.91-6.77,4.34-24.29,5-36.28.25-4.67,4.74-8.39,10.32-8.58,9.67-.33,19.69-2.46,23.44-7.37a38.38,38.38,0,0,0,5.58-9.81,35.3,35.3,0,0,0,2.48-10.66c.76-9.4-16.83-21.14-27.3-24.57L134.42,8.48a16.85,16.85,0,0,0-4.51-.82c.06,4.48-.7,13.94-6,29.11-4.94,14.17-9.29,20.88-14.56,27a17.14,17.14,0,0,0,2.89.94l3.73.84c3.73.84,6.23,3.75,6.08,7A4.27,4.27,0,0,0,123,76c2.73,2.54,14.33,1.48,14.18,7.84S126.9,97.09,132.05,102s7.5,3.87,8.52,7.77-9.87,39-12.85,44.1-44.25.76-51.64,9.56c-2.21,2.63-5.29,6.46-8.34,10.66,9.08,3.16,36.68,12.76,45.21,15.64C113,189.69,115.15,196.4,130,198.2Z"/><path class="cls-5" d="M159.25,191.73c-1.19,6.2-14.32,8.26-29.21,6.47S113,189.69,113,189.69c-8.53-2.88-36.13-12.48-45.21-15.64-7.19,9.88-14.23,21.8-9.38,24.87,6.91,4.37,76.9,28.45,85.3,23.54,6.06-3.53,16.4-18,22.74-30.59Z"/><path class="cls-11" d="M47.67,18.08,1.28,5.27a1.58,1.58,0,0,1-1.23-2L.51,2.06A2,2,0,0,1,3,1l46.39,12.8a1.58,1.58,0,0,1,1.22,2l-.46,1.18A2,2,0,0,1,47.67,18.08Z"/><path class="cls-12" d="M2,5.46,47,17.88a2.8,2.8,0,0,0,3.36-1.42L.28,2.64A2.18,2.18,0,0,0,2,5.46Z"/><path class="cls-6" d="M66.22,1C54.43-2.31,41.61,3.11,37.72,13h0c-3.89,9.87,2.58,20.61,14.37,23.87l26.77,7.39L93,8.34Z"/><path class="cls-5" d="M71,29.25C60.85,25.39,56.8,21.64,44.24,16.49a53.21,53.21,0,0,1-6.65-3.17C34,23.1,40.43,33.63,52.09,36.85l26.77,7.39L84,31.08C79.08,30.88,74.38,30.52,71,29.25Z"/><path class="cls-5" d="M92.52,5.72c-15.11-4.17-21,4.62-25.3,15.54-4.4,11.18-5.81,20.93,9.3,25.1l33.69,11,17.32-44Z"/><path class="cls-4" d="M109.37,38.56C95.44,30.5,79,37.34,72.29,32.66,68.42,30,67.37,25,67.18,21.36c-4.37,11.13-5.73,20.84,9.34,25l33.69,11,6-15.16C113.73,41,111.42,39.75,109.37,38.56Z"/><path class="cls-13" d="M123.93,36.77c5.28-15.17,6-24.63,6-29.11a16.78,16.78,0,0,0-6.52,1l-6.7,2.4-8.44,21.43L99.82,53.88l3.67,5.26a13.81,13.81,0,0,0,5.88,4.67C114.64,57.65,119,50.94,123.93,36.77Z"/><path class="cls-5" d="M46.88,7.14s16.37-1.58,19.63.76S59.58,11.66,46.88,7.14Z"/><path class="cls-5" d="M40.56,21.72s15,5.61,16.43,9S48.74,31,40.56,21.72Z"/><path class="cls-5" d="M44.64,12.19s16.41,1.3,19,4.16S55.94,18.83,44.64,12.19Z"/><path class="cls-5" d="M42.93,16.72s15.87,3.71,17.82,6.91S52.64,24.93,42.93,16.72Z"/><path class="cls-14" d="M196.86,42.43a1.28,1.28,0,0,1-.38-.16c-6.35-3.9-17.24-7.75-17.35-7.79A1.07,1.07,0,0,1,178.4,33a1.46,1.46,0,0,1,1.77-.61c.46.16,11.3,4,17.91,8a1,1,0,0,1,.29,1.59A1.52,1.52,0,0,1,196.86,42.43Z"/><path class="cls-14" d="M195,47.22a1.43,1.43,0,0,1-.38-.17c-6.34-3.9-17.24-7.74-17.35-7.78a1.08,1.08,0,0,1-.72-1.49,1.45,1.45,0,0,1,1.77-.6c.46.16,11.3,4,17.91,8a1,1,0,0,1,.29,1.58A1.52,1.52,0,0,1,195,47.22Z"/><path class="cls-14" d="M193.09,52a1.4,1.4,0,0,1-.38-.16c-6.35-3.9-17.24-7.75-17.35-7.79a1.08,1.08,0,0,1-.73-1.48,1.47,1.47,0,0,1,1.78-.61c.45.16,11.29,4,17.9,8a1,1,0,0,1,.29,1.59A1.51,1.51,0,0,1,193.09,52Z"/><path class="cls-5" d="M144,160.56c10-.61,21.66-37.12,15.32-46.59-5.26-7.87-15.68-6-19-5.15a7.47,7.47,0,0,1,.3.91c1,3.9-9.87,39-12.85,44.1-.56.95-2.46,1.57-5.23,2C129.88,158.35,138.81,160.88,144,160.56Z"/><path class="cls-13" d="M168.56,123.37c2.91-6.77,4.34-24.29,5-36.28.25-4.67,4.74-8.39,10.32-8.58,8.63-.3,17.53-2,22-5.87-10.47-2-26.28-5-38.12-7C152.8,63,127.93,55.32,117.49,52a62.94,62.94,0,0,1-8.12,11.83,17.14,17.14,0,0,0,2.89.94l3.73.84a9,9,0,0,1,1.91.66l.18-.19s27,6.13,35.55,8.82-1.1,14.75-.49,20.82,9.9,16.42,11.8,19.89S163.23,141,162,147.85s-12,30.39-12,30.39-3.89,13.3.58,19.53c4.82-1.11,8.05-3.11,8.61-6l7.15.14a58.94,58.94,0,0,0,5.08-13.15C174.2,165.83,164,134.09,168.56,123.37Z"/><path class="cls-15" d="M197.32,57.45a1.3,1.3,0,0,0-.85-.69L147.69,43.3a1.55,1.55,0,0,0-1.34.24,1,1,0,0,0-.39,1.1,57.06,57.06,0,0,1-6.62,9.77c-4.34,5.36-9,10.17-21.26,11.65l6.06,1.37a32,32,0,0,0,18.08-11c3.46-4.32,5.64-7.36,6.68-10.45l45,12.43c-2.7,3.35-10.91,12.68-20.43,15.44a40.23,40.23,0,0,0-7.56,3l1.95.44c.62.14,1.25.26,1.87.36A40.65,40.65,0,0,1,174.4,76a32.71,32.71,0,0,0,9-4.35,53.32,53.32,0,0,0,7.19-5.86,61.15,61.15,0,0,0,6.6-7.39A1,1,0,0,0,197.32,57.45Z"/><path class="cls-14" d="M140.09,58.84l-3.68-1.06c-3.78,3.91-8.73,7.12-18.33,8.28l6.06,1.37A32.2,32.2,0,0,0,140.09,58.84Z"/><path class="cls-14" d="M169.78,77.66A40.65,40.65,0,0,1,174.4,76a32.71,32.71,0,0,0,9-4.35c1.17-.79,2.35-1.66,3.52-2.61l-3.21-.6a32.13,32.13,0,0,1-10.2,5.42,40.23,40.23,0,0,0-7.56,3l1.95.44C168.53,77.44,169.16,77.56,169.78,77.66Z"/><path class="cls-5" d="M178.8,79.77C170,77.67,125.23,67,116.87,65.84a7.88,7.88,0,0,1,4.18,3.09c7,2.89,38.36,15.65,52.52,18A9,9,0,0,1,178.8,79.77Z"/><path class="cls-4" d="M104.77,14.45,90.28,11.84a1,1,0,0,0-1.07.51l-2.16,5.51a.71.71,0,0,0,.44.92l13.33,5.82-3.1,7.87-14.82-2a.94.94,0,0,0-1,.52l-2,5a.74.74,0,0,0,.58,1,.94.94,0,0,0,1.15-.49l1.72-4.35,14.82,2a.94.94,0,0,0,1-.52l3.59-9.11a.72.72,0,0,0-.45-.92L89,17.72l1.67-4.23,14.54,2.61a.93.93,0,0,0,1.07-.55l2-6.37-1.77-.39Z"/><path class="cls-4" d="M138.86,119.8l-.58,2.24,1.45.41c2.39.66,6,1.57,10.12,2.37a96.74,96.74,0,0,0,11,1.52c.08-.78.13-1.53.17-2.27a93,93,0,0,1-10.56-1.45C145.29,121.61,140.9,120.4,138.86,119.8Z"/><path class="cls-4" d="M157.55,136.58l1.38.07c.2-.76.39-1.51.57-2.26a85.17,85.17,0,0,1-13.34-1.6c-4.22-.81-7.9-1.76-10.23-2.41-.22.73-.44,1.47-.67,2.21l.14,0c2.38.66,6,1.57,10.12,2.37A93.74,93.74,0,0,0,157.55,136.58Z"/><path class="cls-4" d="M156.34,144.59A81.71,81.71,0,0,1,141.83,143c-3.63-.69-6.86-1.49-9.18-2.12-.24.75-.49,1.48-.73,2.19,2.35.63,5.59,1.43,9.26,2.14a94,94,0,0,0,12,1.58c.75.05,1.48.08,2.2.1C155.73,146.11,156,145.36,156.34,144.59Z"/><path class="cls-16" d="M95.21,7.85S84.94,3.72,79.87,7.42s-7.32,6-8.17,10.42,21-4.45,26.34-4.6S102.86,9.08,95.21,7.85Z"/><path class="cls-17" d="M65.85,2S55.65-.19,48.13,4s-9.41,9.84-8.38,13S58,9.22,65.33,7.35,73.33,4,65.85,2Z"/><path class="cls-18" d="M135.51,10.73a2.22,2.22,0,0,0-2.94,1.71c-.16,3.72-.67,10.76-2.32,15.35-2.33,6.48,60.4,7.25,53.22,1.67C176.47,24,171.29,20.53,135.51,10.73Z"/><path class="cls-19" d="M120.63,158.71s-43.3,1.86-40.64,4.1,49.36,15.52,53.3,14.72S120.63,158.71,120.63,158.71Z"/><path class="cls-5" d="M239.33,101.61c-3.09-4-10.05-5.47-19.74-5.21,3.57,4.59,10.84,15.08,11.73,25.37a146.59,146.59,0,0,1-1.77,35.63c-1.13,6.8-5,20.65-6,29.06,11.61,1.65,21.07,2.06,22.5-3C249.61,170.87,251.69,117.4,239.33,101.61Z"/><path class="cls-6" d="M232.79,100.11c-13.65-1.42-24.69,36.69-34.58,40.53s-32.81-19.22-48.7-14.54,0,18.24,12.21,23.54,34.43,13.42,53,4.31S248.61,101.75,232.79,100.11Z"/><path class="cls-5" d="M222.78,140.52c-5.3,5.79-15.15,7.38-19.86,8.38s-14-.37-23.25-3.45-25.46-14.91-32.08-17.13a11.93,11.93,0,0,0-2-.5c-8.69,5.68,5.21,17.07,16.16,21.82,12.21,5.29,34.43,13.42,53,4.31,10.58-5.2,20.12-21.46,23.44-34.77C233.69,125.84,226.34,136.63,222.78,140.52Z"/><path class="cls-8" d="M149.3,129.67a4.9,4.9,0,0,0-1-3.79c-1.05-1.38-2.7-3.33-4-3.74-2-.65-7.15-.36-6.58.2s3.58.79,3.58.79-3.54.8-4.63,1.63.44,2.48,1.6,2.92,7.3,4,9.51,3.77C148.74,131.36,149.15,130.55,149.3,129.67Z"/></g></g></svg>