<svg id="Réteg_1" data-name="Réteg 1" xmlns="http://www.w3.org/2000/svg" viewBox="0 0 1280 1460"><defs><style>.cls-1{fill:#e5e5e5;}.cls-2{fill:#fff;}.cls-3{fill:#7cae41;}.cls-4{fill:#228041;}.cls-5{fill:#dc9d41;}.cls-6{fill:#b1804e;}.cls-7{fill:#aa5841;}.cls-8{fill:#ff5841;}.cls-9{fill:red;}.cls-10,.cls-14,.cls-18{font-size:24px;fill:#ababab;font-family:Montserrat-Black, Montserrat;font-weight:800;}.cls-10{letter-spacing:0.12em;}.cls-11{fill:#2b2b2b;}.cls-12{fill:#ffea41;}.cls-13{fill:#e9c424;}.cls-14{letter-spacing:0.12em;}.cls-15{fill:#3f8e00;}.cls-16{fill:#802600;}.cls-17{fill:#b2a792;}.cls-18{letter-spacing:0.1em;}.cls-19{fill:#c8c8c8;}.cls-20{fill:#aae5e5;}.cls-21{fill:#565656;}.cls-22{fill:#8ab1c8;}.cls-23{fill:#e53910;}.cls-24{fill:#746163;}.cls-25{fill:#40a1a7;}</style></defs><path class="cls-1" d="M864.34,230.26c-29.72,0-57.71-2.7-78.8-7.6-23.47-5.45-35.37-12.84-35.37-22s11.9-16.54,35.37-22c21.09-4.9,49.08-7.6,78.8-7.6s57.71,2.7,78.8,7.6c23.46,5.44,35.36,12.84,35.36,22s-11.9,16.53-35.36,22C922.05,227.56,894.06,230.26,864.34,230.26Zm0-51.16c-29.13,0-56.48,2.62-77,7.39-28.84,6.69-29.18,13.89-29.18,14.19s.34,7.49,29.18,14.19c20.51,4.77,47.86,7.39,77,7.39s56.47-2.62,77-7.39c28.84-6.7,29.17-13.89,29.17-14.19s-.33-7.5-29.17-14.19C920.81,181.72,893.47,179.1,864.34,179.1Z"/><path class="cls-2" d="M945.84,200.66s2.25-22.49,23.32-25.69c0,0,9.67,19-12.28,39.16"/><path class="cls-3" d="M956.88,218.13a4,4,0,0,1-2.71-6.94c14.69-13.52,13.78-26.11,12.4-31.56-14.86,4.35-16.73,21.24-16.75,21.43a4,4,0,0,1-8-.8c.88-8.85,7.61-26.35,26.7-29.24l2.85-.43,1.32,2.57c.45.88,10.77,21.91-13.15,43.92A4,4,0,0,1,956.88,218.13Z"/><path class="cls-2" d="M903.63,186.92s19.63-40.7,21-42.75a4.82,4.82,0,0,1,6-2c1.61.54,2.78,3.4,1.89,5.28s-13.76,37.38-14.35,40.78"/><path class="cls-4" d="M918.13,192.22a3.51,3.51,0,0,1-.72-.07,4,4,0,0,1-3.22-4.58c.69-3.93,13.26-38.38,14.6-41.62a.29.29,0,0,0,0-.09c-.45-.06-.6.16-.82.49-1.14,1.9-13.32,27-20.72,42.31a4,4,0,0,1-7.21-3.48c4.64-9.6,19.86-41.09,21.23-43.2a8.86,8.86,0,0,1,10.61-3.58,7.28,7.28,0,0,1,4.23,4.17,8.1,8.1,0,0,1,0,6.63c-1.1,2.46-13.41,36.62-14,39.76A4,4,0,0,1,918.13,192.22Zm10.75-46.46h0Z"/><path class="cls-2" d="M824.81,193.26s7.64-44.53,8.37-46.88a4.81,4.81,0,0,1,5.21-3.54c1.7.07,3.62,2.5,3.28,4.55s-2.92,39.73-2.55,43.16"/><path class="cls-4" d="M824.81,197.26a4,4,0,0,1-.68,0,4,4,0,0,1-3.27-4.62c1.81-10.51,7.75-45,8.49-47.38a8.85,8.85,0,0,1,9.21-6.37,7.27,7.27,0,0,1,5.21,2.84,8.1,8.1,0,0,1,1.84,6.37c-.38,2.66-2.78,38.9-2.51,42.09a4,4,0,0,1-3.61,4.35,4,4,0,0,1-4.35-3.52c-.42-4,2.15-40.54,2.55-44l0-.08c-.46.08-.54.33-.65.7-.57,2.14-5.37,29.59-8.25,46.38A4,4,0,0,1,824.81,197.26Zm12.91-50.53"/><path class="cls-2" d="M919.84,190.32s2.25-22.49,23.32-25.68c0,0,9.68,19-12.28,39.16"/><path class="cls-3" d="M930.88,207.8a4,4,0,0,1-2.71-6.94c14.73-13.56,13.81-26.1,12.41-31.57-14.87,4.35-16.74,21.25-16.76,21.43a4,4,0,0,1-8-.8c.89-8.84,7.61-26.34,26.7-29.24l2.85-.43,1.32,2.57c.45.89,10.77,21.92-13.15,43.92A3.94,3.94,0,0,1,930.88,207.8Z"/><path class="cls-2" d="M931.12,198.91s2.25-22.49,23.32-25.68c0,0,9.67,19-12.28,39.16"/><path class="cls-3" d="M942.16,216.39a4,4,0,0,1-2.71-6.95c14.69-13.52,13.78-26.11,12.4-31.56-14.86,4.36-16.74,21.25-16.75,21.43a4,4,0,0,1-8-.8c.88-8.84,7.61-26.34,26.7-29.24l2.85-.43,1.32,2.57c.45.89,10.77,21.92-13.15,43.92A4,4,0,0,1,942.16,216.39Z"/><path class="cls-2" d="M821.55,193.18s-14.14-17.64-1.34-34.67c0,0,20.18,6.76,18.66,36.55"/><path class="cls-3" d="M838.87,199.06h-.21a4,4,0,0,1-3.79-4.2c1-20-8.42-28.3-13.25-31.22-7.52,13.39,2.6,26.46,3.06,27a4,4,0,0,1-6.25,5c-5.56-6.94-13-24.14-1.42-39.57l1.74-2.31,2.73.92c.94.31,23,8.09,21.38,40.55A4,4,0,0,1,838.87,199.06Z"/><path class="cls-2" d="M906.51,181s-10.44-6-10.26-21"/><path class="cls-4" d="M906.51,185a3.9,3.9,0,0,1-2-.54c-.51-.29-12.47-7.38-12.27-24.55a4,4,0,1,1,8,.1c-.15,12.53,8.18,17.47,8.26,17.52a4,4,0,0,1-2,7.47Z"/><path class="cls-2" d="M911.12,171.45s-8.61-2.78-6.28-17.27"/><path class="cls-4" d="M911.12,175.45a4.06,4.06,0,0,1-1.23-.2c-.48-.15-11.84-4-9-21.7a4,4,0,1,1,7.9,1.27c-1.73,10.8,3.5,12.8,3.56,12.82a4,4,0,0,1-1.23,7.81Z"/><path class="cls-2" d="M843.06,226.58h48a39.44,39.44,0,1,0-48,0Z"/><path class="cls-5" d="M837,226.58h13.46a35.44,35.44,0,1,1,33.28,0h13.46a43.44,43.44,0,1,0-60.2,0Z"/><path class="cls-2" d="M843.06,226.58h48a39.44,39.44,0,1,0-48,0Z"/><path class="cls-5" d="M837,226.58h13.46a35.44,35.44,0,1,1,33.28,0h13.46a43.44,43.44,0,1,0-60.2,0Z"/><line class="cls-2" x1="868.21" y1="168.85" x2="883.02" y2="54.82"/><rect class="cls-6" x="814.12" y="107.83" width="122.99" height="8" transform="translate(651.93 965.75) rotate(-82.6)"/><path class="cls-2" d="M893.56,195.31a26.49,26.49,0,1,1-26.49-26.49A26.49,26.49,0,0,1,893.56,195.31Z"/><path class="cls-5" d="M867.07,225.8a30.49,30.49,0,1,1,30.49-30.49A30.53,30.53,0,0,1,867.07,225.8Zm0-53a22.49,22.49,0,1,0,22.49,22.49A22.52,22.52,0,0,0,867.07,172.82Z"/><line class="cls-2" x1="871.21" y1="181.72" x2="899.38" y2="66.35"/><rect class="cls-6" x="821.92" y="120.03" width="126.75" height="8" transform="translate(554.72 954.61) rotate(-76.27)"/><path class="cls-2" d="M880.66,195.31a13.59,13.59,0,1,1-13.59-13.59A13.58,13.58,0,0,1,880.66,195.31Z"/><path class="cls-5" d="M867.07,212.9a17.59,17.59,0,1,1,17.59-17.59A17.61,17.61,0,0,1,867.07,212.9Zm0-27.18a9.59,9.59,0,1,0,9.59,9.59A9.6,9.6,0,0,0,867.07,185.72Z"/><path class="cls-2" d="M887.91,212.53c0,7.51-9,13.59-20.17,13.59s-20.17-6.08-20.17-13.59,9-13.6,20.17-13.6S887.91,205,887.91,212.53Z"/><path class="cls-5" d="M853.06,226.58h29.36c5.8-3.18,9.49-8.24,9.49-14.05,0-9.87-10.62-17.6-24.17-17.6s-24.17,7.73-24.17,17.6C843.57,218.34,847.26,223.4,853.06,226.58Zm14.68-23.65c8.61,0,16.17,4.48,16.17,9.6s-7.56,9.59-16.17,9.59-16.17-4.48-16.17-9.59S859.13,202.93,867.74,202.93Z"/><path class="cls-2" d="M901.79,227.19c8.92-.34,17.9-2.34,26.7-3.8,3.15-.52,6.32-1.08,9.44-1.82,1.24-.53,2.47-1.07,3.71-1.59a39.44,39.44,0,0,0-78.12,7.72q0,.63,0,1.26C875.05,224.28,889.86,227.63,901.79,227.19Z"/><path class="cls-5" d="M863.41,229a29,29,0,0,1,4.11-1.33,35.43,35.43,0,0,1,70.34-6.09l.07,0c2.49-1.08,5-2.14,7.47-3.13a43.44,43.44,0,0,0-85.88,9.26c0,.45,0,.89,0,1.33Z"/><path class="cls-2" d="M901.79,227.19c8.92-.34,17.9-2.34,26.7-3.8,3.15-.52,6.32-1.08,9.44-1.82,1.24-.53,2.47-1.07,3.71-1.59a39.44,39.44,0,0,0-78.12,7.72q0,.63,0,1.26C875.05,224.28,889.86,227.63,901.79,227.19Z"/><path class="cls-5" d="M863.41,229a29,29,0,0,1,4.11-1.33,35.43,35.43,0,0,1,70.34-6.09l.07,0c2.49-1.08,5-2.14,7.47-3.13a43.44,43.44,0,0,0-85.88,9.26c0,.45,0,.89,0,1.33Z"/><path class="cls-2" d="M901.79,227.19c8.92-.34,17.9-2.34,26.7-3.8l.59-.1a26.49,26.49,0,0,0-52.58,3.21C885,226.16,894,227.48,901.79,227.19Z"/><path class="cls-5" d="M880.51,226.45A22.48,22.48,0,0,1,925.13,224c1.12-.2,2.24-.4,3.36-.58,1.5-.25,3-.51,4.52-.79a30.48,30.48,0,0,0-60.52,4.19A62.43,62.43,0,0,1,880.51,226.45Z"/><path class="cls-2" d="M901.79,227.19a114.68,114.68,0,0,0,14.57-1.68,13.58,13.58,0,0,0-27,1.31C893.7,227.07,897.9,227.33,901.79,227.19Z"/><path class="cls-5" d="M893.4,227a9.58,9.58,0,0,1,19-.91c2.64-.38,5.27-.83,7.89-1.3a17.57,17.57,0,0,0-34.88,1.77C888.11,226.73,890.78,226.91,893.4,227Z"/><path class="cls-5" d="M899.68,227.22a3.31,3.31,0,0,1,6.49-.34l1.36-.13a4.65,4.65,0,0,0-9.19.46C898.78,227.22,899.23,227.23,899.68,227.22Z"/><path class="cls-2" d="M880.9,228.28a39.46,39.46,0,0,0-39-33.73l33.72,33.73Z"/><path class="cls-5" d="M841.87,198.55a35.5,35.5,0,0,1,35,29.73h8.07a43.5,43.5,0,0,0-43-37.73,4,4,0,0,0,0,8Z"/><path class="cls-2" d="M880.9,228.28a39.46,39.46,0,0,0-39-33.73l33.72,33.73Z"/><path class="cls-5" d="M841.87,198.55a35.5,35.5,0,0,1,35,29.73h8.07a43.5,43.5,0,0,0-43-37.73,4,4,0,0,0,0,8Z"/><path class="cls-2" d="M867.73,228.28a26.49,26.49,0,0,0-25.86-20.78l20.77,20.78Z"/><path class="cls-5" d="M841.87,211.5a22.53,22.53,0,0,1,21.75,16.78h8.19a30.53,30.53,0,0,0-29.94-24.78,4,4,0,1,0,0,8Z"/><path class="cls-2" d="M858.66,228.28a14.93,14.93,0,0,0-13.31-8.17l8.16,8.17Z"/><path class="cls-7" d="M845.35,224.11a10.92,10.92,0,0,1,8.58,4.17H863a19,19,0,0,0-17.68-12.17,4,4,0,0,0,0,8Z"/><path class="cls-2" d="M789.71,181.68c8.42-11.82,7.87-11.07,10.82-16.6l27.55,16.46c-7.94,21.29-7.89,21.15-14.67,39.35"/><path class="cls-8" d="M817.16,222.29l-7.49-2.79.75-2,12.75-34.19-21.1-12.61c-1.52,2.69-3,4.8-9.1,13.34l-6.51-4.63c7.71-10.84,7.71-10.84,10-15.15L799,159.5l34,20.32-1.16,3.12-13.91,37.31Z"/><path class="cls-2" d="M759.71,205.87s6.44-17.18,21.1-28.63l26.48,16.11s-8.23,14.31-8.59,26.47"/><path class="cls-8" d="M802.7,219.94l-8-.24c.28-9.39,4.72-19.66,7.3-24.89l-20.84-12.67c-12.09,10.51-17.65,25-17.71,25.14L756,204.46c.28-.74,7-18.37,22.39-30.37l2.18-1.7L812.7,192l-1.94,3.38C810.68,195.47,803,209,802.7,219.94Z"/><path class="cls-1" d="M864.34,230.26c-29.72,0-57.71-2.7-78.8-7.6-23.47-5.45-35.37-12.84-35.37-22h8c0,.3.34,7.49,29.18,14.19,20.51,4.77,47.86,7.39,77,7.39s56.47-2.62,77-7.39c28.84-6.7,29.17-13.89,29.17-14.19h8c0,9.14-11.9,16.53-35.36,22C922.05,227.56,894.06,230.26,864.34,230.26Z"/><path class="cls-2" d="M834.56,208.25a6.5,6.5,0,1,1-6.49-6.5A6.5,6.5,0,0,1,834.56,208.25Z"/><path class="cls-7" d="M828.07,218.74a10.5,10.5,0,1,1,10.49-10.49A10.51,10.51,0,0,1,828.07,218.74Zm0-13a2.5,2.5,0,1,0,2.49,2.5A2.5,2.5,0,0,0,828.07,205.75Z"/><path class="cls-2" d="M843,197.43a6.5,6.5,0,1,1-6.5-6.5A6.5,6.5,0,0,1,843,197.43Z"/><path class="cls-7" d="M836.54,207.92A10.5,10.5,0,1,1,847,197.43,10.51,10.51,0,0,1,836.54,207.92Zm0-13a2.5,2.5,0,1,0,2.5,2.5A2.5,2.5,0,0,0,836.54,194.93Z"/><path class="cls-2" d="M849.53,210.42a6.5,6.5,0,1,1-6.49-6.5A6.5,6.5,0,0,1,849.53,210.42Z"/><path class="cls-7" d="M843,220.91a10.5,10.5,0,1,1,10.49-10.49A10.51,10.51,0,0,1,843,220.91Zm0-13a2.5,2.5,0,1,0,2.49,2.5A2.5,2.5,0,0,0,843,207.92Z"/><path class="cls-2" d="M857.16,199.59a6.5,6.5,0,1,1-6.5-6.49A6.5,6.5,0,0,1,857.16,199.59Z"/><path class="cls-7" d="M850.66,210.09a10.5,10.5,0,1,1,10.5-10.5A10.51,10.51,0,0,1,850.66,210.09Zm0-13a2.5,2.5,0,1,0,2.5,2.49A2.5,2.5,0,0,0,850.66,197.1Z"/><path class="cls-2" d="M874.33,220.49a6.5,6.5,0,1,1-6.5-6.49A6.5,6.5,0,0,1,874.33,220.49Z"/><path class="cls-7" d="M867.83,231a10.5,10.5,0,1,1,10.5-10.5A10.51,10.51,0,0,1,867.83,231Zm0-13a2.5,2.5,0,1,0,2.5,2.49A2.5,2.5,0,0,0,867.83,218Z"/><path class="cls-2" d="M861.34,216.91a6.5,6.5,0,1,1-6.5-6.49A6.5,6.5,0,0,1,861.34,216.91Z"/><path class="cls-7" d="M854.84,227.41a10.5,10.5,0,1,1,10.5-10.5A10.5,10.5,0,0,1,854.84,227.41Zm0-13a2.5,2.5,0,1,0,2.5,2.49A2.5,2.5,0,0,0,854.84,214.42Z"/><path class="cls-2" d="M839.87,220.65a6.49,6.49,0,1,1-6.49-6.49A6.49,6.49,0,0,1,839.87,220.65Z"/><path class="cls-7" d="M833.38,231.15a10.5,10.5,0,1,1,10.49-10.5A10.5,10.5,0,0,1,833.38,231.15Zm0-13a2.5,2.5,0,1,0,2.49,2.49A2.49,2.49,0,0,0,833.38,218.16Z"/><path class="cls-2" d="M826.28,218.39a3.65,3.65,0,1,1-3.65-3.65A3.65,3.65,0,0,1,826.28,218.39Z"/><path class="cls-7" d="M822.63,226a7.65,7.65,0,1,1,7.65-7.65A7.66,7.66,0,0,1,822.63,226Zm0-8a.35.35,0,1,0,0,.7.35.35,0,1,0,0-.7Z"/><path class="cls-1" d="M864.34,315.6A114.32,114.32,0,0,1,750.17,201.4h8a106.17,106.17,0,1,0,212.33,0h8A114.31,114.31,0,0,1,864.34,315.6Z"/><path class="cls-2" d="M926.64,215.82s4.25,6.85,2.81,18.18a24.11,24.11,0,0,0,5.17,18.48"/><path class="cls-5" d="M934.61,256.47a4,4,0,0,1-2.92-1.28,28.07,28.07,0,0,1-6.21-21.7c1.23-9.62-2.11-15.35-2.26-15.59a4,4,0,0,1,6.82-4.19c.2.33,5,8.2,3.38,20.79a20,20,0,0,0,4.16,15.28,4,4,0,0,1-3,6.69Z"/><rect class="cls-9" x="603.76" y="229.16" width="50" height="12"/><rect class="cls-9" x="603.76" y="209.16" width="50" height="12"/><text class="cls-10" transform="translate(772.94 398.34) scale(0.96 1)">RAMEN SOUP</text><text class="cls-10" transform="translate(278.03 398.34) scale(0.96 1)">GERMKNÖDL</text><path class="cls-11" d="M484,233.58a3.08,3.08,0,0,1-1.11-.21l-1.25-.5a3,3,0,0,1,2.23-5.58l1.25.5a3,3,0,0,1-1.12,5.79Z"/><path class="cls-1" d="M370.55,285.77c-69.16,0-142.66-13.27-142.66-37.86S301.39,210,370.55,210,513.2,223.31,513.2,247.91,439.7,285.77,370.55,285.77Zm0-68.52c-36.86,0-71.48,3.52-97.47,9.93-28,6.9-38,15.23-38,20.73s10,13.83,38,20.73c26,6.4,60.61,9.93,97.47,9.93S442,275,468,268.64c28-6.9,38-15.24,38-20.73s-10-13.83-38-20.73C442,220.77,407.41,217.25,370.55,217.25Z"/><path class="cls-2" d="M370.55,273.36c-22.3,0-60-3.52-60-16.7s37.72-16.71,60-16.71,60,3.52,60,16.71S392.84,273.36,370.55,273.36Zm-52.79-16.7c1.56,3.38,20.67,9.49,52.79,9.49s51.22-6.11,52.78-9.49c-1.56-3.38-20.67-9.5-52.78-9.5S319.32,253.28,317.76,256.66Z"/><path class="cls-2" d="M475.86,245.44c0,13.51-46.36,24.46-103.56,24.46S268.75,259,268.75,245.44,315.11,221,372.3,221,475.86,231.93,475.86,245.44Z"/><path class="cls-12" d="M372.3,273.5c-53.25,0-107.15-9.64-107.15-28.06s53.9-28.07,107.15-28.07S479.46,227,479.46,245.44,425.55,273.5,372.3,273.5Zm0-48.92c-27.38,0-53.09,2.51-72.39,7.06-21.75,5.14-27.56,11.09-27.56,13.8s5.81,8.65,27.56,13.79c19.29,4.56,45,7.07,72.39,7.07s53.1-2.51,72.4-7.07c21.75-5.14,27.56-11.09,27.56-13.79s-5.81-8.66-27.56-13.8C425.4,227.09,399.69,224.58,372.3,224.58Z"/><path class="cls-1" d="M369.71,301.59c-31.77,0-40.67-4-41.58-4.45l-1.15-.58-6-13.37,6.59-2.93,4.8,10.81c3,.93,13.19,3.31,37.29,3.31,24.25,0,34.37-2.41,37.38-3.35l4.78-9.56,6.44,3.22-5.95,11.91-1.08.54C410.37,297.6,401.48,301.59,369.71,301.59Z"/><path class="cls-2" d="M416.26,226.29c0,25.05-28.61,29.74-63.9,29.74s-63.91-4.69-63.91-29.74,28.61-45.35,63.91-45.35S416.26,201.25,416.26,226.29Z"/><path class="cls-13" d="M352.36,259.63c-33.38,0-67.51-4-67.51-33.34,0-27,30.28-48.95,67.51-48.95s67.5,22,67.5,48.95C419.86,255.67,385.74,259.63,352.36,259.63Zm0-75.09c-33.25,0-60.3,18.73-60.3,41.75,0,18.57,17.47,26.14,60.3,26.14s60.3-7.57,60.3-26.14C412.66,203.27,385.61,184.54,352.36,184.54Z"/><path class="cls-11" d="M343.19,192.66a3.59,3.59,0,0,1-2.55-1.06l-.9-.9a3.6,3.6,0,1,1,5.1-5.09l.9.9a3.61,3.61,0,0,1-2.55,6.15Z"/><path class="cls-11" d="M363,184.54h-.3a3.6,3.6,0,1,1,0-7.2h.3a3.6,3.6,0,1,1,0,7.2Z"/><path class="cls-11" d="M328.49,186.06a3.6,3.6,0,0,1-3.1-1.76l-.9-1.52a3.6,3.6,0,0,1,6.19-3.68l.9,1.51a3.61,3.61,0,0,1-3.09,5.45Z"/><path class="cls-11" d="M380.41,198.66a3.77,3.77,0,0,1-1.14-.18l-.9-.3a3.6,3.6,0,0,1,2.28-6.84l.9.3a3.6,3.6,0,0,1-1.14,7Z"/><path class="cls-11" d="M366.53,208.87a3.59,3.59,0,0,1-2.53-1l-1.73-1.71a3.6,3.6,0,0,1,5.06-5.13l1.73,1.72a3.6,3.6,0,0,1-2.53,6.16Z"/><path class="cls-11" d="M327.58,208h-1.5a3.6,3.6,0,1,1,0-7.2h1.5a3.6,3.6,0,1,1,0,7.2Z"/><path class="cls-11" d="M344.69,224.18a3.61,3.61,0,0,1-3.6-3.61v-2.08a3.6,3.6,0,0,1,7.2,0v2.08A3.61,3.61,0,0,1,344.69,224.18Z"/><path class="cls-11" d="M408.7,225.68a3.6,3.6,0,0,1-3.6-3.6v-1.51a3.61,3.61,0,0,1,7.21,0v1.51A3.61,3.61,0,0,1,408.7,225.68Z"/><path class="cls-11" d="M484.52,233.58a3.08,3.08,0,0,1-1.11-.21l-1.25-.5a3,3,0,0,1,2.23-5.58l1.25.5a3,3,0,0,1-1.12,5.79Z"/><path class="cls-11" d="M349.79,184.54a3.6,3.6,0,0,1-3.6-3.6v-1.79a3.61,3.61,0,0,1,7.21,0v1.79A3.61,3.61,0,0,1,349.79,184.54Z"/><path class="cls-11" d="M387,191.76a3.68,3.68,0,0,1-1.44-.3l-2.05-.9a3.6,3.6,0,0,1,2.89-6.6l2,.9a3.6,3.6,0,0,1-1.44,6.9Z"/><path class="cls-11" d="M315.58,215.47a3.61,3.61,0,0,1-3.61-3.6V211a3.61,3.61,0,0,1,7.21,0v.9A3.6,3.6,0,0,1,315.58,215.47Z"/><path class="cls-11" d="M293.66,211.94a3.6,3.6,0,0,1-3.07-5.49l.34-.54a3.6,3.6,0,1,1,6.13,3.78l-.33.54A3.6,3.6,0,0,1,293.66,211.94Z"/><path class="cls-11" d="M375.31,237.08a3.6,3.6,0,0,1-3.22-2l-.3-.6a3.6,3.6,0,1,1,6.44-3.22l.3.6a3.6,3.6,0,0,1-3.22,5.21Z"/><path class="cls-11" d="M475.27,253.08a3,3,0,0,1-3-3v-.5a3,3,0,0,1,6,0v.5A3,3,0,0,1,475.27,253.08Z"/><path class="cls-11" d="M304.46,266.5a3.61,3.61,0,0,1-3.56-3.09l-.3-2.11a3.61,3.61,0,0,1,7.14-1l.3,2.1a3.6,3.6,0,0,1-3.06,4.07A3,3,0,0,1,304.46,266.5Z"/><path class="cls-11" d="M301.57,202.57a3.46,3.46,0,0,1-1.53-.35l-1.91-.89a3.6,3.6,0,0,1,3.07-6.52l1.9.89a3.61,3.61,0,0,1-1.53,6.87Z"/><path class="cls-11" d="M315.58,200.56a3.65,3.65,0,0,1-1-.13l-1.44-.4a3.6,3.6,0,1,1,1.92-6.94l1.45.4a3.6,3.6,0,0,1-1,7.07Z"/><path class="cls-1" d="M233.11,571.2l-3.24-6.43c36.59-18.44,91.93-29,151.83-29,47.92,0,93.77,6.9,129.1,19.42L508.4,562c-34.58-12.25-79.58-19-126.7-19C322.89,543,268.73,553.25,233.11,571.2Z"/><path class="cls-1" d="M1010.83,576.2c-35.62-18-89.78-28.24-148.59-28.24-47.12,0-92.12,6.75-126.7,19l-2.4-6.79c35.33-12.52,81.18-19.42,129.1-19.42,59.9,0,115.24,10.58,151.83,29Z"/><rect class="cls-9" x="603.76" y="545.33" width="50" height="12"/><rect class="cls-9" x="603.76" y="525.33" width="50" height="12"/><text class="cls-14" transform="translate(824.64 714.51) scale(0.96 1)">BIRCH</text><text class="cls-10" transform="translate(285.03 709.51) scale(0.96 1)">PINE TREES</text><polygon class="cls-15" points="323.81 574.21 293.7 541.95 263.59 574.21 257.74 568.75 293.7 530.22 329.66 568.75 323.81 574.21"/><polygon class="cls-15" points="323.81 595.61 293.7 563.34 263.59 595.61 257.74 590.15 293.7 551.61 329.66 590.15 323.81 595.61"/><polygon class="cls-15" points="371.31 530.08 341.2 497.81 311.09 530.08 305.24 524.62 341.2 486.09 377.16 524.62 371.31 530.08"/><polygon class="cls-15" points="371.31 551.48 341.2 519.21 311.09 551.48 305.24 546.02 341.2 507.48 377.16 546.02 371.31 551.48"/><polygon class="cls-15" points="456.82 519.6 426.71 487.33 396.59 519.6 390.75 514.14 426.71 475.61 462.67 514.14 456.82 519.6"/><polygon class="cls-15" points="456.82 540.99 426.71 508.73 396.59 540.99 390.75 535.54 426.71 497 462.67 535.54 456.82 540.99"/><polygon class="cls-15" points="494.32 624.59 464.21 592.32 434.09 624.59 428.25 619.13 464.21 580.59 500.17 619.13 494.32 624.59"/><polygon class="cls-15" points="494.32 645.98 464.21 613.71 434.09 645.98 428.25 640.52 464.21 601.98 500.17 640.52 494.32 645.98"/><rect class="cls-16" x="289.7" y="519.35" width="8" height="90"/><rect class="cls-16" x="337.2" y="474.82" width="8" height="91.54"/><rect class="cls-16" x="460.21" y="570.29" width="8" height="90.06"/><rect class="cls-17" x="797.03" y="486.3" width="8" height="90.06"/><rect class="cls-17" x="886.7" y="527.95" width="8" height="90.06"/><rect class="cls-17" x="948.04" y="487.32" width="8" height="90.06"/><rect class="cls-17" x="840.7" y="575.29" width="8" height="90.06"/><rect class="cls-16" x="422.71" y="465.85" width="8" height="86.86"/><polygon class="cls-15" points="323.81 552.82 293.7 520.55 263.59 552.82 257.74 547.36 293.7 508.83 329.66 547.36 323.81 552.82"/><polygon class="cls-15" points="371.31 508.69 341.2 476.42 311.09 508.69 305.24 503.23 341.2 464.69 377.16 503.23 371.31 508.69"/><polygon class="cls-15" points="456.82 498.21 426.71 465.94 396.59 498.21 390.75 492.75 426.71 454.21 462.67 492.75 456.82 498.21"/><polygon class="cls-15" points="494.32 603.2 464.21 570.93 434.09 603.2 428.25 597.74 464.21 559.2 500.17 597.74 494.32 603.2"/><path class="cls-2" d="M825.58,478.88a25.41,25.41,0,1,1-32-16.32A25.41,25.41,0,0,1,825.58,478.88Z"/><path class="cls-1" d="M801.43,515.75a29,29,0,1,1,27.58-38h0a29,29,0,0,1-27.58,38Zm0-50.84A21.82,21.82,0,1,0,822.16,480a21.87,21.87,0,0,0-20.73-15.09Z"/><path class="cls-2" d="M920.39,530.06a31.21,31.21,0,1,1-39.33-20A31.21,31.21,0,0,1,920.39,530.06Z"/><path class="cls-1" d="M890.67,574.52A34.82,34.82,0,1,1,923.81,529h0a34.85,34.85,0,0,1-33.14,45.57Zm0-62.43A27.6,27.6,0,1,0,917,531.17h0A27.67,27.67,0,0,0,890.69,512.09Z"/><path class="cls-2" d="M830.9,510.61a17.35,17.35,0,1,1-17.35-17.35A17.34,17.34,0,0,1,830.9,510.61Z"/><path class="cls-1" d="M813.55,531.55a20.95,20.95,0,1,1,21-20.94A21,21,0,0,1,813.55,531.55Zm0-34.69a13.75,13.75,0,1,0,13.75,13.75A13.76,13.76,0,0,0,813.55,496.86Z"/><path class="cls-2" d="M862.05,581.61a17.35,17.35,0,1,1-17.35-17.35A17.34,17.34,0,0,1,862.05,581.61Z"/><path class="cls-1" d="M844.7,602.55a20.95,20.95,0,1,1,20.95-20.94A21,21,0,0,1,844.7,602.55Zm0-34.69a13.75,13.75,0,1,0,13.75,13.75A13.76,13.76,0,0,0,844.7,567.86Z"/><path class="cls-2" d="M977,493.26a22.1,22.1,0,1,1-22.09-22.1A22.1,22.1,0,0,1,977,493.26Z"/><path class="cls-1" d="M954.9,519a25.7,25.7,0,1,1,25.7-25.7A25.73,25.73,0,0,1,954.9,519Zm0-44.19a18.5,18.5,0,1,0,18.49,18.49A18.51,18.51,0,0,0,954.9,474.77Z"/><path class="cls-2" d="M792.49,505.26A13.87,13.87,0,1,1,775,496.35,13.86,13.86,0,0,1,792.49,505.26Z"/><path class="cls-1" d="M779.27,527a17.48,17.48,0,1,1,16.65-22.89h0A17.5,17.5,0,0,1,779.27,527Zm0-27.76a10.27,10.27,0,0,0-4.66,19.43,10.28,10.28,0,0,0,14.44-12.33A10.29,10.29,0,0,0,779.29,499.27Z"/><path class="cls-2" d="M965.24,514.27a13.88,13.88,0,1,1-17.49-8.92A13.88,13.88,0,0,1,965.24,514.27Z"/><path class="cls-1" d="M952.05,536a17.44,17.44,0,1,1,5.39-.85A17.52,17.52,0,0,1,952.05,536Zm0-27.75a10.27,10.27,0,1,0,9.78,7.1A10.28,10.28,0,0,0,952,508.28Z"/><rect class="cls-17" x="870.48" y="537.8" width="8" height="15.42" transform="translate(-143.27 708.25) rotate(-41.04)"/><rect class="cls-17" x="761.41" y="495.78" width="8" height="15.42" transform="translate(-1.68 1004.43) rotate(-66.48)"/><rect class="cls-17" x="965.68" y="491.47" width="20.27" height="8" transform="translate(-84.55 224.69) rotate(-12.59)"/><rect class="cls-17" x="909.25" y="518.14" width="15.34" height="8" transform="translate(-122.24 705.23) rotate(-39.65)"/><rect class="cls-9" x="603.76" y="861.5" width="50" height="12"/><rect class="cls-9" x="603.76" y="841.5" width="50" height="12"/><text class="cls-18" transform="translate(670.72 1030.68) scale(0.96 1)">VOLCANOES OF HOKKAIDO </text><text class="cls-18" transform="translate(224.82 1030.68) scale(0.96 1)">PEAKS OF THE ALPS</text><rect class="cls-19" x="243.5" y="895.52" width="73.05" height="8" transform="translate(-639 692.29) rotate(-60)"/><polygon class="cls-19" points="459.04 933.15 428.28 879.88 414.33 904.05 394.6 869.88 401.53 865.88 414.33 888.05 428.28 863.88 465.96 929.15 459.04 933.15"/><polygon class="cls-19" points="459.04 933.15 428.28 879.88 414.33 904.05 392.85 866.85 404.5 846.67 411.43 850.67 402.09 866.85 414.33 888.05 428.28 863.88 465.96 929.15 459.04 933.15"/><rect class="cls-19" x="471.62" y="842.3" width="8" height="95.23" transform="translate(-381.23 357.03) rotate(-30)"/><path class="cls-20" d="M363.72,881.61c-29.78,0-37-10.45-37.76-11.64l-1.25-2,39-67.56,39,67.56-1.24,2C400.75,871.16,393.49,881.61,363.72,881.61ZM334.38,867.2c3.12,2.3,11.23,6.41,29.34,6.41s26.21-4.11,29.33-6.41l-29.33-50.81Z"/><path class="cls-20" d="M313.83,878.11c-15.46,0-18.93-7.89-19.28-8.79l-.68-1.78,20-34.57,20,34.57-.69,1.78C332.76,870.22,329.28,878.11,313.83,878.11Zm-10.7-10.62c1.47,1.13,4.58,2.62,10.7,2.62s9.22-1.49,10.69-2.61L313.83,849Z"/><path class="cls-20" d="M428.68,862.65c-9.33,0-16.26-2-20.58-6.06A12.17,12.17,0,0,1,404,849l-.09-1.22,26-45,26.26,45.49-.53,1.67C455.46,850.39,451.35,862.65,428.68,862.65ZM412.29,849.2c1.21,2.29,5.62,5.45,16.39,5.45,12.13,0,16.85-3.84,18.52-5.95l-17.31-30Z"/><polygon class="cls-19" points="349.26 948.62 329.37 914.17 309.48 948.62 302.55 944.62 329.37 898.17 356.19 944.62 349.26 948.62"/><path class="cls-19" d="M1000.8,923.06c-16-3.4-38.18-10.3-53.34-23.86-16.35-14.63-23.58-22.75-33.32-36.82a13.26,13.26,0,0,1-3.46,4.41,12.76,12.76,0,0,1-7.28,2.82c-2.69,5.35-9.59,16.77-19.35,16.77s-17.67-10.62-20.73-15.3H840.63c-7.88,0-12.72-7.07-15.32-12.7-9.1,10.17-21.25,23.64-33.69,37.12-12,13-32.44,21.48-60.78,25.21l-1-7.93c18.17-2.4,42.62-8.28,55.94-22.7,14.57-15.79,28.73-31.55,38-42l4.4-4.94,2.45,6.6c.9,3.46,4.67,13.34,10,13.34h27.23l1.16,2c2,3.44,9,13.29,15,13.29,5.31,0,11.16-9.71,13.16-14.41l1.28-3,3.19.63h0a5.5,5.5,0,0,0,4-1.06c1.63-1.37,2.49-4.23,2.49-8.25V839.05l7.33,11c12.4,18.67,18.81,26.6,37.31,43.16,10.81,9.67,28.45,17.48,49.68,22Z"/><path class="cls-19" d="M936.58,918.67C918,909.6,898.13,869,897.3,867.28l7.19-3.49c5.37,11.05,22.22,41.16,35.6,47.69Z"/><path class="cls-19" d="M859,907.25,851.28,905c4-13.78,8.08-38,8.12-38.25l7.89,1.32C867.12,869.11,863.08,893,859,907.25Z"/><path class="cls-20" d="M884.05,886.38c-9.66,0-17.67-10.62-20.73-15.3H840.63c-12,0-16.93-16.36-17.67-19.12l-.78-2.07,1.61-1.81c8.58-9.62,14.19-16,14.24-16.07l1.2-1.36H860c2.21-8.09,5.9-16.42,11.68-16.42a13.68,13.68,0,0,0,1.47-.15c6.06-.77,17.35-2.22,34.87,24.68,2.74,4.2,5.18,7.93,7.43,11.32l.67,1v1.21c0,6.64-1.84,11.51-5.47,14.49a12.76,12.76,0,0,1-7.28,2.82C900.71,875,893.81,886.38,884.05,886.38Zm-52.8-34.65c1.48,4.27,4.87,11.35,9.38,11.35h27.23l1.16,2c2,3.44,9,13.29,15,13.29,5.31,0,11.16-9.71,13.16-14.41l1.28-3,3.19.63h0a5.5,5.5,0,0,0,4-1.06c1.47-1.24,2.31-3.68,2.47-7.09-2.07-3.12-4.31-6.54-6.78-10.34-14.79-22.69-22.83-21.65-27.15-21.1-.65.08-1.27.16-1.9.19-1.47,1.44-3.91,7.57-5.27,13.36l-.73,3.08H842.85C840.92,840.83,836.8,845.51,831.25,851.73Z"/><rect class="cls-19" x="793.78" y="930.97" width="56.89" height="8"/><rect class="cls-19" x="872.44" y="948.3" width="68.52" height="8"/><rect class="cls-9" x="603.76" y="1210.01" width="50" height="12"/><rect class="cls-9" x="603.76" y="1190" width="50" height="12"/><text class="cls-18" transform="translate(821.3 1379.18) scale(0.96 1)">ONSEN</text><text class="cls-18" transform="translate(320.6 1379.18) scale(0.96 1)">SAUNA</text><path class="cls-1" d="M213.18,1277.63l-3.6-7.14c39.57-19.94,99.4-31.37,164.16-31.37,51.81,0,101.38,7.46,139.58,21l-2.67,7.54c-37.37-13.24-86-20.53-136.91-20.53C310.19,1247.12,251.67,1258.24,213.18,1277.63Z"/><path class="cls-19" d="M1021.17,1262.25c-38.79-18.76-97.48-28.92-161-27.91-50.92.83-99.41,8.91-136.55,22.76l-2.8-7.5c38-14.16,87.42-22.42,139.22-23.25,64.73-1.08,124.76,9.41,164.64,28.7Z"/><rect class="cls-2" x="297" y="1156.64" width="44.61" height="116.34"/><path class="cls-5" d="M345.61,1277H293V1152.64h52.61ZM301,1269h36.61V1160.64H301Z"/><rect class="cls-2" x="341.61" y="1156.64" width="101.81" height="116.34"/><path class="cls-5" d="M447.43,1277H337.61V1152.64H447.43Zm-101.82-8h93.82V1160.64H345.61Z"/><rect class="cls-21" x="313.22" y="1134.83" width="11.35" height="18.57"/><path class="cls-1" d="M318.89,1127.48a9.68,9.68,0,1,1,9.68-9.68A9.69,9.69,0,0,1,318.89,1127.48Zm0-11.35a1.68,1.68,0,1,0,1.68,1.67A1.67,1.67,0,0,0,318.89,1116.13Z"/><path class="cls-1" d="M329.7,1101.81a9.68,9.68,0,1,1,9.67-9.68A9.69,9.69,0,0,1,329.7,1101.81Zm0-11.35a1.68,1.68,0,1,0,1.67,1.67A1.68,1.68,0,0,0,329.7,1090.46Z"/><rect class="cls-5" x="307.05" y="1209.23" width="8" height="63.75"/><rect class="cls-5" x="322.73" y="1209.23" width="8" height="63.75"/><rect class="cls-2" x="311.05" y="1172.66" width="15.67" height="22.87"/><path class="cls-22" d="M330.73,1199.53H307.05v-30.87h23.68Zm-15.68-8h7.68v-14.87h-7.68Z"/><path class="cls-5" d="M341.61,1277a4,4,0,0,1-4-4V1156.64a4,4,0,0,1,8,0V1273A4,4,0,0,1,341.61,1277Z"/><rect class="cls-5" x="352.5" y="1209.23" width="8" height="63.75"/><rect class="cls-5" x="367.38" y="1209.23" width="8" height="63.75"/><rect class="cls-5" x="382.27" y="1209.23" width="8" height="63.75"/><rect class="cls-5" x="397.15" y="1156.64" width="8" height="116.34"/><rect class="cls-5" x="412.04" y="1231.21" width="8" height="41.78"/><rect class="cls-5" x="426.93" y="1156.64" width="8" height="116.34"/><rect class="cls-2" x="356.5" y="1170.67" width="29.77" height="95.83"/><path class="cls-22" d="M390.27,1270.5H352.5V1166.67h37.77Zm-29.77-8h21.77v-87.83H360.5Z"/><rect class="cls-5" x="360.41" y="1216.76" width="22.34" height="8"/><rect class="cls-22" x="412.04" y="1189.41" width="8" height="25.94"/><path class="cls-23" d="M416,1227.28a8,8,0,1,1,8-8A8,8,0,0,1,416,1227.28Zm0-8Z"/><rect class="cls-23" x="412.04" y="1199.14" width="8" height="20.18"/><rect class="cls-5" x="412.04" y="1154.48" width="8" height="29.89"/><path class="cls-2" d="M811,1175.08a16.83,16.83,0,0,0-16.83,16.84v58.27h33.66v-58.27A16.83,16.83,0,0,0,811,1175.08Z"/><path class="cls-24" d="M831.83,1254.19H790.17v-62.27a20.83,20.83,0,1,1,41.66,0Zm-33.66-8h25.66v-54.27a12.83,12.83,0,1,0-25.66,0Z"/><path class="cls-2" d="M902.62,1212.47A11.57,11.57,0,0,0,891.05,1224v27.15h23.14V1224A11.57,11.57,0,0,0,902.62,1212.47Z"/><path class="cls-24" d="M918.19,1255.19H887.05V1224a15.57,15.57,0,0,1,31.14,0Zm-23.14-8h15.14V1224a7.57,7.57,0,0,0-15.14,0Z"/><path class="cls-2" d="M940.81,1260.73c0,10.76-32.47,19.48-72.52,19.48s-72.51-8.72-72.51-19.48,32.46-19.47,72.51-19.47S940.81,1250,940.81,1260.73Z"/><path class="cls-25" d="M868.29,1284.21c-19.71,0-38.28-2.08-52.31-5.84-16.06-4.32-24.2-10.25-24.2-17.64s8.14-13.32,24.2-17.63c14-3.76,32.6-5.84,52.31-5.84s38.29,2.08,52.32,5.84c16.06,4.31,24.2,10.25,24.2,17.63s-8.14,13.32-24.2,17.64C906.58,1282.13,888,1284.21,868.29,1284.21Zm0-39c-44.33,0-68.51,10.22-68.51,15.47s24.18,15.48,68.51,15.48,68.52-10.23,68.52-15.48S912.63,1245.26,868.29,1245.26Z"/><path class="cls-1" d="M873.09,1298.24v-8c22.16,0,42.95-2.85,58.52-8,20.44-6.79,22-14,22-16.07h8C961.64,1287,916,1298.24,873.09,1298.24Z"/><path class="cls-2" d="M794.17,1232.36a16.83,16.83,0,0,0-16.84,16.83v28.13l33.67,8.52v-36.65A16.83,16.83,0,0,0,794.17,1232.36Z"/><path class="cls-24" d="M815,1291l-41.67-10.55v-31.24a20.84,20.84,0,0,1,41.67,0Zm-33.67-16.78,25.67,6.5v-31.51a12.84,12.84,0,0,0-25.67,0Z"/><path class="cls-2" d="M751.3,1275.52s49-5,79.26,22.34"/><path class="cls-19" d="M827.88,1300.82c-28.55-25.83-75.7-21.37-76.17-21.32l-.82-8c2.08-.21,51.13-4.9,82.36,23.35Z"/><rect class="cls-25" x="824.02" y="1258.55" width="11.49" height="8"/><path class="cls-2" d="M914.19,1199.88A11.19,11.19,0,1,1,903,1188.69,11.19,11.19,0,0,1,914.19,1199.88Z"/><path class="cls-24" d="M903,1215.07a15.19,15.19,0,1,1,15.19-15.19A15.21,15.21,0,0,1,903,1215.07Zm0-22.38a7.19,7.19,0,1,0,7.19,7.19A7.2,7.2,0,0,0,903,1192.69Z"/><path class="cls-1" d="M851.07,1202.11h-8a23.74,23.74,0,0,1,2.52-11.18,18,18,0,0,0,0-15.72,26,26,0,0,1,0-22.35,15.92,15.92,0,0,0,1.81-7.86h8a23.66,23.66,0,0,1-2.52,11.17,18,18,0,0,0,0,15.73,26,26,0,0,1,0,22.34A16,16,0,0,0,851.07,1202.11Z"/><path class="cls-1" d="M865.91,1206.7h-8a23.69,23.69,0,0,1,2.52-11.17,18.08,18.08,0,0,0,0-15.73,23.66,23.66,0,0,1-2.52-11.17h8a16,16,0,0,0,1.8,7.87,26,26,0,0,1,0,22.34A16,16,0,0,0,865.91,1206.7Z"/><path class="cls-1" d="M931.94,1187.67h-8a16.11,16.11,0,0,0-1.8-7.87,26,26,0,0,1,0-22.34,16.07,16.07,0,0,0,1.8-7.86h8a23.69,23.69,0,0,1-2.52,11.17,18.08,18.08,0,0,0,0,15.73A23.66,23.66,0,0,1,931.94,1187.67Z"/><path class="cls-1" d="M836.72,1143.92h-8a16,16,0,0,0-1.8-7.86,26,26,0,0,1,0-22.34,16,16,0,0,0,1.8-7.87h8A23.66,23.66,0,0,1,834.2,1117a18.08,18.08,0,0,0,0,15.73A23.69,23.69,0,0,1,836.72,1143.92Z"/><rect class="cls-25" x="847.79" y="1249.18" width="11.49" height="8"/><rect class="cls-25" x="887.79" y="1256.73" width="11.49" height="8"/></svg>