<svg xmlns="http://www.w3.org/2000/svg" xmlns:xlink="http://www.w3.org/1999/xlink" viewBox="0 0 320 315"><defs><style>.cls-1{isolation:isolate;}.cls-2{fill:url(#_8);}.cls-3{fill:#830050;}.cls-16,.cls-4,.cls-5,.cls-8{mix-blend-mode:multiply;}.cls-4{fill:url(#_30);}.cls-5{fill:url(#_30-2);}.cls-6{fill:#fff;}.cls-7{fill:#ffa8a6;}.cls-9{fill:url(#_30-3);}.cls-10{fill:#762747;}.cls-11{fill:#ffe173;}.cls-12{fill:url(#_30-4);}.cls-13{fill:url(#_30-5);}.cls-14{fill:url(#_30-6);}.cls-15{fill:url(#_30-7);}.cls-16{fill:url(#_7);}.cls-17{fill:url(#_30-8);}.cls-18{fill:url(#_30-9);}</style><linearGradient id="_8" x1="166" y1="196.71" x2="166" y2="465.97" gradientUnits="userSpaceOnUse"><stop offset="0" stop-color="#ff7a7a"/><stop offset="0.31" stop-color="#c0619e"/><stop offset="0.63" stop-color="#8449c1"/><stop offset="0.87" stop-color="#5f3bd6"/><stop offset="1" stop-color="#5135de"/></linearGradient><linearGradient id="_30" y1="217.44" x2="43.59" y2="217.44" gradientUnits="userSpaceOnUse"><stop offset="0" stop-color="#fff"/><stop offset="0.19" stop-color="#d8d8db"/><stop offset="0.45" stop-color="#a9a9ae"/><stop offset="0.68" stop-color="#86868e"/><stop offset="0.88" stop-color="#71717a"/><stop offset="1" stop-color="#696973"/></linearGradient><linearGradient id="_30-2" x1="83.2" y1="318.25" x2="83.2" y2="240.76" xlink:href="#_30"/><linearGradient id="_30-3" x1="49.72" y1="287.56" x2="96.99" y2="196.19" xlink:href="#_30"/><linearGradient id="_30-4" x1="138.47" y1="94.96" x2="143.01" y2="180.19" xlink:href="#_30"/><linearGradient id="_30-5" x1="243.6" y1="193.9" x2="306.07" y2="167.94" xlink:href="#_30"/><linearGradient id="_30-6" x1="214.8" y1="96.25" x2="263.54" y2="96.25" xlink:href="#_30"/><linearGradient id="_30-7" x1="200.44" y1="47.94" x2="194.86" y2="26.49" xlink:href="#_30"/><linearGradient id="_7" x1="321.89" y1="-224.56" x2="331.84" y2="-224.56" gradientTransform="matrix(-0.75, 0.66, 0.66, 0.75, 591.43, -2.67)" gradientUnits="userSpaceOnUse"><stop offset="0" stop-color="#fff"/><stop offset="0.19" stop-color="#f8f5f8"/><stop offset="0.68" stop-color="#ebe0e9"/><stop offset="1" stop-color="#e6d8e4"/></linearGradient><linearGradient id="_30-8" x1="252.57" y1="113.32" x2="324.1" y2="110.09" xlink:href="#_30"/><linearGradient id="_30-9" x1="186.71" y1="228.04" x2="271.06" y2="244.71" xlink:href="#_30"/></defs><g class="cls-1"><g id="Réteg_1" data-name="Réteg 1"><path class="cls-2" d="M24.88,309.11H313S341.54,39.25,194,3.71-4.88,196.81,24.88,309.11Z"/><path class="cls-3" d="M29.44,204A52,52,0,0,1,18,210.53c-2.41,1-14.65-.79-17.22,4.52s1.28,19.32,7.55,21,9.1-1.19,8.19-4.8-9.8-11-3.69-12.35c2.25-.5,14.79,6.75,18.8,3S45.51,209,43.26,204,36.51,194.09,29.44,204Z"/><path class="cls-4" d="M29.44,204A52,52,0,0,1,18,210.53c-2.41,1-14.65-.79-17.22,4.52s1.28,19.32,7.55,21,9.1-1.19,8.19-4.8-9.8-11-3.69-12.35c2.25-.5,14.79,6.75,18.8,3S45.51,209,43.26,204,36.51,194.09,29.44,204Z"/><path class="cls-3" d="M68.65,255.32s.8,17.15,4.18,23.49,14.62,16.12,14.94,20.58-7.07,6.69-7.07,9.6,8.84,2.22,8.84,2.22,8.52-8.22,8.2-14.39S77.33,257.55,68.65,255.32Z"/><path class="cls-5" d="M68.65,255.32s.8,17.15,4.18,23.49,14.62,16.12,14.94,20.58-7.07,6.69-7.07,9.6,8.84,2.22,8.84,2.22,8.52-8.22,8.2-14.39S77.33,257.55,68.65,255.32Z"/><path class="cls-3" d="M117.18,229.25c-3.86-7.37-8.84-6.52-6.27-.86s-1.76,16-6.42,18.35a8.51,8.51,0,0,1-3.34.82,14.58,14.58,0,0,1-11.69-4.9c-1.66-1.81-3.4-3.58-5.06-5.35-6-6.34-21.38-31.9-25.88-38.58S47.27,178,49.85,177.8,63.34,167,59,164.08s-11.58,6-13.66,3.26-6.75-7-11.74-8.06-5.3-4.86-9.48-6c-6.27-1.71-4.66,6.17-4.66,11.66s7,12.51,9.16,15.19,4.18,13.62,4.18,13.62-9.64,6.69-8.2,20.75,12.86,20.07,22.82,25.38,18.16,13.89,22.5,19,11.25,18.86,14.63,23.15S96.29,297.67,96.93,302s-8.35,8.58-1.12,9.09,11.57,0,10.44-4.62-1.76-15.1-4.82-19-4-21.27-4-29.33c0-.44,0-.88-.06-1.31a16.22,16.22,0,0,0,12.12,2.17C119.91,256.52,121,236.62,117.18,229.25Z"/><path class="cls-6" d="M50.6,232.13C32.73,223.46,30,207.38,27,201a24,24,0,0,0-2.35,13.54c1.45,14.06,12.86,20.07,22.82,25.38s18.16,13.89,22.5,19A37.31,37.31,0,0,1,72.21,262C72.62,251,66,239.6,50.6,232.13Z"/><path class="cls-7" d="M32.81,193.75s3.11,1.48,11.79,1.87c7.77.34,11.63-.6,11.63-.6l-2.51-4.62a97.58,97.58,0,0,1-10.13.26,50,50,0,0,1-11.81-1.74S31.52,192,32.81,193.75Z"/><g class="cls-8"><path class="cls-9" d="M62.14,236.59c-7.9-10.84-26.3-32.14-32.71-39.49a23.39,23.39,0,0,0-4.82,17.4c1.45,14.06,12.86,20.07,22.82,25.38s18.16,13.89,22.5,19,11.25,18.86,14.63,23.15S96.29,297.67,96.93,302s-8.35,8.58-1.12,9.09,11.57,0,10.44-4.62-1.76-15.1-4.82-19-4-21.27-4-29.33c0-.44,0-.88-.06-1.31C88.44,276.79,71.78,249.83,62.14,236.59Z"/></g><path class="cls-7" d="M19.72,155.25a1.66,1.66,0,0,1,1.74.11c1,.84,1.63,2.83,3.31,2.12,1.33-.55,1.2-2.52.28-3.87a6.23,6.23,0,0,0-.92-.33C21.53,152.57,20.29,153.51,19.72,155.25Z"/><path class="cls-3" d="M31.94,207.16a8.6,8.6,0,0,0,.66,5c.79,1.78,1.71,4.6.21,5.51-2.25,1.37-13.49,1.72-16.07,7s1.28,19.32,7.55,21,9.11-1.19,8.2-4.8-9.8-11-3.7-12.35c2.25-.5,14.79,6.75,18.81,3s3.54-15.95,1.29-20.92C46.85,206.13,33.54,198.28,31.94,207.16Z"/><path class="cls-10" d="M191.73,32.28a7.66,7.66,0,0,1,6.45-3.44c4.25.16,7.48,5,6.69,11a11.91,11.91,0,0,1-2.06,5.4S193.25,47,191.41,42A13.89,13.89,0,0,1,191.73,32.28Z"/><path class="cls-11" d="M166.86,71.29c-9.58,15.79-11.69,35.48-13.48,38.36-6.84,11-50.76,12.74-58.88,13-.6,0-1.19,0-1.79,0-1.83-.07-5.62-4-7,1.85-.6,2.51,1.67,3.57,5,5.88,0,0,13.17,8.85,26.57,10.66,12.51,1.69,57.12,9.11,68.31-27.19,10.72-34.8,4.15-60.11,4.15-60.11S177.66,53.47,166.86,71.29Z"/><g class="cls-8"><path class="cls-12" d="M161.71,120.13c-10.52,13.17-30.94,15.11-45.7,13.81a27.41,27.41,0,0,1-19.68-11.39l-1.83.06c-.6,0-1.19,0-1.79,0-1.83-.07-5.62-4-7,1.85-.6,2.51,1.67,3.57,5,5.88,0,0,13.17,8.85,26.57,10.66,12.51,1.69,57.12,9.11,68.31-27.19a133.76,133.76,0,0,0,6.06-44.25C184.22,83.39,169.41,110.49,161.71,120.13Z"/></g><path class="cls-11" d="M212.39,294.56l-10.95-.15,1.42,7.53h0s-3.66,2.69-4.52,5.41,6.08,2,8.84-.31a17,17,0,0,0,4-5h0Z"/><path class="cls-10" d="M216.17,312.52l0-.07a2.29,2.29,0,0,0,.07-.28s0,0,0,0l0-.34v0c0-.12,0-.24,0-.37h0a2.91,2.91,0,0,0,0-.4h0c-.6-3.43-5-8.93-5-8.93s-8.33,5.54-10,3.39c-.6-.75,1.69-3.51,1.69-3.51s-10.92,5.94-14.88,9.56l0,0-.25.23,0,0-.22.22,0,0c-.15.16-.29.32-.41.47h0l-.14.2,0,0-.09.15,0,.05a1.47,1.47,0,0,0-.06.14s0,0,0,.05a1.09,1.09,0,0,0,0,.17h0a1,1,0,0,0,0,.16.06.06,0,0,1,0,0,.3.3,0,0,0,0,.1s0,0,0,.05a.2.2,0,0,0,0,.08l0,.05.07.07,0,0,.15.09.36.15a9.1,9.1,0,0,0,1,.26,41.67,41.67,0,0,0,5.93.52c2.79.1,6,.07,9.09-.05,2.7-.1,5.3-.29,7.42-.54.61-.07,1.18-.15,1.7-.23a11.64,11.64,0,0,0,2.88-.71,1.33,1.33,0,0,0,.31-.18l.12-.11a.63.63,0,0,0,.12-.11,1,1,0,0,0,.12-.17l.07-.09A1.6,1.6,0,0,0,216.17,312.52Z"/><path class="cls-11" d="M308,231.72l-2.78-.17-.72,8.63,3.29.44h0s1.46,2.81,2.93,3.51,2.46-2,1.32-6.11A12.56,12.56,0,0,0,308,231.72Z"/><path class="cls-10" d="M318.56,227.13l-.1-.12a1.71,1.71,0,0,0-.11-.14l-.15-.13-.09-.07-.21-.11-.06,0-.27-.08h0l-.31,0h-.38l-.38.05h0c-3.22.6-8.43,5.26-8.43,5.26s5.09,9,3.05,10.75c-.71.63-3.26-1.85-3.26-1.85s5.42,11.73,8.76,16l0,0,.21.27,0,0c.07.08.13.16.2.23l0,0a6.08,6.08,0,0,0,.44.44h0a1.19,1.19,0,0,0,.18.15l0,0,.14.1.05,0,.13.07.05,0,.15.05h0a.39.39,0,0,0,.15,0h0l.1,0,.05,0,.08-.05,0,0,.07-.08,0,0a1,1,0,0,0,.09-.15,8.78,8.78,0,0,0,.51-2.15c.07-.48.13-1,.19-1.61.17-1.76.28-4,.34-6.33,0-.79,0-1.6,0-2.42,0-1.64,0-3.32,0-5-.13-5.76-.56-11.11-1.24-12.83A2.53,2.53,0,0,0,318.56,227.13Z"/><path class="cls-3" d="M313,220.74c-2.28-1.16-34.69-21.86-46.42-23-14.17-1.34-14.45-43.75-22.21-62.35-.85-2-7.13-10.15-7.82-12-7.45,1.71-26.76,5.49-46.22,4.14-1.65,6.35-4.7,8.09-5,14.59C184.41,166,197.85,300,197.85,300l19.7-.62s7.65-33.73,5.81-54.58c-1.13-12.84-2.92-19.21-5.33-25.31-4.12-10.42-1.57-55.36-1.57-55.36,3.79,10.18,14.85,45.18,27.69,57C269.27,244.18,306,243.78,306,243.78Z"/><g class="cls-8"><path class="cls-13" d="M266.58,197.77c-14.17-1.34-14.45-43.75-22.21-62.35-.85-2-7.13-10.15-7.82-12-2.45.56-6.19,1.35-10.79,2.1,7.32,24.06,18.7,60.17,23.4,68.21,6.18,10.57,12,26.72,3.45,34.06,24.14,16.31,53.35,16,53.35,16l7-23C310.72,219.58,278.31,198.88,266.58,197.77Z"/></g><path class="cls-6" d="M184.42,142.58c-6.58-35.19-19.57-59.51-8.24-76.7C184.62,53.07,201.87,48,211.4,49c13.28,1.46,25.54,16.1,24,30.25-3.08,28.19,8.52,47.6,9.41,55.71C231,145.07,189.9,150.78,184.42,142.58Z"/><path class="cls-7" d="M205.64,50.74a42,42,0,0,1,1.21,10.78c0,5.72,9.92,39.73,13.1,55.6,2.84,14.13,12.39,36.88,17.76,37.5s24.37-22.89,25.77-28.07-19.76-15.4-26.61-62.34c-1.07-7.29-7.62-14.13-21.31-16.18-4.28-.65-12.66-.25-12.66-.25Z"/><g class="cls-8"><path class="cls-14" d="M236.87,64.21c-.92-6.31-6-12.27-16.14-15.1A19.36,19.36,0,0,0,215,59.86c-1.92,10.08,11.66,62.5,36.54,83.53,5.82-6.6,11.24-14.16,12-16.84C264.87,121.38,243.72,111.15,236.87,64.21Z"/></g><path class="cls-10" d="M240.32,81.2l-16.39-1.45s10.26,14.07,21.45,16.43A113.1,113.1,0,0,1,240.32,81.2Z"/><path class="cls-11" d="M220.39,77.17c14.13,11.55,41,15.21,40.91,18.7-.74,20.63,4.1,52.6,3.56,61.32,0,.65-.1,1.29-.17,1.93-.23,1.95-4.28,5.66,1.09,7.69,2.31.87,3.52-1.46,6-4.77,0,0,6.91-16,9.86-30.27,2.75-13.26,19.41-54.05-21.84-71.08-14.31-5.9-26.08-9.29-34-9.25C210.13,51.52,213.67,71.68,220.39,77.17Z"/><path class="cls-10" d="M185.54,113.81c1.38-4.48,2.47-8.8,3.33-12.94L186.38,88s-25.67,11.58-19.46,48.75C175.09,132.42,182,125.31,185.54,113.81Z"/><g class="cls-8"><path class="cls-15" d="M191.09,34.24a13.49,13.49,0,0,0,.32,7.73c1.84,5,11.4,3.31,11.4,3.31a11.91,11.91,0,0,0,2.06-5.4,12.69,12.69,0,0,0-.45-5.54C199.46,38.25,194,36,191.09,34.24Z"/></g><path class="cls-7" d="M197.75,51.78a48.33,48.33,0,0,0-7.59,17.64c-7.72,41.41,16.82,76.41,15.92,84.68s-24,2.52-27.12-4.31S168.06,91.64,168.69,81a35.16,35.16,0,0,1,23.6-30.27C207.79,45.48,197.75,51.78,197.75,51.78Z"/><path class="cls-11" d="M200.18,40.23l5.46,10.51c.14,2.6-4.17,6.59-7.53,4.32-.74-.51-1.72-11.53-1.72-11.53Z"/><path class="cls-10" d="M196.7,46.66c.11,1.06.25,2.26.39,3.42,1.54-.56,3.62-1.62,3.82-3.35S198.48,45.83,196.7,46.66Z"/><path class="cls-11" d="M198.3,36.53l3,5.82a4.17,4.17,0,0,1-1.82,5.3,9.79,9.79,0,0,1-4.52,1.09c-1.7.11-2.84-1.42-3.24-3.74a23.7,23.7,0,0,1,.05-7.5C192.33,34,196.1,32.89,198.3,36.53Z"/><path class="cls-6" d="M192.28,43.78s1,3.45,3.72-.29C196,43.49,194.47,43.54,192.28,43.78Z"/><path class="cls-16" d="M200.54,45a5.45,5.45,0,0,0,.67-2.78l.06.12a4.17,4.17,0,0,1-1.82,5.3,9.79,9.79,0,0,1-4.52,1.09,2.6,2.6,0,0,1-2.44-1.44C192.83,47.29,197.73,48.5,200.54,45Z"/><path class="cls-11" d="M198.62,39.94c.09-.77.65-2.43,1.66-1.73,1.47,1,1.1,4.23-.73,4.31C198.19,42.57,198.57,40.35,198.62,39.94Z"/><path class="cls-10" d="M191.39,37.53c1.75,1.14,4.42,2.8,8.06,1.74s3.08-3,3.08-3-3,.32-3.73-1.48-6.22-3.93-7.93-1.92S190.84,37.17,191.39,37.53Z"/><g class="cls-8"><path class="cls-17" d="M259.8,60.69c-1.54-.63-3.05-1.24-4.53-1.81C265.09,66.94,277.23,78,279,85c3,11.87,4.24,24.26-2.63,27.38-4,1.8-9.55.55-15.12-9,.36,20.16,4.09,46.08,3.61,53.8,0,.65-.1,1.29-.17,1.93-.23,1.95-4.28,5.66,1.09,7.69,2.31.87,3.52-1.46,6-4.77,0,0,6.91-16,9.86-30.27C284.39,118.51,301.05,77.72,259.8,60.69Z"/></g><g class="cls-8"><path class="cls-18" d="M206.1,205.8c.9,24.24-3.69,36.63-13.8,35.95,2.87,31.63,5.55,58.27,5.55,58.27l19.7-.62s7.65-33.73,5.81-54.58c-1.13-12.84-2.92-19.21-5.33-25.31-4.12-10.42-1.57-55.36-1.57-55.36S205,175.81,206.1,205.8Z"/></g></g></g></svg>