<svg id="Réteg_1" data-name="Réteg 1" xmlns="http://www.w3.org/2000/svg" xmlns:xlink="http://www.w3.org/1999/xlink" viewBox="0 0 320 315"><defs><style>.cls-1{fill:url(#_2);}.cls-2{fill:#4cb4d4;}.cls-3{fill:#2e88bf;}.cls-4{fill:#311e69;}.cls-5{fill:#ad263d;}.cls-6{fill:#a399ff;}.cls-7{fill:#ff6161;}.cls-8{fill:#614cd4;}.cls-9{fill:#1e1240;}.cls-10{fill:#fff;}.cls-11{fill:#ff9791;}.cls-12{fill:#7165e5;}</style><linearGradient id="_2" x1="347.28" y1="-174.06" x2="322.99" y2="72.84" gradientTransform="translate(-157.36 247.77) rotate(-7.31)" gradientUnits="userSpaceOnUse"><stop offset="0" stop-color="#f2fccf"/><stop offset="1" stop-color="#a1a9ff"/></linearGradient></defs><path class="cls-1" d="M18.5,208.13c3.62,40.16,46.44,71.27,97.91,71.5,61,.27,149.83-2.5,182.17-19.58C349.79,233,316,28.92,196.17,30,103.81,30.86,10.91,123.93,18.5,208.13Z"/><path class="cls-2" d="M158.73,51.34S134,52.39,123,63.53c-19.15,19.4-10.57,36.58-3.86,44.34,0,0-41.31.69-53.35,28.82-19.3,45.12,55.55,49.88,147.45,44.34s62.69-76.49,45-87c0,0,12.93-73.71-31.17-79.25C162,6.57,158.73,51.34,158.73,51.34Z"/><path class="cls-3" d="M258.27,94S271.2,20.3,227.1,14.76c-1.11-.14-2.19-.26-3.27-.37,7.35,2.74,14,6.64,12.55,11.59-3,10.39-26.6-1.25-17.73,18.29s23.08,15,16.24,29.1-43,7.48-33.41,21.61,39.07,16.63,35.22,32.84-12.34-1.66-45.3,10-23.93,22.86-41.47,24.94-35.08-1.66-65.37-12.89C75,146.3,68.74,142.71,64.7,139.46,49.62,182,123.23,186.46,213.22,181,305.12,175.49,275.91,104.54,258.27,94Z"/><path class="cls-3" d="M148.87,56.6c8.86,4.44,16.51,2.77,21,6.65s-.82,11.64,1.66,23-8.5,18.57-14.17,19.4-20.9,8.59-1.06,9.7,24.45-8.59,29.76-15,15.94-31,8.15-40.74-35.49-8.31-35.49-8.31a89.77,89.77,0,0,0-16.63,2.6A41.47,41.47,0,0,1,148.87,56.6Z"/><path class="cls-4" d="M212.38,158.58c-3.19,8.32-23.39,32-32.42,32s-4.49-60.1,4-70.08,15-25.31,1.32-11C170.61,124.89,167,158.3,168.66,183c.09,1.29-1.87,2-3.08,1.12-9.31-6.84-24.18-19.11-21.56-26,3.76-9.89-2.63-8.15-6.9-.3s4.76,7.58,6.38,12.58-6.15,1.83-.71,7.35c4.06,4.12,14.71,12,19.9,15.75a6.11,6.11,0,0,1,2.76,5.25c-1.86,30.9-12.59,87.53-5.16,94.55,8.51,8,14.35-4.19,13.29-14.17s-3.72-29.63-1.06-35.86-1.07-26.91,2.12-34.8S222.48,179.78,223,159,215.57,150.27,212.38,158.58Z"/><path class="cls-3" d="M271.74,284.3c-.12-2.7-2.95-4.83-6.37-5.19a20.29,20.29,0,0,0-8.73.86c-6.45,2.24-17.37,1.68-12.72,6s21,4.76,25.72,1.82A3.81,3.81,0,0,0,271.74,284.3Z"/><path class="cls-3" d="M265.69,265.18s-8.23-1.12-8.41,2.81,3.94,6.58,11.1,5.46,13.25-4.06,12-6S265.69,265.18,265.69,265.18Z"/><path class="cls-3" d="M296.22,263.41s-8.59-4.8,1.62-5.69c5.23-.45,11.66.76,16.68,2,4.07,1.05,5,5.22,1.7,7.33-3.55,2.26-8.1,4.61-12.48,5.28C294.61,273.78,296.22,263.41,296.22,263.41Z"/><path class="cls-3" d="M280.54,284.34s3.31,3.7,10.35,3.6,11.16-1.92,9.63-3S285.72,285.18,280.54,284.34Z"/><path class="cls-5" d="M120.1,74.16l14.47-15.58s20.15,18,8.1,59.25c-.91,3.09-10.46,7.15-18.79-3.62C106.08,101.52,120.1,74.16,120.1,74.16Z"/><path class="cls-4" d="M134.88,65.09S138.8,77,134,85.69c-3.9,7.16-14.39,8.42-14.39,8.42Z"/><path class="cls-6" d="M61.13,191.37c.14-5.42-9.11-59.77-2.7-72.31,8.94-17.5,21.85-28.78,24.41-55.51C84,52.79,101.2,49,104.56,48.66c9.39-.82,21.59,1.25,27,5.89,12.11,10.35-.1,24.78-2.09,29.6s-7.61,10.84-.29,27c3.05,6.76,9.73,68.25,8.81,77.11-3.61,34.94-21.64,80.25-31.44,80.25-15.46,0-5.48-37.3-3.41-53.26.63-4.94,3.43-17.53,3.59-23.9.1-3.87-3.63-48.89-6.13-49,.08,6.44-10.26,46.64-11,53.31-3.61,34.95-5.35,71.15-15.66,71.92-15.86,1.18-18.53-36.41-16.47-52.37C58.18,210.33,61,197.74,61.13,191.37Z"/><path class="cls-7" d="M100.66,49.4l1.12-.26Z"/><path class="cls-7" d="M101.92,49.11l1-.2Z"/><path class="cls-7" d="M103,48.89c.62-.11,1.13-.19,1.5-.22C104.11,48.7,103.6,48.78,103,48.89Z"/><path class="cls-7" d="M73.38,94.12c-.06.1-.11.21-.17.32h0Z"/><path class="cls-8" d="M73.38,94.12c.27-.49.54-1,.8-1.49Z"/><path class="cls-8" d="M101.78,49.14l.14,0Z"/><polygon class="cls-8" points="100.66 49.4 100.66 49.4 100.66 49.4 100.66 49.4"/><path class="cls-8" d="M127.29,52l.12,0Z"/><path class="cls-8" d="M102.87,48.91l.11,0Z"/><path class="cls-8" d="M134.92,147.39c-1.9-16.78-4.24-32.94-5.72-36.22-4.42-9.78-4.13-15.81-2.76-20.14a33.92,33.92,0,0,1-.17-10.34q1-6.18,2-12.34c.86-5.18.76-10.29.76-15.52-.51-.29-1.07-.56-1.64-.82l-.12,0c-.56-.25-1.16-.5-1.77-.73a26.91,26.91,0,0,1,.68,10.89c-.42,2.29-2,2.22-4.7,2.28a44.81,44.81,0,0,1-7.33-.14c-4.29-.65-4-4.29-4.79-7-.88-2.88-2-6.54-4.9-8.6h0c-.37,0-.88.11-1.5.22l-.11,0-1,.2-.14,0-1.12.26h0c4.32,2.6,4.13,7.72,5,11.73C109.69,81,74.35,92.32,74.35,92.32l-.17.31c-.26.5-.53,1-.8,1.49l-.17.31h0C68.5,102.93,63,110.2,58.43,119.06c-2.72,5.33-2.62,18.19-1.61,31.65,1.37,18.23,4.39,37.54,4.31,40.66-.15,6.37-3,19-3.59,23.9-2.06,16,.61,53.55,16.47,52.37,10.31-.77,12-37,15.66-71.92.49-4.71,5.79-26.17,8.84-40.63,1.26-6,2.14-10.79,2.11-12.68.87,0,1.88,5.42,2.82,12.64,1.8,13.64,3.37,33.79,3.31,36.32-.16,6.37-3,19-3.59,23.9-2.07,16-12,53.26,3.41,53.26,9.8,0,27.83-45.31,31.44-80.25C138.48,183.72,136.94,165.21,134.92,147.39Z"/><path class="cls-4" d="M74,267.64c10.31-.77,12-37,15.66-71.92.49-4.71,5.79-26.17,8.84-40.63,1.26-6,2.14-10.79,2.11-12.68.72,0,1.54,3.76,2.34,9.17.63-5.13.77-10.72-1.18-12.58-3.9-3.72-19.69-1.4-19.39,11.18s-10.12,47.26-11,64.25-3.28,19.79-.9,27.7c2,6.46-1,17.7.73,25.29A8.91,8.91,0,0,0,74,267.64Z"/><path class="cls-4" d="M131.93,124.41c-1.41,12.15-6.23,55.61-5,71.77,1.41,18.86-12.15,13.9-14.26,33.51-1.23,11.48-8.43,23.82-11.62,33-1,2.88,1.64,5.84,5.46,5.88h.09c9.8,0,27.83-45.31,31.44-80.25C138.7,181.59,135.07,144.9,131.93,124.41Z"/><path class="cls-4" d="M96.58,67.56c-1.23-3.94-8.79-.2-14.81,3.54A73.72,73.72,0,0,1,78,84.29C83.18,81.59,98.33,73.12,96.58,67.56Z"/><path class="cls-4" d="M124.41,25.13s.49-3.76-6-4.84-9.87.6-10,3.05-.31,9.55,8.56,9A7.48,7.48,0,0,0,124.41,25.13Z"/><path class="cls-9" d="M118.46,20.29a23.66,23.66,0,0,0-3.34-.33c4.14,1.45,3.78,4.3,3.78,4.3s-.15,6.6-7.06,7.21a9.69,9.69,0,0,0,5.19.91,7.48,7.48,0,0,0,7.38-7.25S124.9,21.37,118.46,20.29Z"/><path class="cls-4" d="M123.46,27.43s6,1.48,6.18,5.46S127.9,46,120.14,45.31s-8.13-3.35-9-5.68S108,24.06,123.46,27.43Z"/><path class="cls-7" d="M114.45,41.43l-3.1,10.26c-.5,1.69,3.59,7,7.62,5.43,1.18-.46.53-3,.09-4.94L119,42.9Z"/><path class="cls-4" d="M119,48.41c-4.46-1.76-4.41-5.17-4.41-5.17l4.38,1Z"/><path class="cls-9" d="M120.14,45.31c7.76.67,9.69-8.44,9.5-12.42s-6.18-5.46-6.18-5.46a22.38,22.38,0,0,0-4.1-.53c2.08,1.16,5.32,3.16,6.37,4.84s-3.2,8.92-6.2,13.51Z"/><path class="cls-7" d="M118.45,34.54,115.59,38c-2.28,2.72-1.56,6.46,1.87,8.3a7.7,7.7,0,0,0,9.85-1.91c2.2-2.87.95-6.44.75-8.16C127.59,32.29,122.11,30.79,118.45,34.54Z"/><path class="cls-10" d="M120.74,42.34a15.48,15.48,0,0,1,5,.07S124,43.67,120.74,42.34Z"/><path class="cls-5" d="M118.57,45.21a12.77,12.77,0,0,0,5.59.67,11.13,11.13,0,0,0,3.26-1.68l-.11.16a7.7,7.7,0,0,1-9.85,1.91,5.55,5.55,0,0,1-3.18-4.88A8.61,8.61,0,0,0,118.57,45.21Z"/><path class="cls-7" d="M116.34,38a3.92,3.92,0,0,1,0-1.08c.11-.68.08-1.71-1.29-1.34-2,.53-2.34,4.17-.24,4.66C116.41,40.62,116.43,38.91,116.34,38Z"/><path class="cls-7" d="M101.25,149.46s-2,5-3,6.08-13.15-.69-12.83-2.3,5.23-5.81,5.27-7.9S107,142.32,101.25,149.46Z"/><path class="cls-11" d="M224.91,267.5a4.41,4.41,0,0,1-5-1.12L22.05,94.35c-1.06-1.41-.45-3.23,1.35-4a4.42,4.42,0,0,1,5.18,1l197.84,172c1.06,1.41.45,3.23-1.35,4.05Z"/><path class="cls-7" d="M91.59,54.36C73,56,43.1,70.15,32.61,86s15.23,44.84,31.72,51.3-9.14-42.17-7-47.49c1.85-4.56,30.28-9.17,41.33-21.61C105.31,60.68,101.21,53.51,91.59,54.36Z"/><path class="cls-7" d="M68.41,130.11s2.7-1.77,7.14.67c2.88,1.58,6.84,7.37,6.84,7.37s-4.7-1.35-5.33-.3,3.13,5.37,2.15,6.21c-3,2.6-12.5-3.1-14.51-8.32S68.41,130.11,68.41,130.11Z"/><path class="cls-5" d="M98.67,68.16c3.81-4.29,4.08-8.48,1.81-11.11-1.2,1.92-3.35,7.21-11.68,7.59-5.39.24-13.23,11-19.23,13-6.47,2.2-11.1.06-13.4,1.61-4.45,3-9.26,8.93-6.4,19s7.72,30.41,20.1,35.89c.61-10.55-14.19-40.29-12.53-44.39C59.19,85.21,87.62,80.6,98.67,68.16Z"/><path class="cls-7" d="M144,116.35c-2.67,9.2-41.58,35.87-48.42,32-8.4-4.79,16-31.89,28.18-40.63C140,96.05,146.66,107.23,144,116.35Z"/><path class="cls-5" d="M144,116.35c1.45-5,.76-13.14-3.46-15.26.11,2.73-1,9.28-4,12.72-5,5.8-20,8.6-28.56,20.74-6.47,9.16-10.72,10.89-11.42,14.1C105.51,150.1,141.46,125.18,144,116.35Z"/><path class="cls-7" d="M93.12,144.11s-3.69.2-5,1.56-.44,3.47-1,4.53,2.14,1.49,2.46-.34,5-.74,5.34-2S94,144,93.12,144.11Z"/><path class="cls-4" d="M120.74,266.27c-2.94-1.06-5-1.49-7-3.18a1.43,1.43,0,0,1-.35-.51,2.42,2.42,0,0,0-2.91-1c-2.73.91-7.9,1.48-9,2.94-1.91,2.43-2.37,5.59-.11,6.49,4.34,1.72,29.78.9,29.37-1C130.41,268.83,125.16,267.86,120.74,266.27Z"/><path class="cls-4" d="M86.11,267.09c-3-1.06-5-1.49-7-3.18a1.49,1.49,0,0,1-.36-.52,2.39,2.39,0,0,0-2.9-1c-2.74.91-7.91,1.48-9,2.94-1.92,2.43-2.38,5.59-.11,6.49,4.33,1.71,29.78.89,29.36-1C95.77,269.64,90.52,268.67,86.11,267.09Z"/><path class="cls-4" d="M210.82,265.07h53.66a2.61,2.61,0,0,1,2,.88c2,2.51,7.14,9.89,3.73,15.41,0,0-5.36-11.17-8.48-11.4,0,0,2.38,8.38-2.08,11.4,0,0-2.24-9.78-8-11.06,0,0,1.64,7.57-.3,11.06,0,0-5.65-11.64-9.67-11.64,0,0,2.38,8.15.74,11.64,0,0-8-11.32-13.1-12.24,0,0,3.73,7.47,0,12.24,0,0-5.35-11.79-10.56-12.24,0,0,2.16,10-1,12.24l-9.06-13.54C207.86,266.57,209,265.07,210.82,265.07Z"/><path class="cls-12" d="M101.11,84.29l21.46.84a11.78,11.78,0,0,1-11.26,8C102.35,93.26,101.11,84.29,101.11,84.29Z"/></svg>