<svg xmlns="http://www.w3.org/2000/svg" viewBox="0 0 500 268"><defs><style>.cls-1{isolation:isolate;}.cls-2{fill:#fff;}.cls-3{fill:#fff5f5;}.cls-4{fill:#ffe6e6;}.cls-5{fill:#ffd6d6;}.cls-6{fill:#4cb4d4;}.cls-7{fill:#2e88bf;}.cls-8{fill:#f4a6a6;}.cls-9{fill:#311e69;}.cls-10{fill:#914941;}.cls-11{fill:#ff8f8f;}.cls-12{fill:#ff6161;}.cls-13{fill:#ad263d;}.cls-14{fill:#1e1240;}.cls-15{fill:#614cd4;}.cls-16{fill:#ffd140;}.cls-17{fill:#ffb03b;}.cls-18{fill:#7165e5;}.cls-19,.cls-22{fill:#9fcfff;}.cls-19{mix-blend-mode:screen;}.cls-20{fill:#ff933b;}.cls-21{fill:#d95f76;}.cls-23{fill:#ff9791;}.cls-24{fill:#b1a9ff;}.cls-25{fill:#a399ff;}.cls-26{fill:#b7b3ff;}.cls-27{fill:#295fab;}</style></defs><g class="cls-1"><g id="Réteg_1" data-name="Réteg 1"><rect class="cls-2" width="500" height="268"/><path class="cls-3" d="M68.22,217.64C47.54,217.46,32,194,35.86,168.73c4.46-28.91,16.42-62.95,46.93-78.84,58.44-30.43,92.77,12.47,126.53-12.56S310.59-6.08,369,21.35s72.82,127.53,62.85,160.56-63.24,42.44-92.42,40C316.67,220,143.13,218.31,68.22,217.64Z"/><path class="cls-4" d="M64.24,229.3c-16,.35-27.15-19.57-21.34-38.09a95.7,95.7,0,0,1,15.68-30.13c25-32.32,87.63-2.16,121.8-25.5s84.23-73.56,140.27-76S433.48,131.24,428.85,186,255.37,225,223.38,225.8C199.61,226.37,109.16,228.33,64.24,229.3Z"/><path class="cls-5" d="M60.07,234.75h328.4c20.25,0,36-22,33.59-47.05s-9.77-52.51-29.45-61.56c-39.1-18-146.15-13.13-194.37,26.88-42.93,35.61-119.94-7.09-150.55,54C41.64,219.1,48.64,234.75,60.07,234.75Z"/><path class="cls-6" d="M352.37,184.62c6.07-5.73,18.9-10.12,23-18.19s-1.38-6.36-1.9-14.1,12.54-1.68,22.8-2,12.29-10.24,16.49-16.28,8-6,16.91-7.47a57.07,57.07,0,0,0,12.91-4,10.84,10.84,0,0,0-.56-1c-8-13.24-43.22,2.16-48.12,11.16s-17.73-1-30.41,8-2.94,20.18-3.55,26.26S347.73,168,334.6,175s-2.12,32.82-2.12,32.82c.7,2,5.94,3.44,12,4.07C342.89,201.52,347.45,189.28,352.37,184.62Z"/><path class="cls-7" d="M429.7,126.56C420.78,128,417,128,412.79,134S406.56,150,396.3,150.31s-23.32-5.72-22.8,2,6,6,1.9,14.1-17,12.46-23,18.19c-4.92,4.66-9.48,16.9-7.84,27.27,9.24,1,20.46,0,20.91-4.31.74-7.13,15.15-10.24,25.15-13.6s-.32-25.41.72-31.28,24.76-3.84,25.46-14.1c.69-10,31.58-13.64,25.84-26A57.07,57.07,0,0,1,429.7,126.56Z"/><path class="cls-8" d="M231.58,206.13S206,165.05,212.84,154.45s13.64-3.77,16-11.3-11.07-21.85-6-35.09,19.63-14.41,16.38-25.27S243.16,48,255.6,45.3s-1.51,32,7.48,39.75,11.5,22.4-1.86,37.81,6.17,34.93-.44,42.34-19,10.47-5.51,21.55S247,209.94,231.58,206.13Z"/><path class="cls-6" d="M235.59,154.1c-2.28-8-1.69-15.16,8.87-34s4.63-25.65,4.95-39.27,4.37-13.65,4.7-23.42A62.42,62.42,0,0,1,256,45.23l-.4.07C243.16,48,236,71.93,239.25,82.79s-11.28,12-16.38,25.27,8.34,27.56,6,35.09-9.14.71-16,11.3,18.74,51.68,18.74,51.68A29.08,29.08,0,0,0,245,206C229.47,183.25,237.62,161.23,235.59,154.1Z"/><path class="cls-7" d="M256,45.23a62.42,62.42,0,0,0-1.89,12.14c-.33,9.77-4.38,9.79-4.7,23.42s5.61,20.4-4.95,39.27-11.15,26-8.87,34c2,7.13-6.12,29.15,9.43,51.88,11.36-2.7,20-11.23,10.25-19.23-13.51-11.08-1.11-14.13,5.51-21.55s-12.92-26.92.44-42.34,10.85-30.1,1.86-37.81S267.72,43.33,256,45.23Z"/><path class="cls-8" d="M340,198.8s-19-30.44-13.89-38.29,10.11-2.8,11.87-8.38-8.2-16.19-4.43-26,14.54-10.67,12.14-18.72,2.89-25.76,12.11-27.79-1.12,23.75,5.55,29.46,8.52,16.6-1.38,28,4.57,25.88-.33,31.37-14.09,7.76-4.08,16S351.47,201.62,340,198.8Z"/><path class="cls-6" d="M343,160.24c-1.69-5.94-1.25-11.23,6.57-25.22s3.44-19,3.68-29.11,3.23-10.11,3.47-17.35a46.41,46.41,0,0,1,1.41-9l-.3,0c-9.22,2-14.52,19.74-12.11,27.79s-8.37,8.91-12.14,18.72,6.18,20.43,4.43,26-6.78.52-11.87,8.38S340,198.8,340,198.8a21.5,21.5,0,0,0,10-.11C338.47,181.84,344.51,165.53,343,160.24Z"/><path class="cls-7" d="M358.13,79.56a46.41,46.41,0,0,0-1.41,9c-.24,7.24-3.24,7.25-3.47,17.35S357.4,121,349.57,135s-8.26,19.28-6.57,25.22c1.51,5.29-4.53,21.6,7,38.45,8.42-2,14.82-8.32,7.6-14.25-10-8.21-.83-10.47,4.08-16s-9.58-19.95.33-31.37,8-22.31,1.38-28S366.81,78.16,358.13,79.56Z"/><path class="cls-6" d="M276.63,167.73c8.09-15.66,23.93-19.88,19.08-28.44s-1.94-14.27,2.59-23.53a60.51,60.51,0,0,1,9.53-13.42c-1.6-.23-4.23.17-8.3,1.41-21.4,6.48-19.34,22.57-21.58,32.68s-5.84,8.57-21,20,4.2,34.77,4.2,34.77c-1.26,7.86,10.46,7.79,24.28,8.26C279,190.57,271.69,177.3,276.63,167.73Z"/><path class="cls-7" d="M304.44,125.54c-1.57-9.67,10.21-22.22,3.39-23.2a60.51,60.51,0,0,0-9.53,13.42c-4.53,9.26-7.44,15-2.59,23.53s-11,12.78-19.08,28.44c-4.94,9.57,2.35,22.84,8.76,31.71l.94,0c14.23.52,14.36-4.44,9.38-13.94s23.19-17.81,23.19-29.39S306.38,137.47,304.44,125.54Z"/><polygon class="cls-8" points="199.67 204.25 191.6 204.25 190.32 178.66 191.7 177.62 192.6 178.4 193.18 176.49 195.46 174.75 197.63 176.4 197.86 177.09 198.15 176.79 200.6 178.66 199.67 204.25"/><polygon class="cls-8" points="216.5 204.25 208.44 204.25 207.15 178.66 208.53 177.62 210 176.49 212.29 174.75 214.46 176.4 214.98 176.79 217.44 178.66 216.5 204.25"/><polygon class="cls-8" points="233.33 204.25 225.27 204.25 223.98 178.66 225.36 177.62 226.26 178.4 226.84 176.49 229.12 174.75 231.29 176.4 231.52 177.09 231.81 176.79 234.27 178.66 233.33 204.25"/><polygon class="cls-8" points="250.16 204.25 242.1 204.25 240.81 178.66 242.19 177.62 245.95 174.75 248.35 177.09 251.1 178.66 250.16 204.25"/><polygon class="cls-8" points="266.99 204.25 258.93 204.25 257.64 178.66 259.02 177.62 262.78 174.75 264.95 176.4 265.47 176.79 267.93 178.66 266.99 204.25"/><polygon class="cls-8" points="283.82 204.25 275.76 204.25 274.47 178.66 275.85 177.62 276.75 178.4 277.33 176.49 279.61 174.75 281.78 176.4 282.01 177.09 282.3 176.79 284.76 178.66 283.82 204.25"/><polygon class="cls-8" points="300.65 204.25 292.59 204.25 291.3 178.66 296.44 174.75 299.13 176.79 301.59 178.66 300.65 204.25"/><polygon class="cls-8" points="317.48 204.25 309.42 204.25 308.13 178.66 309.51 177.62 313.27 174.75 315.44 176.4 318.42 178.66 317.48 204.25"/><rect class="cls-8" x="196.78" y="183.76" width="114.97" height="4.73"/><rect class="cls-8" x="196.78" y="194.78" width="114.97" height="4.73"/><polygon class="cls-8" points="334.31 204.25 326.25 204.25 324.96 178.66 326.34 177.62 327.82 176.49 330.11 174.75 332.27 176.4 332.79 176.79 335.25 178.66 334.31 204.25"/><polygon class="cls-8" points="351.14 204.25 343.08 204.25 341.79 178.66 343.17 177.62 344.07 178.4 344.65 176.49 346.94 174.75 349.1 176.4 349.33 177.09 349.62 176.79 352.08 178.66 351.14 204.25"/><polygon class="cls-8" points="367.97 205.49 359.91 204.25 358.62 178.66 360 177.62 363.77 174.75 366.17 177.09 368.91 178.66 367.97 205.49"/><polygon class="cls-8" points="384.8 206.79 376.74 205.67 375.45 178.66 376.83 177.62 380.6 174.75 382.76 176.4 383.28 176.79 385.74 178.66 384.8 206.79"/><polygon class="cls-8" points="401.63 212.23 393.57 212.23 392.28 178.66 393.66 177.62 394.56 178.4 395.14 176.49 397.43 174.75 399.59 176.4 399.83 177.09 400.11 176.79 402.57 178.66 401.63 212.23"/><polygon class="cls-8" points="418.46 212.23 410.4 212.23 409.11 178.66 414.26 174.75 416.94 176.79 419.4 178.66 418.46 212.23"/><polygon class="cls-8" points="435.3 212.23 427.23 212.23 425.94 178.66 427.32 177.62 431.09 174.75 433.25 176.4 436.23 178.66 435.3 212.23"/><rect class="cls-8" x="314.6" y="183.76" width="114.97" height="4.73"/><rect class="cls-8" x="314.6" y="194.78" width="114.97" height="4.73"/><path class="cls-6" d="M158.94,42.17s-13.23.72-19.11,8.32c-10.23,13.25-5.65,25-2.06,30.29,0,0-22.08.47-28.51,19.68-10.32,30.82,29.68,34.07,78.8,30.28s33.5-52.23,24.08-59.43c0,0,6.9-50.34-16.66-54.13C160.68,11.6,158.94,42.17,158.94,42.17Z"/><path class="cls-7" d="M212.14,71.31S219,21,195.48,17.18l-1.75-.25c3.92,1.87,7.47,4.54,6.7,7.92C198.83,32,186.22,24,191,37.34s12.33,10.22,8.68,19.87-23,5.11-17.86,14.77S202.66,83.33,200.6,94.4s-6.59-1.13-24.21,6.82-12.78,15.61-22.16,17-18.74-1.13-34.93-8.8a36.1,36.1,0,0,1-10.62-7.1c-8.06,29.06,31.29,32.1,79.38,28.39C237.17,127,221.56,78.51,212.14,71.31Z"/><path class="cls-7" d="M153.66,45.76c4.74,3,8.83,1.9,11.23,4.55s-.43,7.94.89,15.7-4.54,12.69-7.57,13.25-11.17,5.87-.57,6.63S170.71,80,173.55,75.67s8.52-21.2,4.35-27.83-19-5.67-19-5.67A37.84,37.84,0,0,0,150.05,44,19,19,0,0,1,153.66,45.76Z"/><path class="cls-9" d="M187.61,115.41c-1.71,5.68-12.5,21.86-17.33,21.86s-2.4-41,2.14-47.86,8-17.28.71-7.5c-7.84,10.49-9.79,33.31-8.89,50.17a1,1,0,0,1-1.64.77c-5-4.68-12.92-13-11.53-17.75,2-6.76-1.4-5.57-3.68-.21s2.54,5.18,3.41,8.59-3.29,1.25-.38,5c2.17,2.82,7.86,8.2,10.63,10.76a4.55,4.55,0,0,1,1.47,3.59c-1,21.1-6.72,59.78-2.75,64.57,4.55,5.49,7.67-2.86,7.1-9.68s-2-20.23-.57-24.49-.56-18.37,1.14-23.77S193,129.89,193.29,115.7,189.31,109.74,187.61,115.41Z"/><path class="cls-6" d="M21.21,243.31c-10.34-1.16-14.61-14.07-6.8-20.94l.58-.49c11-9.06,57.22-6.55,102.72-7s.67-11.56,31.7-17.61,293,8.06,317.82,21.17-4.11,17.1-80,26.17C314.32,253.28,113.11,253.62,21.21,243.31Z"/><path class="cls-7" d="M467.23,218.39c-2.7-1.43-8.29-2.79-16.13-4.07a16.61,16.61,0,0,0-12.62,3.1C429,224.5,402,228.13,391.18,230.3,375.09,233.52,262,236.73,235,234.63s-43.33,3.48-76,6.7-34.94,1.84-59.76-6.89-54.24,0-71.46,0a53.79,53.79,0,0,1-17.44-2.89,12.15,12.15,0,0,0,10.81,11.76c91.9,10.31,293.11,10,366.07,1.25C463.12,235.49,492.05,231.49,467.23,218.39Z"/><path class="cls-10" d="M279.41,221.73s.07-13.48,52.29-16.54,41,8.91,59.58,8.91c21,0,47.06-3.68,62.4,0S462,226,441.55,227.55s-59,.26-82.56.32C337.7,227.92,263.35,229.38,279.41,221.73Z"/><path class="cls-6" d="M15.66,221.4a8.89,8.89,0,0,1-4.09-3.33c-2.79-4.2-8.77-14.4-3.26-17.69,7-4.18,12,7.62,12,7.62s-.24-4.06,3.08-3.2,4,2,4,2S25.76,184,35.23,182.69s9.83,12.16,9.83,12.16,1.23-3.81,4.79-2.95,4.92,6.64,4.92,6.64,3.93-4.77,8.35-2.76S68,206.15,68,206.15a7.56,7.56,0,0,1,8.85.86c1.73,1.46,2.82,11.06-3.44,12.9C67.62,221.63,30,227.17,15.66,221.4Z"/><path class="cls-7" d="M73.45,219.91c6.26-1.84,5.17-11.44,3.44-12.9a7.56,7.56,0,0,0-8.85-.86s-.49-8.35-4.92-10.37a5.46,5.46,0,0,0-3.74-.29c.67.89,1.38,1.84,1.9,2.56,1.35,1.84-.49,1.12,0,5.23s2.09,7.05,3.81,7.05,5-.25,4.67,1.23-4.55,3.19-9,2.7-3.2-6.76-7.5-5.53-5.16,4.23-7.13,4.57-7.49-6.53-10.32-4.08-13.15,7.25-16,5.9-3.81-4.3-6.39-3c-1.47.77-4-.13-5,.7a50.54,50.54,0,0,0,3.05,5.2,8.89,8.89,0,0,0,4.09,3.33C30,227.17,67.62,221.63,73.45,219.91Z"/><path class="cls-7" d="M36.09,184.93c1.47,2-1.29,1.57.73,3.23s5.21,1.38,5.32,2.67S39,195.25,40.42,197a7.27,7.27,0,0,1,1.72,5.16c0,2.12,2.58-3.56,2.92-7.31,0,0-.37-13.51-9.83-12.16a5.84,5.84,0,0,0-2.68,1.12C33.84,183.73,35.33,183.9,36.09,184.93Z"/><path class="cls-7" d="M49.45,196.86c1.34.79,3.09,1.71,3.18,3.37s-2.17,2.81-.83,3.5,2.71-2.51,3-5.19c0,0-1.36-5.78-4.92-6.64a3.66,3.66,0,0,0-2.43.18c.68.1,1.48.38,1.48,1.14C48.9,194.56,48.11,196.08,49.45,196.86Z"/><path class="cls-2" d="M22.27,215.25a3.91,3.91,0,0,1-2.66-4.08c.11-3.32,5-3.82,7.65-2.29S28.19,216,22.27,215.25Z"/><path class="cls-11" d="M25.16,213c0,.66-.82,1.2-1.82,1.2s-1.83-.54-1.83-1.2.82-1.19,1.83-1.19S25.16,212.33,25.16,213Z"/><path class="cls-2" d="M56.85,214.37a3.79,3.79,0,0,1-3.77-2.81c-1-3.05,3.28-5.14,6.18-4.63S62.47,213,56.85,214.37Z"/><path class="cls-11" d="M58.72,211.36c.22.6-.34,1.36-1.25,1.69s-1.83.13-2.06-.47.35-1.36,1.26-1.7S58.5,210.76,58.72,211.36Z"/><path class="cls-2" d="M31.06,199.79a5.7,5.7,0,0,1-5.68-4.23c-1.51-4.58,4.93-7.72,9.29-7S39.49,197.78,31.06,199.79Z"/><ellipse class="cls-11" cx="31.38" cy="196.18" rx="2.65" ry="1.74" transform="translate(-65.71 22.85) rotate(-20.17)"/><path class="cls-2" d="M12.18,204.7s-1.55-.39-1.42-1.74,2.92-1.43,4.38-.73S15.52,205.15,12.18,204.7Z"/><path class="cls-11" d="M13.87,203.86c0,.27-.49.46-1.06.44s-1-.28-1-.55.49-.46,1.06-.43S13.88,203.59,13.87,203.86Z"/><path class="cls-2" d="M37.19,208.47s.23-2.58,4.28-3.71,5.9,2.76,4.71,5.51S37.82,213.65,37.19,208.47Z"/><path class="cls-11" d="M40.66,210a1.58,1.58,0,1,1,1-1.95A1.56,1.56,0,0,1,40.66,210Z"/><path class="cls-6" d="M308.22,222.14s-4.4-3.22-3.36-7.92-5.68-11.8-2.36-12.54,6.08,6.54,6.91,11.71S310.24,222.33,308.22,222.14Z"/><path class="cls-7" d="M309.41,213.39c-.83-5.17-3.59-12.45-6.91-11.71a1.29,1.29,0,0,0-.63.31,3.62,3.62,0,0,0,1.37,1.26c1.75,1,3.82,4.38,3.82,6a47.71,47.71,0,0,0,.42,8,19,19,0,0,1,0,4.16,6.88,6.88,0,0,0,.78.67C310.24,222.33,310.24,218.55,309.41,213.39Z"/><path class="cls-6" d="M308.68,218.19s1-9.77,4.89-6.91-3.33,11-4.89,10.88S308.68,218.19,308.68,218.19Z"/><path class="cls-7" d="M313.57,211.28a2.36,2.36,0,0,0-1.26-.52,10.93,10.93,0,0,1,.42,1.12c.42,1.24-.18,1.61-.83,3.23s-3.6,3-3.9,6.29c.06.43.25.73.68.76C310.24,222.25,317.44,214.14,313.57,211.28Z"/><path class="cls-6" d="M346.85,209.15s4.4-3.23,3.35-7.93,5.69-11.8,2.37-12.54-6.09,6.55-6.92,11.71S344.82,209.33,346.85,209.15Z"/><path class="cls-7" d="M345.65,200.39c.83-5.16,3.6-12.45,6.92-11.71a1.29,1.29,0,0,1,.63.31,3.7,3.7,0,0,1-1.37,1.26c-1.75,1-3.83,4.38-3.83,6a48.56,48.56,0,0,1-.41,8,19,19,0,0,0,0,4.16,7.88,7.88,0,0,1-.78.68C344.82,209.33,344.82,205.55,345.65,200.39Z"/><path class="cls-6" d="M346.39,205.19s-1-9.77-4.89-6.91,3.33,11,4.89,10.88S346.39,205.19,346.39,205.19Z"/><path class="cls-7" d="M341.5,198.28a2.36,2.36,0,0,1,1.26-.52c-.13.3-.28.67-.43,1.12-.41,1.24.19,1.61.83,3.23s3.61,3,3.91,6.29c-.06.43-.26.73-.68.76C344.83,209.25,337.63,201.14,341.5,198.28Z"/><path class="cls-6" d="M378.56,224.35s4.4-3.23,3.35-7.93,5.69-11.8,2.37-12.53-6.09,6.54-6.92,11.7S376.53,224.54,378.56,224.35Z"/><path class="cls-7" d="M377.36,215.59c.83-5.16,3.6-12.44,6.92-11.7a1.29,1.29,0,0,1,.63.31,3.78,3.78,0,0,1-1.37,1.25c-1.75,1-3.83,4.38-3.83,6a48.51,48.51,0,0,1-.41,8,18.94,18.94,0,0,0,0,4.16,7.88,7.88,0,0,1-.78.68C376.53,224.54,376.53,220.76,377.36,215.59Z"/><path class="cls-6" d="M378.1,220.4s-1-9.77-4.89-6.91,3.33,11,4.89,10.87S378.1,220.4,378.1,220.4Z"/><path class="cls-7" d="M373.21,213.49a2.36,2.36,0,0,1,1.26-.52c-.13.29-.28.67-.43,1.11-.41,1.25.19,1.62.83,3.23s3.61,3,3.91,6.3c-.06.43-.26.73-.68.75C376.54,224.45,369.34,216.34,373.21,213.49Z"/><path class="cls-6" d="M398.76,218s4.4-3.23,3.36-7.93,5.68-11.8,2.36-12.53-6.09,6.54-6.92,11.7S396.73,218.14,398.76,218Z"/><path class="cls-7" d="M397.56,209.19c.83-5.16,3.6-12.44,6.92-11.7a1.29,1.29,0,0,1,.63.31,3.69,3.69,0,0,1-1.37,1.25c-1.75,1-3.82,4.38-3.82,6a47.6,47.6,0,0,1-.42,8,18.94,18.94,0,0,0,0,4.16,7.88,7.88,0,0,1-.78.68C396.73,218.14,396.73,214.36,397.56,209.19Z"/><path class="cls-6" d="M398.3,214s-1-9.77-4.89-6.91,3.33,11,4.89,10.87S398.3,214,398.3,214Z"/><path class="cls-7" d="M393.41,207.09a2.36,2.36,0,0,1,1.26-.52c-.13.29-.28.67-.43,1.11-.41,1.25.19,1.62.83,3.23s3.61,3,3.91,6.3c-.06.43-.25.73-.68.75C396.74,218.05,389.54,209.94,393.41,207.09Z"/><path class="cls-6" d="M324.21,210.72s-1-8.88-3.56-7.19,1.73,9.12,2.75,8.51S324.21,210.72,324.21,210.72Z"/><path class="cls-6" d="M322.82,209.9s3.53-13.23,7.71-10.68-5.91,13.66-7.13,12.82A1.69,1.69,0,0,1,322.82,209.9Z"/><path class="cls-7" d="M324.21,210.72s-1-8.56-3.43-7.26l.13.27c.49,1.26,0,.54.53,2s1.76,2.33,1.83,3.89c0,.74.09,1.62.21,2.38C324.4,211.39,324.21,210.72,324.21,210.72Z"/><path class="cls-7" d="M330.53,199.22a2,2,0,0,0-.29-.15,1.55,1.55,0,0,1-.06.39,3.86,3.86,0,0,1-1.14,2.06,4.46,4.46,0,0,0-1.15,1.8c-.57,1.33-.45,2.67-.8,3.12a12,12,0,0,1-1.18,1.22l-1.68,1.57a9.45,9.45,0,0,0-.81,2.34c0,.15-.05.29-.08.43l.06,0C324.62,212.88,334.7,201.76,330.53,199.22Z"/><path class="cls-6" d="M361.05,217.07s-1.44-12.56-5-10.17,2.45,12.91,3.89,12S361.05,217.07,361.05,217.07Z"/><path class="cls-6" d="M359.08,215.92s5-18.73,10.91-15.13-8.36,19.34-10.09,18.15A2.38,2.38,0,0,1,359.08,215.92Z"/><path class="cls-7" d="M361.05,217.07s-1.39-12.11-4.86-10.27a3.66,3.66,0,0,1,.18.39c.7,1.78,0,.75.76,2.8s2.48,3.3,2.59,5.52a32.67,32.67,0,0,0,.29,3.36C361.32,218,361.05,217.07,361.05,217.07Z"/><path class="cls-7" d="M370,200.79l-.4-.2a3.28,3.28,0,0,1-.09.55,5.48,5.48,0,0,1-1.62,2.91,6.27,6.27,0,0,0-1.62,2.55c-.81,1.88-.64,3.77-1.13,4.42a17.43,17.43,0,0,1-1.68,1.72L361.08,215a13.42,13.42,0,0,0-1.15,3.32c0,.21-.08.41-.11.6l.08.06C361.63,220.13,375.89,204.39,370,200.79Z"/><path class="cls-6" d="M389.74,223.19s-1-8.87-3.56-7.18,1.73,9.12,2.75,8.51S389.74,223.19,389.74,223.19Z"/><path class="cls-6" d="M388.35,222.38s3.53-13.23,7.71-10.69-5.91,13.66-7.13,12.83A1.69,1.69,0,0,1,388.35,222.38Z"/><path class="cls-7" d="M389.74,223.19s-1-8.56-3.43-7.25q.06.12.12.27c.5,1.26,0,.53.54,2s1.76,2.34,1.83,3.9c0,.74.08,1.61.2,2.38C389.93,223.87,389.74,223.19,389.74,223.19Z"/><path class="cls-7" d="M396.06,211.69l-.29-.14a1.55,1.55,0,0,1-.06.39,3.9,3.9,0,0,1-1.14,2.06,4.32,4.32,0,0,0-1.15,1.79c-.57,1.33-.45,2.67-.8,3.13a11.49,11.49,0,0,1-1.18,1.21l-1.68,1.57a9.61,9.61,0,0,0-.81,2.35c0,.14-.05.29-.08.42l.06.05C390.15,225.35,400.23,214.24,396.06,211.69Z"/><path class="cls-6" d="M335.89,224.06s-1-8.88-3.56-7.19,1.73,9.12,2.75,8.51S335.89,224.06,335.89,224.06Z"/><path class="cls-6" d="M334.5,223.24S338,210,342.2,212.56s-5.9,13.66-7.12,12.82A1.69,1.69,0,0,1,334.5,223.24Z"/><path class="cls-7" d="M335.89,224.06s-1-8.56-3.43-7.26q.06.12.12.27c.5,1.26,0,.54.54,2s1.75,2.33,1.83,3.89c0,.74.08,1.62.2,2.38C336.08,224.73,335.89,224.06,335.89,224.06Z"/><path class="cls-7" d="M342.2,212.56a1.51,1.51,0,0,0-.28-.15,1.55,1.55,0,0,1-.06.39,3.86,3.86,0,0,1-1.14,2.06,4.38,4.38,0,0,0-1.15,1.8c-.57,1.33-.45,2.66-.8,3.12a12,12,0,0,1-1.18,1.22l-1.68,1.57a9.45,9.45,0,0,0-.81,2.34c0,.15-.05.29-.08.43l.06,0C336.3,226.22,346.38,215.1,342.2,212.56Z"/><path class="cls-6" d="M419.06,223.19s1-8.88,3.56-7.19-1.73,9.12-2.75,8.51S419.06,223.19,419.06,223.19Z"/><path class="cls-6" d="M420.45,222.37s-3.53-13.23-7.7-10.68,5.9,13.66,7.12,12.82A1.69,1.69,0,0,0,420.45,222.37Z"/><path class="cls-7" d="M419.06,223.19s1-8.56,3.43-7.26q-.06.12-.12.27c-.5,1.26,0,.54-.54,2s-1.75,2.33-1.83,3.89a21.62,21.62,0,0,1-.2,2.38C418.87,223.86,419.06,223.19,419.06,223.19Z"/><path class="cls-7" d="M412.75,211.69a1.91,1.91,0,0,1,.28-.15,3.77,3.77,0,0,0,.06.39,3.92,3.92,0,0,0,1.15,2.06,4.4,4.4,0,0,1,1.14,1.8c.57,1.33.45,2.66.8,3.12a12.85,12.85,0,0,0,1.19,1.22L419,221.7a9.72,9.72,0,0,1,.82,2.34c0,.15.05.29.07.43l-.06,0C418.65,225.35,408.57,214.23,412.75,211.69Z"/><path class="cls-6" d="M437.19,218.43s-1-8.87-3.56-7.18,1.73,9.12,2.75,8.51S437.19,218.43,437.19,218.43Z"/><path class="cls-6" d="M435.8,217.62s3.53-13.23,7.7-10.69-5.9,13.66-7.12,12.83A1.69,1.69,0,0,1,435.8,217.62Z"/><path class="cls-7" d="M437.19,218.43s-1-8.56-3.43-7.25q.06.12.12.27c.5,1.26,0,.53.54,2s1.75,2.34,1.83,3.9c0,.74.08,1.61.2,2.38C437.38,219.11,437.19,218.43,437.19,218.43Z"/><path class="cls-7" d="M443.5,206.93l-.28-.14a1.55,1.55,0,0,1-.06.39,3.9,3.9,0,0,1-1.14,2.06,4.3,4.3,0,0,0-1.15,1.8c-.57,1.33-.45,2.66-.8,3.12a11.49,11.49,0,0,1-1.18,1.21l-1.68,1.57a9.61,9.61,0,0,0-.81,2.35c0,.15,0,.29-.08.42l.06,0C437.6,220.59,447.68,209.48,443.5,206.93Z"/><path class="cls-12" d="M286.87,143.22c4.36-1.37,9.25,12.87,13.46,15.95,5.68,4.15,19.71,2.56,20.27,4.66,1.38,5.24-16.79,8.92-26,2.42C286.84,160.74,281.67,144.86,286.87,143.22Z"/><path class="cls-13" d="M319.52,166.53a4,4,0,0,0-3.14-.13,9.79,9.79,0,0,1-7.76.25c-2.94-1-5.63-.79-10.12-1.57s-3.5-2-5.52-5.32c-1.44-2.36-5.42-6.07-7.55-8,1.4,5.22,4.9,11.42,9.19,14.46C302.1,171.54,315.53,170.09,319.52,166.53Z"/><path class="cls-9" d="M297.19,155.37c-3.39-5.24-7-13.19-10.32-12.15-3.81,1.2-2.93,10.81,1.35,17.63C288.22,160.84,295.67,158.82,297.19,155.37Z"/><path class="cls-14" d="M288.34,151.41c.37-3.32-1.14-1.54-1.87-3.08-.57-1.19-.12-3.86.1-5-3.46,1.6-2.52,10.87,1.65,17.51a31.11,31.11,0,0,0,4.18-1.57,6.57,6.57,0,0,0-2.19-.76C289.38,158.26,288,154.73,288.34,151.41Z"/><path class="cls-15" d="M288.11,163.78s6.13,17.8,5.92,27.44c-.2,9.05-4.4,30.5-10,32.05S280.15,212,280.15,212l2.62-21.35s-8.56-23.24-5.2-25.51S288.11,163.78,288.11,163.78Z"/><path class="cls-15" d="M271.46,164.08a23.33,23.33,0,0,0-2.12,5.37c-.46,2.71,2.08,18.09,1.21,24-.51,3.52-2.93,7.58-2.47,14,.69,9.72,2.57,12.86,6,12.86,4.41,0,7-25.14,7-29.48s-.78-26-.78-26Z"/><path class="cls-9" d="M271.25,164.48c-.2-.13-.85-4.3-2.26-7.47-1.25-2.82-4.44-9.19,1.74-13.41,4.67-3.2,13.69-2.54,16.7-.43,5.4,3.8.17,19.25.68,20.61A56.6,56.6,0,0,1,271.25,164.48Z"/><path class="cls-15" d="M288.42,147.62c-.46-1.7-.95-3.36-1.35-4.67a14,14,0,0,0-5.47-1.46c2.51,2.84,2.85,7.24,2.85,7.24l-7.51.59-3.18-7.13a11.1,11.1,0,0,0-3,1.41l-.46.33c4.29,5.2,3.1,17.56,3.39,20.94a41.57,41.57,0,0,0,14.45-1.09,8.69,8.69,0,0,1,.33-2.73c.11-1.69.29-3.79.54-6A20,20,0,0,0,288.42,147.62Z"/><path class="cls-6" d="M278.28,134.31a2.09,2.09,0,0,0-2.34-1.51,2.84,2.84,0,0,0-1.77,4.26c1,1.17,1.79.51,2.49-.23A14.9,14.9,0,0,0,278.28,134.31Z"/><path class="cls-14" d="M275.12,136s1.18-2.83,2.29-3.48a1.46,1.46,0,0,1,2.38,1.17,5.78,5.78,0,0,1-1.87,2.67A12.1,12.1,0,0,1,275.12,136Z"/><path class="cls-12" d="M275.42,137.69l-.1,4.78c.19.61,4,1.27,4.72.19.21-.31-.06-.87-.52-1.42l-2.66-2.94Z"/><path class="cls-9" d="M277.39,138.89l-1.68.21a3.06,3.06,0,0,0,1.59,1.56,2.93,2.93,0,0,0,1.83.15Z"/><path class="cls-9" d="M278.56,135.19s.4-.62-.48-1.35-3.45,2.38-3.42,3.31a3.3,3.3,0,0,0,.73,2.1S278.76,136.78,278.56,135.19Z"/><path class="cls-12" d="M275.84,136l-.2,2.65a1.63,1.63,0,0,0,1.59,1.61,4.38,4.38,0,0,0,1.94-.4c.68-.25.88-1,.65-1.93a8.53,8.53,0,0,0-1.26-2.73C277.75,134,276.1,134.27,275.84,136Z"/><path class="cls-9" d="M275.64,138.64l.2-2.65a2.38,2.38,0,0,1,.16-.57,5.34,5.34,0,0,0,.52,1.71c.45.37.32,0,1.14-.27a5.18,5.18,0,0,1,1.8,0,6.72,6.72,0,0,1,.36,1.07c.23.91,0,1.68-.65,1.93a4.38,4.38,0,0,1-1.94.4A1.63,1.63,0,0,1,275.64,138.64Z"/><path class="cls-2" d="M277.75,137.41a4.39,4.39,0,0,0,1.41-.3s.16.53-.12.79S278.1,138,277.75,137.41Z"/><path class="cls-14" d="M279.16,138.89c-.82,0-1.12,1.37-2.79.59a2,2,0,0,1-.72-.9v.06a1.63,1.63,0,0,0,1.59,1.61,4.38,4.38,0,0,0,1.94-.4,1.12,1.12,0,0,0,.72-.95A4.57,4.57,0,0,1,279.16,138.89Z"/><path class="cls-12" d="M276.15,137a2.51,2.51,0,0,1-.16-.46c-.07-.31-.25-.74-.65-.41-.58.49-.22,2,.56,1.9C276.48,138,276.34,137.33,276.15,137Z"/><path class="cls-12" d="M269.19,144.88c-2.14-.28-16.65,9-16.94,19.53-.26,9.49,18,16,19.71,13.21s-10.83-10.76-10.23-14.72c.57-3.79,8.61-7.78,9.59-11.11C272.54,147.61,271.07,145.13,269.19,144.88Z"/><path class="cls-12" d="M270.52,176.06s1-1.76,1.86-1.91,3,.43,2.67.65a7.08,7.08,0,0,1-2.14,0,8.26,8.26,0,0,1,2.32,1.23c.36.49-.43,1.17-.94,1.29s-2.88,1.13-3.76.85S270.52,176.06,270.52,176.06Z"/><path class="cls-9" d="M257.7,152.94c4.45-4.94,10.2-8.23,11.49-8.06,1.88.25,3.35,2.73,2.13,6.91-.67,2.27-3.72,6.19-6.34,8.8C263.12,160,259.4,157,257.7,152.94Z"/><path class="cls-16" d="M281.12,225.22h0c-.09-.93-.47-2.39-.65-4.22-.11-1-1.65-4.13-.34-4.91,0,0,9.54-2.2,9.55-.91,0,2.59-3.55,9.3-3.53,9.56.52.08,5,2.51,5.06,3,.1.85-8.67.8-10.12,0C280.35,227.31,280.41,226.26,281.12,225.22Z"/><path class="cls-17" d="M281.12,225.22h0c-.09-.93-.47-2.39-.65-4.22-.11-1-1.65-4.13-.34-4.91,0,0,1.09-.25,2.53-.53.13,2.32.31,5.92.31,7.33a52.34,52.34,0,0,0,.55,5.34,7.68,7.68,0,0,1-2.43-.5C280.35,227.31,280.41,226.26,281.12,225.22Z"/><path class="cls-16" d="M270.09,225.22h0c-.08-.93-.46-2.39-.64-4.22-.11-1-1.65-4.13-.34-4.91,0,0,9.54-2.2,9.55-.91,0,2.59-3.55,9.3-3.53,9.56.51.08,5,2.51,5.06,3,.1.85-8.67.8-10.12,0C269.32,227.31,269.38,226.26,270.09,225.22Z"/><path class="cls-17" d="M270.09,225.22h0c-.08-.93-.46-2.39-.64-4.22-.11-1-1.65-4.13-.34-4.91,0,0,1.09-.25,2.53-.53.13,2.32.31,5.92.31,7.33a52.34,52.34,0,0,0,.55,5.34,7.68,7.68,0,0,1-2.43-.5C269.32,227.31,269.38,226.26,270.09,225.22Z"/><path class="cls-18" d="M278.4,155.7l7.53-.23s1.38,4.31-2.24,5S277.72,158.86,278.4,155.7Z"/><path class="cls-12" d="M320.44,162.59s3.07.37,3.35.79,1,1,.32,1.58-2.28,1.72-3.11,1.63-2.84-.7-2.54-1.63S319.09,162.82,320.44,162.59Z"/><path class="cls-9" d="M257.5,214.05c-6.87,0-13.3-.79-18-2.59-11.19-4.28-16.58-2.75-16.64-2.74a.92.92,0,0,1-.54-1.75c.24-.08,6-1.77,17.84,2.77s34.72,2.44,47.38-2.41c7.48-2.87,18.84-21.21,25.63-32.17,3.31-5.35,5.7-9.21,6.91-10.28a10.3,10.3,0,0,1,8.33-2.67A.92.92,0,1,1,328,164a8.48,8.48,0,0,0-6.76,2.24c-1,.9-3.58,5.06-6.57,9.88C307.35,188,296.23,206,288.17,209.05S268.33,214.05,257.5,214.05Z"/><path class="cls-12" d="M318.48,163.78s1.45-2.26,3-2.21,1.44,1.16,2.28,1.39.7.64.28.83-1.72-1.11-2.14-.59-1.55,2.27-2.61,2A1.17,1.17,0,0,1,318.48,163.78Z"/><path class="cls-12" d="M320.49,166.78c-.28-.39.74-1.26,1.48-1.17s1.26-2,2.7-1.3S321.11,167.65,320.49,166.78Z"/><path class="cls-9" d="M326,162.21V164a.42.42,0,0,0,.45.41l7.79-.67a.38.38,0,0,0,.34-.38v-.66a.37.37,0,0,0-.35-.38l-7.78-.52A.42.42,0,0,0,326,162.21Z"/><path class="cls-9" d="M218.78,220.82a2.3,2.3,0,0,1-2.3-2.29V208.07a2.29,2.29,0,0,1,2.3-2.29h2.53a2.3,2.3,0,1,1,0,4.59h-.23v8.16A2.3,2.3,0,0,1,218.78,220.82Z"/><path class="cls-19" d="M334.57,162.5s9-1.23,15.56,4.1c10,8.15,24,40.22,23.09,46.81s-4.39,5.62-7,4.55-4.22-8.81-4.22-8.81S360.8,218,355.88,218c-1.83,0-5.07-8.81-5.07-8.81s-1.57,5.64-4.09,2.61,1.95-22.71-1.11-33.5a25.59,25.59,0,0,0-11-15.1Z"/><path class="cls-13" d="M84.08,148l-4.56,7.08S64,165.74,67,168.74s21.77-14.11,21.78-15.85c0-1.2-1.84-3.59-3-5A1,1,0,0,0,84.08,148Z"/><path class="cls-6" d="M72.69,180.76l-1.42-4.44a2.8,2.8,0,0,0-2.64-2.08,21.6,21.6,0,0,0-4.1.42,2.92,2.92,0,0,0-2.27,2.52l.09,4.09a.66.66,0,0,1-1.09.52c-2.54-2.17-7.21-6-8.88-6.37-2.23-.51.1,1.43.73,2s4.83,7.1,8,9.48a5.82,5.82,0,0,1,2,2.61c.23.65.78,1.22,2.12,1.22l7.56-1.08C75.28,189.45,73,181.89,72.69,180.76Z"/><path class="cls-7" d="M69.12,175.42c0,.37-1.07.79-2.47.94s-2.57,0-2.61-.42,1.07-.79,2.47-.94S69.08,175.05,69.12,175.42Z"/><path class="cls-6" d="M70,176h0a.45.45,0,0,1-.48-.41,1.21,1.21,0,0,0,0-.18c0-.74-.16-3-1.38-4a2.54,2.54,0,0,0-2-.54,2.21,2.21,0,0,0-1.63.87c-1.07,1.42-.62,4-.61,4.08a.45.45,0,0,1-.36.52.46.46,0,0,1-.53-.36c0-.13-.52-3,.78-4.78A3.1,3.1,0,0,1,66,169.91a3.49,3.49,0,0,1,2.72.75c1.51,1.29,1.64,3.75,1.69,4.67,0,.06,0,.12,0,.16A.44.44,0,0,1,70,176Z"/><path class="cls-16" d="M89.5,135.32l.4-.26a.94.94,0,0,1,.73-.13,4.74,4.74,0,0,1,2.18,1.2,1,1,0,0,1,.3.69,5.32,5.32,0,0,0,.1,1.25c.1.25-2.39-.16-3.78-1.17A1,1,0,0,1,89.5,135.32Z"/><path class="cls-16" d="M82.87,137.47a1.86,1.86,0,0,1,.92-1.74c1.11-.84,3.23-1.12,6.72.43s6.67,4.21,6.3,5.9c-.18.84-.27,1.52-1.46,1.69C94.59,143.86,82.87,137.47,82.87,137.47Z"/><path class="cls-20" d="M96.47,142.15c-.63-2.46-6-6.06-11.24-6.29-3.13-.14-2.22,2.25-2.22,2.25s.49,2.16,4.92,4.25C93.07,144.78,97,144.21,96.47,142.15Z"/><path class="cls-9" d="M91,142.37s3.59,1.84,4.42,4.34-4.29,2.93-6.05,2.7S89.3,143.4,91,142.37Z"/><path class="cls-15" d="M101.63,181.86c.43-4.25,1.35-9.69-.57-13.72-1.51-3.49-4.63-6-6.36-9.4a8.08,8.08,0,0,1-.86-4.87c.18-1.25,1.07-2.85,1.17-4.11a4.54,4.54,0,0,0-5.15-5.17c-2.55.26-6.39,2.33-6.62,5.13-.25,3.05.9,6,.53,9.08-.23,1.87-1.24,3.45-1.93,5.17a45,45,0,0,0-2,6.62,117.79,117.79,0,0,0-2.27,13.46c-.15,1.35-.29,2.69-.42,4-.74,7.65.33,35.45,4.64,35.13,5-.38,3.88-16.55,3.37-25.2-.18-3,1.31-5.52,1.85-8.39.42,0,1.58-13.61,3-13.6s1.41,19.65,1.41,19.65c-.16,2.89,4,27.54,6.29,27.54,7.07,0,3.33-21.6,2-25.11C99.11,195.1,101.41,184,101.63,181.86Z"/><path class="cls-9" d="M89.81,176.1c-1.08.47-6.56,3.09-6.53,7.47,0,4.85-1.74,6.55-2.06,12.38s-1.15,16.84.4,22.43a28.33,28.33,0,0,1,.78,4.69c4.34-1.59,3.26-16.77,2.77-25.06-.18-3,1.31-5.52,1.85-8.39C87.43,189.65,88.5,177.2,89.81,176.1Z"/><path class="cls-9" d="M88.5,138.14s-.56-1.24-1.59-.7-.08,2.41-.52,2.92.47,1.19,1.12,1.21,2.3,2.11,2.9,2a2.52,2.52,0,0,0,1.38-3.21C91.37,138.72,90.07,138.14,88.5,138.14Z"/><path class="cls-16" d="M85.42,225.13l0,0c.08-.83.42-2.11.58-3.73.09-.91,1.45-7,.29-7.66,0,0-8.42-1.95-8.42-.81,0,2.29,3.13,11.54,3.11,11.77-.45.07-4.41,2.22-4.46,2.66-.09.75,7.64.71,8.93,0C86.1,227,86,226.05,85.42,225.13Z"/><path class="cls-17" d="M85.42,225.13l0,0c.08-.83.42-2.11.58-3.73.09-.91,1.45-7,.29-7.66,0,0-1-.23-2.23-.48-.11,2.05-.27,8.56-.27,9.81a45.93,45.93,0,0,1-.49,4.71,6.77,6.77,0,0,0,2.15-.44C86.1,227,86,226.05,85.42,225.13Z"/><path class="cls-11" d="M89.32,148.91a33.16,33.16,0,0,0,2.32-4.21,4.89,4.89,0,0,0-1.78-.11,8.41,8.41,0,0,0-2,.49c-.73.83-2.08,2.48-2,3.19C85.87,149.23,88.77,149.43,89.32,148.91Z"/><path class="cls-12" d="M90.27,141.49l.43,3.34c.07.55-1.13,2.12-2.08,1.52-.28-.17,0-1,.15-1.56l.32-2.95Z"/><path class="cls-9" d="M88.85,144a2.58,2.58,0,0,0,1.34-1.88l-1.15.13Z"/><path class="cls-12" d="M89.76,139.74l.51,1.2a2,2,0,0,1-.93,2.53,1.67,1.67,0,0,1-2.32-1,4,4,0,0,1,.28-2.59C87.63,138.63,89.07,138.4,89.76,139.74Z"/><path class="cls-12" d="M90.21,141.06a1.15,1.15,0,0,0,.1-.33c0-.21.16-.52.44-.3s.13,1.45-.42,1.43S90.09,141.33,90.21,141.06Z"/><path class="cls-2" d="M88.38,141.88a3.18,3.18,0,0,1-1.14-.1.74.74,0,0,0,.2.49C87.69,142.45,88.15,142.41,88.38,141.88Z"/><path class="cls-13" d="M89.12,143.09a2.59,2.59,0,0,1-1.41,0,2.66,2.66,0,0,1-.7-.67s0,0,0,.05a1.67,1.67,0,0,0,2.32,1,1.9,1.9,0,0,0,1.06-1.4A2.47,2.47,0,0,1,89.12,143.09Z"/><path class="cls-9" d="M99.7,198.1c-.59-3,1.71-14.1,1.93-16.24.43-4.25,1.35-9.69-.57-13.72-1.51-3.49-4.63-6-6.36-9.4a8.08,8.08,0,0,1-.86-4.87c.18-1.25,1.07-2.85,1.17-4.11a5.11,5.11,0,0,0-.84-3.35c-.68,2.57-2.32,9.42-1.61,12.73.89,4.11,2.67,11.32,4.61,14s-.65,5.22-1.21,9.23-1,3,.88,6.43-3.31,4.53-1,10.6,4.61,6.18,3.4,11c-.69,2.72-2.76,6.18-3.44,9.07.7,2.3,1.37,3.81,1.94,3.81C104.77,223.21,101,201.61,99.7,198.1Z"/><path class="cls-9" d="M83.82,158.23c0,.19,0,.38,0,.57-.23,1.84-1.21,3.41-1.9,5.1,2.18-1.11,6-3.53,6.19-6.93C88.2,154.68,86.07,156.12,83.82,158.23Z"/><path class="cls-21" d="M94.7,158.74a8.08,8.08,0,0,1-.86-4.87c.18-1.25,1.07-2.85,1.17-4.11a4.76,4.76,0,0,0-1.83-4.35A16.35,16.35,0,0,0,91,151.24c-.23,2.7-1.24,6.48,1.23,7.34a13.54,13.54,0,0,0,2.74.56C94.85,159,94.77,158.88,94.7,158.74Z"/><path class="cls-12" d="M93,146.71c-4.31-.14-12.55,10.14-12.55,10.14s-15.6,8.8-13.34,12.28,22.63-11.31,26.52-17.76C94.91,149.25,94.64,146.76,93,146.71Z"/><path class="cls-16" d="M100.9,225.43h0c.07-.82.41-2.11.57-3.72.09-.92,1.46-7,.3-7.67,0,0-8.42-1.94-8.43-.81,0,2.29,3.13,11.55,3.12,11.78-.46.07-4.41,2.21-4.47,2.66-.09.75,7.65.7,8.93,0C101.58,227.28,101.53,226.35,100.9,225.43Z"/><path class="cls-17" d="M100.9,225.43h0c.07-.82.41-2.11.57-3.72.09-.92,1.46-7,.3-7.67,0,0-1-.22-2.24-.47-.11,2-.27,8.56-.27,9.8,0,.94-.24,2.93-.48,4.71a6.75,6.75,0,0,0,2.14-.43C101.58,227.28,101.53,226.35,100.9,225.43Z"/><path class="cls-13" d="M88.38,154.48c-.2,1.08-4.84,4.05-4.84,4.05l-8.42,5.82s-7.2,2.43-7.84,4.16a1.8,1.8,0,0,0-.12.66c2.42,3.31,22.61-11.38,26.48-17.8a4.34,4.34,0,0,0,.54-3.9,6.33,6.33,0,0,1-1.39,2.42C91.53,151.13,88.57,153.4,88.38,154.48Z"/><path class="cls-12" d="M68.74,169.16a3.72,3.72,0,0,1-1.33,2.71,2.65,2.65,0,0,1-2.79,0c-.48-.57,1.47-1.14,1.63-1.83s0-1.92.92-1.88S69,168.4,68.74,169.16Z"/><path class="cls-12" d="M66.86,168.1a9,9,0,0,0-1.75,1c-.52.42-1,1-.75,1.38.11.12.83-.18,1.11-.44s1,.18,1.43-.28S67.51,167.78,66.86,168.1Z"/><polygon class="cls-9" points="52.75 175.54 50.93 173.42 50.28 177.15 52.53 176.92 52.75 175.54"/><path class="cls-15" d="M51.18,175.34c-.15,1-.59,1.85-1,1.79s-.57-.95-.42-2,.59-1.85,1-1.79S51.34,174.29,51.18,175.34Z"/><path class="cls-7" d="M72.69,180.76l-1.42-4.44a2.8,2.8,0,0,0-2.64-2.08c-.35,0-.73,0-1.12,0,.78.06,1.7.22,1.95.61.46.71.78,1.08-.19,1.6s-1.46.09-1.7.85,1.38.33,1.94,1.38-3,1.17-1.42,2.71,2.23.74,2,3.39a23.93,23.93,0,0,0,.09,5.26l2.65-.38C75.28,189.45,73,181.89,72.69,180.76Z"/><path class="cls-7" d="M61.29,185.47c-.32-1.17-.91-.89-2.59-1.88s-1.29-1.76-1.62-2.82-.77-.83-1.74-1.09-1.05-1.5-1.58-2.24a.86.86,0,0,0-1.07-.37l.42.39c.5.48,4.83,7.1,8,9.48a6.23,6.23,0,0,1,1.6,1.72c.3-.12.48-.29.46-.54C63.09,187,61.62,186.64,61.29,185.47Z"/><path class="cls-22" d="M49.19,174.75s-8.5.65-8.12,3.79,6.51-3.32,6.59-2.44-1.73,1.25-1.6,2.13S48.77,177.35,49.19,174.75Z"/><path class="cls-22" d="M43.9,181s-4.09,1.84-3.67,4.29S43.9,181,43.9,181Z"/><path class="cls-22" d="M44.86,183.89s-3.7,4.64-.89,5.94S44.86,183.89,44.86,183.89Z"/><path class="cls-12" d="M459.58,167.4S449,179.58,444.66,187.47c-3.51,6.33-7.51,19.71-4.37,22.29s7.89-4.53,12.43-19.21c1.57-5.05,20.55-17,17.81-24.07C469.4,163.55,459.58,167.4,459.58,167.4Z"/><path class="cls-13" d="M469.89,165.76a3.65,3.65,0,0,0-1.7-.38c-1.4,2.43-4.36,7.25-6.82,9.29-3.35,2.79-8.46,6-9.49,9.45s-5.68,7.26-6.49,11.59c-.76,4-2.48,12.73-2.75,14.34,2.92-1.31,6.56-8.13,10.08-19.5,1.21-3.9,12.8-11.9,16.76-18.61A21.85,21.85,0,0,0,469.89,165.76Z"/><path class="cls-9" d="M440.09,197.56c-2,7.17-3.18,14.66-3.5,14.81s-6.37-.35-6.75.13c-.63.78,8.29,6.21,10.28,6.28,1,.05,1.39-2.3,1.81-3.73.09-.32,3.94-6.49,7.16-12.87a13.32,13.32,0,0,0-4.39-5.75A3.45,3.45,0,0,0,440.09,197.56Z"/><path class="cls-9" d="M456.4,185.81,450.15,181s.48,6.8,2.6,9.5C453.16,189.26,454.55,187.65,456.4,185.81Z"/><path class="cls-23" d="M470.53,166.48c-1.46-2.78-10.95.92-10.95.92s-7.39,6.48-10.6,13.4c1.92.5,5.22,9,9.89,9.61C462.43,183.12,471.53,168.39,470.53,166.48Z"/><path class="cls-21" d="M468,167.51s-1.93,7-4.84,9.07a19.39,19.39,0,0,0-6.18,6.31c-1.41,2.27-2.85,1.72-3.48,3.45,1.53,2,3.33,3.79,5.39,4.07,2.54-5.2,7.89-14.17,10.39-19.59Z"/><path class="cls-12" d="M476.13,194.79s5.63-27.57-.84-30.51-11.37,3.14-11.37,3.14,2.71,23.6,4.19,31.38c1.07,5.66,5.44,22,5.17,22.45s5.82,1.08,5.51-.26c-.09-.36.41-10.57-.35-18.21A30.59,30.59,0,0,0,476.13,194.79Z"/><path class="cls-13" d="M478.44,202.78a30.59,30.59,0,0,0-2.31-8s4.35-21.33,1-28.46c-1.64,4.53-6.08,17.33-5.65,21.5.53,5.1-2.31,3.35,0,9.67s3.14,9.06,3.38,14a61,61,0,0,0,1.07,10.23c1.49.07,3-.08,2.86-.77C478.7,220.63,479.2,210.42,478.44,202.78Z"/><path class="cls-9" d="M469.26,188.12a9.9,9.9,0,0,0,7.67,2.18c.21-1.29.43-2.79.64-4.4Z"/><path class="cls-23" d="M478.22,187c1.21-8.39,1.57-20.06-2.45-21.89-6.47-3-11.85,3.2-11.85,3.2l1.9,19.82C469.37,189.71,474.38,188.57,478.22,187Z"/><path class="cls-21" d="M475.77,165.09a8.51,8.51,0,0,0-4.68-.74,43.09,43.09,0,0,0,1,4.93c.88,2.91.5,13.64,0,15-.43,1.18-4.52,1.19-6,3.89,3.54,1.47,8.44.36,12.21-1.21C479.43,178.59,479.79,166.92,475.77,165.09Z"/><path class="cls-12" d="M461.46,171.12c-.9-5.57-5.81-3.52-6.48-1.84-1.79,4.48,1.58,13.87,3.41,19.72.73,2.34,1.51,3.89,2.29,3.64,1.33-.42,2.09-2.16,2.49-4.49C464.15,182.35,461.76,173,461.46,171.12Z"/><path class="cls-9" d="M456.06,136.09s-.39-1.09-2.26.3c-.75.56-1.24,2.77-2,2.81,0,0,.61,1.78,3.48,1.54,2.19-.19,3.22.18,4.09-.35s.27-3.09-.48-4C458.41,135.78,456.74,134.93,456.06,136.09Z"/><path class="cls-14" d="M458.93,136.39a2.86,2.86,0,0,0-1.2-.76,3.71,3.71,0,0,1-.1,1.38c-.27,1-2.27,2.9-4.23,3.54a5,5,0,0,0,1.92.19c2.19-.19,3.22.18,4.09-.35S459.68,137.3,458.93,136.39Z"/><path class="cls-15" d="M477.28,166.12c1.71-7.64-1.53-24.42-9.57-25.33-5.17-.58-16.68,6.55-13.47,13.89.84,1.92,3.72,2.95,4.89,5.09.72,1.3-.56,5.19-.4,6.83.29,3,4.75,4,7.77,3.48C474.23,168.88,476.6,169.19,477.28,166.12Z"/><path class="cls-12" d="M458.3,139.29l3.24,3.2c.29.55-1.93,3.62-3.17,3.36-.37-.07-.56-.65-.61-1.35l-.16-3.89Z"/><path class="cls-9" d="M457.63,141.39l1.32-1a2.94,2.94,0,0,1,0,2.18,2.84,2.84,0,0,1-1.18,1.36Z"/><path class="cls-12" d="M456.73,138.3l1.95,1.72a1.57,1.57,0,0,1,0,2.21,4.27,4.27,0,0,1-1.63,1.06c-.66.28-1.32-.12-1.79-.92a8.64,8.64,0,0,1-1-2.77C454,138.2,455.37,137.27,456.73,138.3Z"/><path class="cls-12" d="M457.33,139.37a2.53,2.53,0,0,0-.21-.44c-.16-.26-.33-.69.18-.73.74,0,1.49,1.4.9,1.89C457.76,140.46,457.45,139.76,457.33,139.37Z"/><path class="cls-2" d="M456.25,140.67a4.27,4.27,0,0,1-1.19.75s.25.48.63.47S456.41,141.32,456.25,140.67Z"/><path class="cls-13" d="M456.39,142.61c.6-.54,1.73.19,2.37-1.51a2.15,2.15,0,0,0-.12-1.12l0,0a1.57,1.57,0,0,1,0,2.21,4.27,4.27,0,0,1-1.63,1.06,1.12,1.12,0,0,1-1.16-.18C456,143.06,456.21,142.77,456.39,142.61Z"/><path class="cls-9" d="M472.05,169.28c3.43-.51,4.75-1,5.23-3.16,1.37-6.15-.46-18.22-5.42-23.17-1,.59-2.12,1.29-2.12,1.29s-.11,7.78,1.74,11.69.87,8.82.59,12.95C472.07,169,472.06,169.15,472.05,169.28Z"/><path class="cls-15" d="M439.45,218.55l2.18,1.8,44.87-54.09a1.41,1.41,0,0,0-.17-2h0a1.41,1.41,0,0,0-2,.18Z"/><path class="cls-12" d="M459.31,191.44a16.76,16.76,0,0,0-.3,3.89c.25.77-.41,2,0,2.16s1.39-1.43,1.48-2.48,1-1.73,1-2.81S459.42,190.77,459.31,191.44Z"/><path class="cls-12" d="M462,197.2a1.64,1.64,0,0,1-1,.21c-.36,0-.72-.23-.54-.8.57-1.73,2-1.83,2.13-2.58s.1-1.44.81-1.39S464.23,195.92,462,197.2Z"/><path class="cls-14" d="M445.57,197.08c-.3,1-.66,2.12-1,3-.71,1.81-1.5,1.18-1.43,4.11s-2.68,7.42-2.68,7.42a59.3,59.3,0,0,0-3.34,6.09,9.79,9.79,0,0,0,3,1.12c1,.05,1.39-2.3,1.81-3.73.09-.32,3.94-6.49,7.16-12.87A14.37,14.37,0,0,0,445.57,197.08Z"/><path class="cls-12" d="M467.41,143.35a2,2,0,0,1,1.94-2.54c4.68.06,15,.81,21.29,6.09,3.75,3.16-.5,20.61-7.25,18.54-2.56-.78,1.12-14.84,1.12-14.84s-12-.51-15.22-3.65A8.42,8.42,0,0,1,467.41,143.35Z"/><path class="cls-13" d="M490.64,146.9c-4.69-3.94-11.63-5.36-16.8-5.85.18.4.85,1,3.13,1.53,3.75.85,8.22.68,9.14,2.69s2.12,4.14,2.72,5.61.11,2.5-.44,4.07c-.48,1.41-2.94,6.8-5.87,6.7-.12,2,.07,3.55.87,3.79C490.14,167.51,494.39,150.06,490.64,146.9Z"/><path class="cls-9" d="M469.05,208c1.75,7.24,4.4,14.34,4.2,14.64s-5.74,2.8-5.84,3.4c-.16,1,10.27,1.37,12,.47.93-.48.09-2.7-.24-4.15-.07-.32.26-7.59,0-14.72a13.33,13.33,0,0,0-6.65-2.87A3.45,3.45,0,0,0,469.05,208Z"/><path class="cls-12" d="M482.41,164.11c-.89.93-2.23,2.6-2,4.09a.36.36,0,0,0,.63.16l.8-1s1.13.59.46,3.4a.65.65,0,0,0,.69.81,2,2,0,0,0,1.4-.85c1-1.35,2.2-5.23,1.29-6.48a2.12,2.12,0,0,0-.79-.66A2.16,2.16,0,0,0,482.41,164.11Z"/><path class="cls-24" d="M448.31,220.78a60.52,60.52,0,0,1-6.78-3.78c-.17-.13-.37-.31-.59-.51h0c-1.25.8-7.24-.76-7.24-.76-4.08,3.94-9.33,10.75-2.57,15,8.13,5.13,15.34-4.25,17.73-7.9A1.43,1.43,0,0,0,448.31,220.78Z"/><path class="cls-15" d="M440.09,219s-7.35,7.19-7.27,9.56S439.22,223.63,440.09,219Z"/><path class="cls-10" d="M426,232.91h19.84a1.13,1.13,0,0,0,.59-2.09c-2.24-1.39-5.08-2.89-6.28-2.49-2.13.71-3.16,1.42-4.19,1.26s-2.53-2-5.14-2.05S425.52,231,426,232.91Z"/><path class="cls-12" d="M454.5,171.61s-2.61-18.72-.57-21.3,7.31,14.58,7.21,19.55S454.5,171.61,454.5,171.61Z"/><path class="cls-14" d="M479.17,207.62A14.17,14.17,0,0,0,474,205a4.74,4.74,0,0,0,.83,4.09c2.25,3.63,1.66,3.15,1.18,7.77a62.36,62.36,0,0,0,.23,10.1,10,10,0,0,0,3.18-.47c.93-.48.09-2.7-.24-4.15C479.14,222,479.47,214.75,479.17,207.62Z"/><path class="cls-13" d="M457.53,172.57c1.73.25,3.56-.09,3.61-2.71.09-4.31-3.86-17.77-6.25-19.6-.11,1.55-.17,4.84,1,7.19,1.57,3.16,3,4.32,2.86,8.16C458.68,168.22,457.57,170.4,457.53,172.57Z"/><path class="cls-13" d="M458.72,167.52a17.71,17.71,0,0,0-1.19,5c-.1,3.88,2.67,7.44,2.91,11.11s-.47,6.38,1,8.52a6.91,6.91,0,0,0,1.72-4c1-5.8-1.41-15.16-1.71-17C461.07,168.72,459.94,167.73,458.72,167.52Z"/><path class="cls-12" d="M393.19,182.64c-.79,6.72-6.78,12-7.84,16.38-.91,3.79,2.33,14.6.77,15.6-2.83,1.82-6.45-6-7.51-9.49-3.23-10.81,4-18.81,7.25-22.51C392,175.49,393.8,177.51,393.19,182.64Z"/><path class="cls-13" d="M393.19,182.64A8.51,8.51,0,0,0,393,179c-1.13,1.57-3.17,4.37-4.34,5.71-1.67,1.93-4.06,2.5-4.46,5.69a60.75,60.75,0,0,1-1.55,7.79,16.32,16.32,0,0,0,0,8.82c.88,2.62,2.06,6.19,3.35,7.63l.08,0c1.56-1-1.68-11.81-.77-15.6C386.41,194.6,392.4,189.36,393.19,182.64Z"/><path class="cls-12" d="M383.43,212.43a4.88,4.88,0,0,0-.5,3.92c.66,1.71,1.67,2.16,3.07,1.12.79-.59-.63-1.43-.3-2.31s1.2-2.13.2-2.74S383.74,211.42,383.43,212.43Z"/><path class="cls-9" d="M387.11,217.08c1.42,1.08-.27,7.93-.74,8.65a.29.29,0,0,0,.1.42.33.33,0,0,0,.44-.1c.08-.13,2.56-8.36.49-9.53C387.33,216.48,387,217,387.11,217.08Z"/><path class="cls-25" d="M383.84,226.82h-9l1.78,17.46c0,.72,3.24,1.31,7.24,1.31s7.24-.59,7.24-1.31l1.79-17.46Z"/><path class="cls-15" d="M386.84,226.82a40.71,40.71,0,0,0,.11,5.29c.3,2.52-1.83,2.36-.07,4.82s-1.08,5.89-.7,7.5c.06.29.15.66.25,1.07,2.72-.18,4.65-.66,4.65-1.22l1.79-17.46Z"/><ellipse class="cls-15" cx="383.84" cy="226.82" rx="9.22" ry="1.31"/><path class="cls-26" d="M378.6,227.92s.68,2.52,3,2,2.44-1.82,2.44-1.82S380.31,228.13,378.6,227.92Z"/><path class="cls-26" d="M383.84,228.37c-.38,0-9.46,0-9.46-1.55s9.08-1.54,9.46-1.54,9.46,0,9.46,1.54S384.23,228.37,383.84,228.37Zm-9-1.55c.23.39,3.37,1.07,9,1.07s8.76-.68,9-1.07c-.22-.39-3.36-1.07-9-1.07S375.09,226.43,374.86,226.82Z"/><path class="cls-9" d="M384.37,216.09c-7.08,4.88-3.83,12.56-3.8,12.69a.28.28,0,0,0,.33.22.29.29,0,0,0,.22-.34c0-.14-3.58-9.18,5.09-12.94a.28.28,0,0,0-.23-.52A10.78,10.78,0,0,0,384.37,216.09Z"/><path class="cls-25" d="M383.3,217.94s-.54-.29-.52-.75A4,4,0,0,1,386,215a1.81,1.81,0,0,1,1.77,1.71.4.4,0,0,1-.72.25,1.21,1.21,0,0,0-1.22-.49C384.63,216.75,383.69,218.2,383.3,217.94Z"/><path class="cls-9" d="M388.83,184s-2.7,7.81-1.95,11.64c1.26-2.14,3-4.46,4.33-7Z"/><path class="cls-15" d="M398.17,204.67s4.37,20.11,6.26,23.5c3.1,5.57,17.07,18.33,24.05,17.77s-.62-7.56-3.17-10.51c-1.41-1.63-10.28-9.86-11-13.46-.43-2-1.45-17.08-3.42-19.69S398.17,204.67,398.17,204.67Z"/><path class="cls-15" d="M390.48,203.9s-5.91,19.54-5.33,26.17,3.69,26.86,6.58,27,4.56-1.24,5-3.27c.77-3.53-1.84-24.9-1.34-26.31s7.54-19.83,6.13-23.63S390.48,203.9,390.48,203.9Z"/><path class="cls-9" d="M425.31,235.43c-1.41-1.63-10.28-9.86-11-13.46-.4-1.86-1.3-14.93-3-18.91l-1.56-.86-2.67-.52a23.78,23.78,0,0,0-2.78.67c1.06,2.56,3.38,8.15,4.33,10.55,1.24,3.15-.49,6.54.48,9.59s4.16,4.74,6.65,7.18,3.46,7.6,6.75,10.63a34.06,34.06,0,0,0,8.45,4.8C432.94,243,427.41,237.86,425.31,235.43Z"/><path class="cls-9" d="M396.74,253.84c.77-3.53-1.84-24.9-1.34-26.31.31-.9,3.3-8.72,5.05-15.26a2.25,2.25,0,0,0-.33-.82c-1.09-1.42-5.26-.32-6.15,3s-.71,8.9-1.87,10.77-1.65,3.66-1.38,7.81,1.64,12.73,1.38,15.47-4.51,6.4,1.32,7.16a12.85,12.85,0,0,0,2.31.1A4.18,4.18,0,0,0,396.74,253.84Z"/><path class="cls-23" d="M387.54,213.54c2.33-8.84,2.1-19.33,1.58-22.28-.49-2.75-2.37-10.45,1.85-13.37,7.36-5.09,18.82-2.77,21.48,3.71.87,2.13-.76,8-1.91,11.62a8.81,8.81,0,0,0,.1,5.67c1.28,3.58,3.32,9.89,3.73,15C411.66,215.55,397.87,219.17,387.54,213.54Z"/><path class="cls-21" d="M410.64,198.89a8.81,8.81,0,0,1-.1-5.67c1.15-3.58,2.78-9.49,1.91-11.62-1.16-2.81-4-4.84-7.38-5.82-1.48,2.81-3.51,7-4.11,9.72-1,4.44-3.3,9.55,0,13.2s5.4,1.82,3.92,6.15c-.95,2.76-.64,7.93-.23,11.51,4.69-.48,8.44-1.71,9.72-2.51C414,208.78,411.92,202.47,410.64,198.89Z"/><path class="cls-12" d="M403.73,175.46a17.67,17.67,0,0,0-9.12.6c-.76,1.6-2,4.81-.78,6.2C395.47,184.05,403,178,403.73,175.46Z"/><path class="cls-13" d="M407.78,192.44a4.29,4.29,0,0,0,3.65-2.17c.91-3.29,1.68-7.06,1-8.67a10.19,10.19,0,0,0-5.88-5.3c-.36,1.27-3.17,5.75-3.17,8.48C403.4,188.36,405.45,192.44,407.78,192.44Z"/><path class="cls-9" d="M410.29,194.27a7.63,7.63,0,0,1,.25-1.05c.44-1.38,1-3.1,1.37-4.82l-5.1-3.75S407.88,190.81,410.29,194.27Z"/><path class="cls-12" d="M406.62,184.37c1.65,6.57,7.88,8.55,9.5,12.79,1.4,3.65.26,14.92,1.93,15.71,3,1.44,5.63-6.74,6.23-10.37,1.81-11.14-6.57-18-10.08-21.39s-6.38-3.94-7.25-2.09A13.71,13.71,0,0,0,406.62,184.37Z"/><path class="cls-13" d="M421.13,211.29a26,26,0,0,0,3.15-8.79c1.81-11.14-6.57-18-10.08-21.39-3.05-3-5.79-3.79-6.94-2.56,0,0,6.87,4.51,8.64,6.57,1.49,1.74,3.06,5.64,4.28,8.1s1.2,2.55,1.13,5.71C421.26,201.51,420.71,208,421.13,211.29Z"/><path class="cls-12" d="M417.73,211.51a9,9,0,0,0-.84,2.68c0,.87.33,1.56.92,1.67s.18-.69.23-1.2,1.45-.63,1.46-1.43S418.11,210.64,417.73,211.51Z"/><path class="cls-16" d="M432.79,244v0c-.62-.7-1.42-2-2.62-3.33-.68-.78-1.88-4-3.33-3.56,0,0-8,5.41-7.12,6.28,1.87,1.77,9.14,3.73,9.31,3.92-.29.43-1.56,5.32-1.24,5.71.55.64,6.45-5.73,6.83-7.34C434.83,244.85,434,244.18,432.79,244Z"/><path class="cls-17" d="M432.79,244v0c-.62-.7-1.42-2-2.62-3.33-.68-.78-1.88-4-3.33-3.56,0,0-.92.61-2.1,1.47,1.6,1.66,4.08,4.23,5.1,5.18a51.13,51.13,0,0,1,3.5,4,7.57,7.57,0,0,0,1.28-2.09C434.83,244.85,434,244.18,432.79,244Z"/><path class="cls-16" d="M396.37,260h0c.08-.93.46-2.37.64-4.18.11-1,1.64-4.1.33-4.87,0,0-9.45-2.18-9.46-.91,0,2.57,3.52,9.23,3.5,9.48-.51.08-4.95,2.49-5,3-.1.84,8.59.79,10,0C397.13,262.06,397.07,261,396.37,260Z"/><path class="cls-17" d="M396.37,260h0c.08-.93.46-2.37.64-4.18.11-1,1.64-4.1.33-4.87,0,0-1.07-.25-2.5-.53-.13,2.3-.31,5.87-.3,7.26A51.08,51.08,0,0,1,394,263a7.44,7.44,0,0,0,2.41-.48C397.13,262.06,397.07,261,396.37,260Z"/><path class="cls-21" d="M395.81,169.36s.14-1.82,1.81-1.83a2.64,2.64,0,0,1,2.46,3.5c-.67,1.26-1.52.82-2.3.29A13.32,13.32,0,0,1,395.81,169.36Z"/><path class="cls-14" d="M399,170.3s-1.64-2.33-2.77-2.7c-1.56-.49-2.18.86-1.92,1.53a5.29,5.29,0,0,0,2.22,2.05A10.93,10.93,0,0,0,399,170.3Z"/><path class="cls-12" d="M399.07,171.85l1,4.31c0,.59-3.36,1.94-4.23,1.12-.25-.25-.12-.8.19-1.39l1.82-3.2Z"/><path class="cls-9" d="M397.53,173.33l1.56-.15a2.83,2.83,0,0,1-1.13,1.73,2.68,2.68,0,0,1-1.63.51Z"/><path class="cls-9" d="M395.73,170.21s-.49-.48.16-1.31,3.6,1.46,3.76,2.31a3,3,0,0,1-.24,2S395.86,171.7,395.73,170.21Z"/><path class="cls-12" d="M398.35,170.39l.71,2.36a1.5,1.5,0,0,1-1.11,1.78,4,4,0,0,1-1.84,0c-.67-.1-1-.75-1-1.63a8.22,8.22,0,0,1,.6-2.72C396.23,169,397.77,168.89,398.35,170.39Z"/><path class="cls-2" d="M396.9,172.06a3.82,3.82,0,0,1-1.33,0s0,.51.27.7S396.7,172.67,396.9,172.06Z"/><path class="cls-13" d="M395.92,173.68c.75-.13,1.29,1,2.65,0a1.85,1.85,0,0,0,.47-1l0,.05a1.5,1.5,0,0,1-1.11,1.78,4,4,0,0,1-1.84,0,1.05,1.05,0,0,1-.84-.72A4.29,4.29,0,0,0,395.92,173.68Z"/><path class="cls-12" d="M398.26,171.34a2.32,2.32,0,0,0,.06-.45c0-.3.08-.72.51-.5.61.32.59,1.73-.13,1.83C398.16,172.3,398.17,171.71,398.26,171.34Z"/><path class="cls-9" d="M420.45,215.91c1.42,1.09-.27,7.93-.74,8.65a.3.3,0,0,0,.1.42.33.33,0,0,0,.44-.1c.08-.12,2.56-8.36.5-9.53C420.67,215.31,420.31,215.81,420.45,215.91Z"/><path class="cls-25" d="M417.19,225.66h-9l1.78,17.45c0,.73,3.25,1.31,7.25,1.31s7.24-.58,7.24-1.31l1.78-17.45Z"/><path class="cls-15" d="M420.18,225.66a44.71,44.71,0,0,0,.11,5.29c.3,2.51-1.83,2.35-.07,4.82s-1.08,5.89-.7,7.49c.07.3.15.67.25,1.08,2.72-.19,4.66-.67,4.66-1.23l1.78-17.45Z"/><path class="cls-15" d="M426.41,225.66c0,.72-4.13,1.3-9.22,1.3s-9.23-.58-9.23-1.3,4.13-1.31,9.23-1.31S426.41,224.93,426.41,225.66Z"/><path class="cls-26" d="M411.94,226.75s.68,2.52,3,2S417.4,227,417.4,227,413.65,227,411.94,226.75Z"/><path class="cls-26" d="M417.19,227.2c-.39,0-9.47,0-9.47-1.54s9.08-1.55,9.47-1.55,9.46,0,9.46,1.55S417.57,227.2,417.19,227.2Zm-9-1.54c.23.39,3.37,1.06,9,1.06s8.75-.67,9-1.06c-.23-.4-3.37-1.07-9-1.07S408.43,225.26,408.2,225.66Z"/><path class="cls-9" d="M417.71,214.93c-7.08,4.87-3.83,12.55-3.8,12.69a.28.28,0,0,0,.34.21.28.28,0,0,0,.21-.33c0-.15-3.58-9.18,5.09-12.95a.27.27,0,0,0,.14-.37.28.28,0,0,0-.37-.15A10,10,0,0,0,417.71,214.93Z"/><path class="cls-25" d="M416.64,216.78s-.54-.3-.52-.76a4,4,0,0,1,3.18-2.15,1.82,1.82,0,0,1,1.78,1.71.4.4,0,0,1-.73.25,1.22,1.22,0,0,0-1.22-.48C418,215.58,417,217,416.64,216.78Z"/><path class="cls-12" d="M420.43,210.36a4.85,4.85,0,0,1,1,3.82c-.44,1.78-1.55,3-2.69,2.69-1-.25.22-2.68-.21-3.51s-1.46-2-.55-2.69S420,209.4,420.43,210.36Z"/><path class="cls-12" d="M386.36,213a6.91,6.91,0,0,1,.91,2.78c.06.87-1,2.37-1.51,2.07-.87-.52.19-1.36.18-2.11,0-.51-1.09-.61-1.2-1.4S385.88,212.13,386.36,213Z"/><path class="cls-7" d="M175.25,224.59a2,2,0,0,0-1.77-1.85,4.5,4.5,0,0,0-2.43.31c-1.79.8-4.83.6-3.53,2.14s5.84,1.69,7.15.65A1.45,1.45,0,0,0,175.25,224.59Z"/><path class="cls-7" d="M173.57,217.79s-2.29-.4-2.34,1,1.1,2.34,3.09,1.94,3.69-1.44,3.34-2.14S173.57,217.79,173.57,217.79Z"/><path class="cls-7" d="M182.07,217.16s-2.4-1.7.44-2a11.91,11.91,0,0,1,4.64.73,1.51,1.51,0,0,1,.48,2.61,8.71,8.71,0,0,1-3.47,1.87C181.62,220.85,182.07,217.16,182.07,217.16Z"/><path class="cls-7" d="M177.7,224.6a3.49,3.49,0,0,0,2.88,1.28c2,0,3.11-.68,2.68-1.08S179.14,224.9,177.7,224.6Z"/><path class="cls-13" d="M133.07,149.88l4-5.54s5.6,6.41,2.25,21.07c-.25,1.1-2.91,2.54-5.23-1.29C129.17,159.61,133.07,149.88,133.07,149.88Z"/><path class="cls-9" d="M137.18,146.66s1.09,4.22-.23,7.32a5.58,5.58,0,0,1-4,3Z"/><path class="cls-25" d="M116.67,191.55c0-1.92-2.54-21.25-.76-25.7,2.49-6.23,6.08-10.24,6.79-19.74.32-3.82,5.11-5.19,6-5.29,2.61-.29,6,.44,7.51,2.09,3.37,3.68,0,8.81-.58,10.53s-2.11,3.85-.08,9.6c.85,2.4,2.71,24.26,2.45,27.41-1,12.42-6,28.53-8.74,28.53-4.3,0-1.53-13.26-.95-18.93.17-1.76.95-6.23,1-8.5,0-1.38-1-17.38-1.71-17.4,0,2.28-2.85,16.58-3.05,18.95-1,12.42-1.48,25.29-4.35,25.57-4.41.41-5.16-12.95-4.58-18.62C115.85,198.29,116.62,193.82,116.67,191.55Z"/><path class="cls-12" d="M127.66,141.08,128,141Z"/><path class="cls-12" d="M128,141l.27-.07Z"/><path class="cls-12" d="M128.31,140.9l.41-.08Z"/><path class="cls-12" d="M120.07,157s0,.07,0,.11h0Z"/><path class="cls-15" d="M120.07,157l.23-.53Z"/><path class="cls-15" d="M128,141h0Z"/><polygon class="cls-15" points="127.66 141.08 127.66 141.08 127.66 141.08 127.66 141.08"/><path class="cls-15" d="M135.07,142l0,0Z"/><path class="cls-15" d="M128.28,140.91h0Z"/><path class="cls-15" d="M137.19,175.92c-.53-6-1.18-11.71-1.59-12.88-1.23-3.48-1.15-5.62-.77-7.16a15.66,15.66,0,0,1,0-3.68c.18-1.46.37-2.92.56-4.38a42.39,42.39,0,0,0,.21-5.52,5.16,5.16,0,0,0-.46-.29l0,0c-.16-.09-.32-.18-.49-.26a12.28,12.28,0,0,1,.19,3.87c-.12.82-.56.79-1.31.81a9.27,9.27,0,0,1-2,0c-1.19-.23-1.1-1.52-1.33-2.48a6,6,0,0,0-1.37-3.06h0l-.41.08h0L128,141h0l-.31.09h0c1.2.92,1.15,2.75,1.38,4.17,1.14,7.06-8.7,11.09-8.7,11.09l0,.11-.23.53,0,.11h0c-1.31,3-2.86,5.6-4.12,8.76-.75,1.89-.72,6.46-.44,11.25.38,6.48,1.22,13.34,1.2,14.45,0,2.27-.82,6.74-1,8.5-.58,5.67.17,19,4.58,18.62,2.87-.28,3.35-13.15,4.35-25.57.14-1.68,1.62-9.31,2.46-14.44a39,39,0,0,0,.59-4.51c.24,0,.52,1.92.79,4.49.5,4.85.93,12,.92,12.91-.05,2.27-.83,6.74-1,8.5-.58,5.67-3.35,18.93.95,18.93,2.72,0,7.74-16.11,8.74-28.53C138.18,188.83,137.76,182.25,137.19,175.92Z"/><path class="cls-9" d="M120.25,218.67c2.87-.28,3.35-13.15,4.35-25.57.14-1.68,1.62-9.31,2.46-14.44a39,39,0,0,0,.59-4.51c.2,0,.43,1.33.65,3.25.18-1.82.22-3.8-.33-4.47-1.08-1.32-5.47-.49-5.39,4s-2.81,16.8-3.06,22.84-.91,7-.25,9.85c.54,2.29-.28,6.29.2,9A2.25,2.25,0,0,0,120.25,218.67Z"/><path class="cls-9" d="M136.36,167.75c-.39,4.31-1.73,19.77-1.4,25.51.39,6.71-3.38,4.94-4,11.91-.35,4.08-2.35,8.47-3.24,11.72a1.64,1.64,0,0,0,1.52,2.09h0c2.72,0,7.74-16.11,8.74-28.53C138.25,188.07,137.23,175,136.36,167.75Z"/><path class="cls-9" d="M126.53,147.54c-.34-1.4-2.45-.08-4.12,1.26a32.64,32.64,0,0,1-1,4.69C122.8,152.53,127,149.51,126.53,147.54Z"/><path class="cls-9" d="M134.27,132.45s.14-1.34-1.66-1.72-2.74.22-2.77,1.09-.09,3.39,2.38,3.21C134.23,134.88,134.27,132.45,134.27,132.45Z"/><path class="cls-14" d="M132.61,130.73a4.59,4.59,0,0,0-.92-.11,1.58,1.58,0,0,1,1.05,1.52s-.05,2.35-2,2.56a2.16,2.16,0,0,0,1.45.33c2-.15,2.05-2.58,2.05-2.58S134.41,131.11,132.61,130.73Z"/><path class="cls-9" d="M134,133.27s1.66.52,1.71,1.94-.48,4.65-2.64,4.42-2.26-1.19-2.49-2S129.69,132.07,134,133.27Z"/><path class="cls-12" d="M131.5,138.25l-.86,3.65c-.14.6,1,2.47,2.12,1.92.33-.16.14-1.07,0-1.75v-3.3Z"/><path class="cls-9" d="M132.78,140.73a2.14,2.14,0,0,1-1.23-1.84l1.22.35Z"/><path class="cls-14" d="M133.08,139.63c2.16.23,2.7-3,2.64-4.42s-1.71-1.94-1.71-1.94a4.82,4.82,0,0,0-1.15-.19,6.23,6.23,0,0,1,1.78,1.72c.29.61-.89,3.17-1.73,4.8Z"/><path class="cls-12" d="M132.61,135.8l-.8,1.22a2.15,2.15,0,0,0,.53,2.95,1.85,1.85,0,0,0,2.74-.68,4.46,4.46,0,0,0,.2-2.9C135.15,135,133.63,134.46,132.61,135.8Z"/><path class="cls-2" d="M133.25,138.57a3.5,3.5,0,0,1,1.39,0A1.21,1.21,0,0,1,133.25,138.57Z"/><path class="cls-13" d="M132.65,139.59a2.79,2.79,0,0,0,1.55.24,3,3,0,0,0,.91-.6l0,.06a1.85,1.85,0,0,1-2.74.68,2.09,2.09,0,0,1-.89-1.74A2.66,2.66,0,0,0,132.65,139.59Z"/><path class="cls-12" d="M132,137a1.59,1.59,0,0,1,0-.38c0-.24,0-.61-.36-.48-.55.19-.65,1.48-.07,1.66S132.05,137.35,132,137Z"/><path class="cls-12" d="M127.83,176.65a14.93,14.93,0,0,1-.85,2.16c-.28.4-3.65-.24-3.57-.81s1.46-2.07,1.47-2.81S129.44,174.11,127.83,176.65Z"/><path class="cls-23" d="M162.23,218.62a1.06,1.06,0,0,1-1.4-.4l-55-61.16a1.05,1.05,0,0,1,1.82-1.06l55,61.15a1.06,1.06,0,0,1-.38,1.44Z"/><path class="cls-12" d="M125.14,142.84c-5.17.59-13.49,5.62-16.41,11.24S113,170,117.56,172.32s-2.55-15-2-16.89c.52-1.62,8.43-3.26,11.5-7.68C129,145.09,127.82,142.54,125.14,142.84Z"/><path class="cls-12" d="M118.69,169.77s.75-.62,2,.24a10.51,10.51,0,0,1,1.9,2.62s-1.31-.48-1.48-.1.87,1.9.6,2.2c-.85.93-3.48-1.1-4-2.95S118.69,169.77,118.69,169.77Z"/><path class="cls-13" d="M127.11,147.75c1.06-1.53,1.13-3,.5-3.95a3.71,3.71,0,0,1-3.25,2.7c-1.5.08-3.68,3.9-5.35,4.63s-3.08,0-3.72.57c-1.24,1.06-2.58,3.18-1.79,6.75s2.15,10.81,5.6,12.76c.17-3.75-3.95-14.32-3.49-15.78C116.13,153.81,124,152.17,127.11,147.75Z"/><path class="cls-12" d="M139.72,164.88c-.74,3.27-11.56,12.75-13.46,11.37-2.34-1.7,4.46-11.34,7.84-14.44C138.6,157.66,140.46,161.64,139.72,164.88Z"/><path class="cls-13" d="M139.72,164.88c.41-1.78.22-4.67-1-5.42a9.52,9.52,0,0,1-1.11,4.52c-1.39,2.06-5.56,3.06-7.94,7.37-1.8,3.26-3,3.87-3.18,5C129,176.88,139,168,139.72,164.88Z"/><path class="cls-12" d="M125.56,174.75a2.31,2.31,0,0,0-1.4.56c-.37.48-.12,1.23-.26,1.61s.6.52.68-.13,1.38-.26,1.49-.72S125.82,174.72,125.56,174.75Z"/><path class="cls-9" d="M133.25,218.18a5.38,5.38,0,0,1-2-1.13.6.6,0,0,1-.09-.18.61.61,0,0,0-.81-.36c-.76.32-2.2.52-2.52,1-.53.86-.66,2,0,2.31,1.2.61,8.28.32,8.17-.36C135.94,219.09,134.48,218.74,133.25,218.18Z"/><path class="cls-9" d="M123.61,218.47a5.33,5.33,0,0,1-2-1.13.61.61,0,0,1-.1-.18.61.61,0,0,0-.81-.36c-.76.32-2.2.52-2.52,1-.53.86-.66,2,0,2.31,1.21.61,8.29.32,8.17-.36C126.3,219.38,124.84,219,123.61,218.47Z"/><path class="cls-9" d="M158.31,217.75h14.93a.66.66,0,0,1,.56.31c.56.9,2,3.52,1,5.48,0,0-1.49-4-2.36-4,0,0,.66,3-.58,4,0,0-.62-3.47-2.23-3.93,0,0,.45,2.69-.09,3.93,0,0-1.57-4.13-2.69-4.13,0,0,.66,2.89.21,4.13,0,0-2.24-4-3.64-4.35,0,0,1,2.66,0,4.35,0,0-1.49-4.19-2.94-4.35,0,0,.6,3.57-.28,4.35l-2.52-4.81A.67.67,0,0,1,158.31,217.75Z"/><path class="cls-18" d="M127.79,153.49l6,.29s-.64,2.81-3.13,2.85S127.79,153.49,127.79,153.49Z"/><path class="cls-9" d="M229.33,229.08a.78.78,0,0,1-.75-.58L216.22,181a.77.77,0,0,1,1.5-.39l12.36,47.53a.78.78,0,0,1-.55.95Z"/><path class="cls-9" d="M162.11,229.09a6,6,0,0,0,2.65-1.45l2.31,2.23A3,3,0,0,0,166,231.5a4.46,4.46,0,0,0,.62,2.06c.55,1.6,1.2,3.6.89,4-.52.7-6.89-5.45-7.37-7.07C159.83,229.65,160.87,229.36,162.11,229.09Z"/><path class="cls-9" d="M195.8,239.08a5.87,5.87,0,0,0,.9-2.88l3.55-2.5s-.55,3.58,0,4.44a4.54,4.54,0,0,0,1.88,1.05c1.5.76,3.36,1.75,3.43,2.26.11.86-8.74.87-10.22.05C194.56,241.06,195.1,240.13,195.8,239.08Z"/><path class="cls-13" d="M192.05,164.92s-3.13,12.31,4.27,18.29c6.18,5,20.38-.2,19.71-3.74-.47-2.48-14.78-2-15.52-2.76-1.27-1.37-.73-9-4-13.56C195,161.19,192.57,162.47,192.05,164.92Z"/><path class="cls-13" d="M215,178.45a8.26,8.26,0,0,1,3.17.15c.65.42,1.62,1.21,1.32,1.93-.13.28-1.55,1.4-1.94,1.18s-2.76-.21-3.16-.9A2.77,2.77,0,0,1,215,178.45Z"/><path class="cls-16" d="M191,146.88l-1.17-.8a.87.87,0,0,0-.67,0,4.31,4.31,0,0,0-1.69,1.52.9.9,0,0,0-.12.68c.08.37,1,1.58.92,1.78s2.09-.64,3.11-1.82A.88.88,0,0,0,191,146.88Z"/><path class="cls-16" d="M197.3,147.42s0-.84-1.18-1.36-3.1-.33-5.88,1.77-5.05,5.12-4.37,6.55c.33.7.55,1.29,1.64,1.19C188.21,155.51,197.3,147.42,197.3,147.42Z"/><path class="cls-20" d="M186.18,154.38c.06-2.31,4.1-6.62,8.68-7.9,2.76-.77,2.44,1.54,2.44,1.54s0,2-3.49,4.78C189.75,156,186.14,156.32,186.18,154.38Z"/><path class="cls-9" d="M194.11,151s.88-1,.68-1.82c-.32-1.21-.47-1.41-1.73-1.05a2.42,2.42,0,0,0-1.53,1.39,4.35,4.35,0,0,0-1.94,2.08c-.42,1.29-.75,2.49.85,2.55S194.11,151,194.11,151Z"/><path class="cls-9" d="M203.73,187.12c0-4.5.57-18.43.57-18.43s-.18-3.66-.55-6.7a5.76,5.76,0,0,0-4.05-4.83c-5.87-1.77-14.32-2.87-19.85,3.75-1.62,1.94,3,6.75,3.64,10.35a38.25,38.25,0,0,1-1.32,14.13C185.2,187.3,197.09,188,203.73,187.12Z"/><path class="cls-12" d="M190.31,152.17l-.63,4.47c0,.63,2.54,2.17,3.52,1.38.29-.23.21-.83-.06-1.48L191.52,153Z"/><path class="cls-9" d="M191.85,153.73l-1.63-.3a3,3,0,0,0,1,1.92,2.89,2.89,0,0,0,1.66.68Z"/><path class="cls-12" d="M191.26,150.58l-1,2.4a1.59,1.59,0,0,0,1,2,4.38,4.38,0,0,0,1.93.2c.71,0,1.11-.69,1.17-1.61a8.45,8.45,0,0,0-.37-2.91C193.61,149.28,192,149.05,191.26,150.58Z"/><path class="cls-12" d="M191.21,151.8a1.93,1.93,0,0,1,0-.48c0-.3,0-.76-.49-.57-.67.28-.69,1.91.06,2.08C191.31,153,191.27,152.2,191.21,151.8Z"/><path class="cls-2" d="M192.74,152.47a4.3,4.3,0,0,0,1.4.13s0,.53-.34.7S192.9,153.12,192.74,152.47Z"/><path class="cls-14" d="M199.7,157.16a31.29,31.29,0,0,0-6-1.24c1,3.49,3.68,13.85,3.59,20.51-.05,4.22,3.08,8,6.1,10.73l.32,0c0-4.5.57-18.43.57-18.43s-.18-3.66-.55-6.7A5.76,5.76,0,0,0,199.7,157.16Z"/><path class="cls-13" d="M193.5,154.25c-.78-.21-1.45.95-2.78-.27a2.09,2.09,0,0,1-.41-1l0,0a1.59,1.59,0,0,0,1,2,4.38,4.38,0,0,0,1.93.2,1.11,1.11,0,0,0,.95-.68A4,4,0,0,1,193.5,154.25Z"/><path class="cls-7" d="M201,164.41A69,69,0,0,0,198,156.7a5.08,5.08,0,0,0-3-.61s1.53,3.87,1.44,6l-6.28.74-1.88-6.73a10.47,10.47,0,0,0-4.14,1.35s12,12.46-1.4,25.27h0L181.71,187A121.56,121.56,0,0,0,178,206c-1.55,13.24-19.5,20.05-14.14,24,19.68,14.31,28.24-32,28.89-34,.17-.5.65-.11.71.4l.7,17s-2.92,21.25-.58,23.87c.94,1.06,5,1.62,6.47.17,5-4.9,5.91-23.08,5.92-26.75C206.08,188.72,204.08,175.59,201,164.41Z"/><path class="cls-27" d="M201,164.41A69,69,0,0,0,198,156.7a4.43,4.43,0,0,0-2-.59c.34,1.09,1.15,3.65,2,5.6a28.65,28.65,0,0,1,2.1,10.45c0,3.48,1.05,10.55,1.6,15.69s3.07,17.35,1.68,22.16-1.23,13.9-3.17,17.09c-1.37,2.26-5.16,1.55-7.54,2.75-.08,3.52.11,6.43.89,7.3.94,1.06,5,1.62,6.47.17,5-4.9,5.91-23.08,5.92-26.75C206.08,188.72,204.08,175.59,201,164.41Z"/><path class="cls-15" d="M220.46,237.15l-2.11-.76a8,8,0,0,1-5.28-7.77l0-1.23a8,8,0,0,1,4.32-6.82l.42-.22a8,8,0,0,1,7.84.29l10.57,6.5Z"/><path class="cls-12" d="M234.54,227.19a.39.39,0,0,1-.18,0l-3.47-1.45a2,2,0,0,1-.08-3.68l.33-.15a2,2,0,0,1,1.68,0l6.4,2.89a.47.47,0,1,1-.39.86l-6.4-2.88a1.06,1.06,0,0,0-.89,0l-.33.16a1.06,1.06,0,0,0,0,2l3.48,1.45a.47.47,0,0,1-.19.91Z"/><path class="cls-15" d="M255.62,234.16l-2.89-3.67a8.23,8.23,0,0,0-3.7-2.67l-7.22-2.61a6.94,6.94,0,0,0-7.57,1.94l-3.4,3.88Z"/><path class="cls-24" d="M252,234.16l-2.88-3.67a8.23,8.23,0,0,0-3.7-2.67l-7.22-2.61a6.94,6.94,0,0,0-7.57,1.94L227.2,231Z"/><path class="cls-9" d="M218.5,224.79a38.88,38.88,0,0,1-3.48-2.32,7.94,7.94,0,0,0-1.91,4.92l0,1.23a8,8,0,0,0,5.28,7.77l2.11.76,9.63-6.1C225.17,228.43,219.89,225.61,218.5,224.79Z"/><path class="cls-13" d="M252.74,233.36l7.41.87a3.55,3.55,0,0,1,3.13,3.52h0a1.52,1.52,0,0,1-1.52,1.52h-4.15Z"/><path class="cls-12" d="M221.36,232.19l-1.63,5.57a1.25,1.25,0,0,0,1.2,1.61h23.29a2,2,0,0,0,.72-.14l2.14-.82a2.17,2.17,0,0,1,.71-.13h.53a2,2,0,0,1,1.37.54h0a2,2,0,0,0,1.36.55h6.56v-2.11a3.55,3.55,0,0,0-2.55-3.41l-4.21-1.23a15.73,15.73,0,0,0-4.15-.62c-3.18,0-9.23-.23-12.11-1a19.71,19.71,0,0,0-2.54-.52l-6.58-.91A3.75,3.75,0,0,0,221.36,232.19Z"/><path class="cls-13" d="M245.85,237.75a22.47,22.47,0,0,1-10.65-1.92c-4.34-1.84-1.86-.55-7.24-.31a22.17,22.17,0,0,1-7.3-.94l-.93,3.18a1.25,1.25,0,0,0,1.2,1.61h23.29a2,2,0,0,0,.72-.14l2.14-.82a2.17,2.17,0,0,1,.71-.13h.53a2,2,0,0,1,1.37.54,2,2,0,0,0,1.36.55h6.56l-2.48-1.17S249.18,237.65,245.85,237.75Z"/><path class="cls-9" d="M223.63,236l0-.17,1-.2.22,0h0a4.1,4.1,0,0,1,.86,0,3.86,3.86,0,0,1,.72,7.59h0l-.42.09-.67.13,0-.1h-.09a3.86,3.86,0,0,1-1.6-7.24Z"/><circle class="cls-14" cx="224.33" cy="239.61" r="3.86" transform="translate(-15.83 463.35) rotate(-89.86)"/><path class="cls-16" d="M221.79,239.45a2.54,2.54,0,1,0,2.7-2.37A2.55,2.55,0,0,0,221.79,239.45Z"/><path class="cls-9" d="M245.16,236l0-.17,1-.2.23,0h0a4.07,4.07,0,0,1,.86,0,3.86,3.86,0,0,1,.72,7.59h0l-.42.09-.66.13,0-.1h-.1a3.85,3.85,0,0,1-1.59-7.24Z"/><circle class="cls-14" cx="245.85" cy="239.61" r="3.86" transform="translate(5.72 484.95) rotate(-89.88)"/><path class="cls-16" d="M243.32,239.45a2.54,2.54,0,1,0,2.69-2.37A2.54,2.54,0,0,0,243.32,239.45Z"/><path class="cls-27" d="M192.79,195.89s-3.68,2.22-3.68,5.38-.45,10.38-4.28,13.58-6.26,3.94-8.26,8.73-9.06,1.59-11.2,4c-.74.83-.56,2.07.12,3.36C184,241.7,192.16,197.82,192.79,195.89Z"/><path class="cls-9" d="M221.58,232.4a.79.79,0,0,1-.73-.5l-17.16-44.64a3.84,3.84,0,0,1,2.82-5.14l10.3-2.1a.77.77,0,1,1,.31,1.51l-10.3,2.1a2.31,2.31,0,0,0-1.55,1.15,2.23,2.23,0,0,0-.13,1.92l17.16,44.65a.78.78,0,0,1-.45,1A.86.86,0,0,1,221.58,232.4Z"/><path class="cls-12" d="M181.22,166.78s-3.13,12.31,4.27,18.29c6.18,5,20.38-.2,19.7-3.74-.47-2.49-14.78-2-15.51-2.76-1.27-1.37-.73-9-4-13.56C184.21,163.05,181.73,164.33,181.22,166.78Z"/><path class="cls-13" d="M204.81,182.69a1.32,1.32,0,0,0-.51-.2c-1.45-.17-4.25,1.27-7,2.49s-3.78,1.16-5.78.05-3.75-.44-5.78-2.1-2.34-3.7-3.28-7.12a8.27,8.27,0,0,0-1.91-3.36c0,4,.82,9.3,4.93,12.62C190.91,189.46,202.49,186,204.81,182.69Z"/><path class="cls-12" d="M204.12,180.3a16,16,0,0,1,4,.9c.65.42,1.44,1.44,1,2.1-.53.84-2.24.64-2.63.42s-2.61-.36-3-1.05A2.8,2.8,0,0,1,204.12,180.3Z"/><path class="cls-9" d="M186,161.92c-1-1.37-1-1.43-3-2a2.68,2.68,0,0,0-3.47,1.81c-.66,2.13,0,7.67.68,11.79,2.06,1.26,5.71,2.94,9.39,2C189.45,172.93,188.52,165.35,186,161.92Z"/><path class="cls-6" d="M190.72,166l9.11-.61s1.31,2.67-1.78,5.2S190.77,170.8,190.72,166Z"/><path class="cls-14" d="M189.59,175.54c-.14-2.61-1.07-10.19-3.58-13.62-1-1.35-1-1.43-2.95-2a14.08,14.08,0,0,1,1.36,8.38,16.79,16.79,0,0,0,.53,7.19A10,10,0,0,0,189.59,175.54Z"/><path class="cls-4" d="M377.92,71.45h61.72c.66,0,1.14-1.28,1-2.59-.57-4.33-2.42-12.91-8.25-16.14-9.3-5.15-12.08,6-16.32,6.88-3.39.68-5.2-4.54-12.15-1.91s-5.44,7-7.41,9c-2.72,2.83-11-5.72-15.44-3.18C377.29,65.67,377.23,71.45,377.92,71.45Z"/><path class="cls-5" d="M440.61,68.86a39.29,39.29,0,0,0-.86-4.5c-2.53-1.56-5.87-2.33-7.58-3-3.29-1.2-5.21-.26-11.73,3s-9.2-1.55-15.45-1-4.32,4.92-8.17,5.46-10.22-.54-15.06-1.09c-2.28-.25-3.48.54-4.11,1.45-.16,1.27,0,2.21.27,2.21h61.72C440.3,71.45,440.78,70.17,440.61,68.86Z"/><path class="cls-4" d="M263.8,37.38c-1.64,0-2.79-2.61-2.11-4.92,1.17-4,4.54-4.63,7.42-4.38a7.67,7.67,0,0,0,6.9-3.2c1-1.38,2.19-2.44,3.39-2a16.82,16.82,0,0,1,1.59.75,5.68,5.68,0,0,0,6.1-.35c2.45-1.8,6.26-3.76,10.72-3.13a7.47,7.47,0,0,0,5.84-1.71c3.29-2.8,9.24-6.31,15.33-2.25s8.27,12.16,9.11,17.24c.37,2.25-.74,4.43-2.24,4.42Z"/><path class="cls-5" d="M328.12,35A18.58,18.58,0,0,1,326,31.34c-1.9-4.77-7.73-5.15-11.55-6.11s-5.25,1.05-9.92,2-8.5.09-18.52.09-4.11,3.82-9.62,5.44-8.8-1.72-12.74-.09a3.24,3.24,0,0,0-2,2.07c.26,1.46,1.13,2.62,2.23,2.63l62.05.51C327,37.9,327.92,36.62,328.12,35Z"/><path class="cls-4" d="M59.53,58.68h61.54c.66,0,1.14-1,1-2-.57-3.25-2.41-9.7-8.22-12.13-9.28-3.87-10.76,3.91-14.94,1.67-5.06-2.72,1.38-19-16.14-15.53-7.07,1.39-2.24,14.39-7.16,16.73-2.28,1.1-5.11-.5-9.5,1.4-3.74,1.62-6.67,4.09-7.5,7.76C58.36,57.63,58.84,58.68,59.53,58.68Z"/><path class="cls-5" d="M122,56.73a21.89,21.89,0,0,0-1.76-5.62,31.74,31.74,0,0,0-8.46-1.39c-7.94-.4-8.45,4.65-15.53,1.12s-5.52-9.75-10.87-9.23-3.63,8.28-5.7,10.69-7.94.87-15.53,1.93a12.07,12.07,0,0,0-5.5,2c0,.13-.08.26-.11.39-.22,1,.26,2,1,2h61.54C121.73,58.68,122.21,57.71,122,56.73Z"/></g></g></svg>