<svg xmlns="http://www.w3.org/2000/svg" xmlns:xlink="http://www.w3.org/1999/xlink" viewBox="0 0 320 315"><defs><style>.cls-1{isolation:isolate;}.cls-2{fill:#f4f7fa;}.cls-3{fill:url(#linear-gradient);}.cls-16,.cls-37,.cls-4{fill:#fff;}.cls-37,.cls-4{opacity:0.5;}.cls-4{mix-blend-mode:soft-light;}.cls-5{fill:url(#linear-gradient-2);}.cls-6{fill:url(#linear-gradient-3);}.cls-7{fill:#26264f;}.cls-8{fill:url(#linear-gradient-4);}.cls-26,.cls-9{fill:#d8dee8;}.cls-9{opacity:0.3;}.cls-13,.cls-18,.cls-19,.cls-9{mix-blend-mode:multiply;}.cls-10{fill:url(#linear-gradient-5);}.cls-11{fill:url(#linear-gradient-6);}.cls-12{fill:url(#linear-gradient-7);}.cls-13{opacity:0.6;fill:url(#linear-gradient-8);}.cls-14{fill:url(#linear-gradient-9);}.cls-15{fill:url(#linear-gradient-10);}.cls-17{fill:url(#linear-gradient-11);}.cls-18,.cls-19{opacity:0.15;}.cls-18{fill:url(#linear-gradient-12);}.cls-20{fill:url(#linear-gradient-13);}.cls-21{fill:url(#linear-gradient-14);}.cls-22{fill:url(#linear-gradient-15);}.cls-23{fill:url(#linear-gradient-16);}.cls-24{fill:url(#linear-gradient-17);}.cls-25{fill:url(#linear-gradient-18);}.cls-27{fill:url(#linear-gradient-19);}.cls-28{fill:url(#linear-gradient-20);}.cls-29{opacity:0.2;}.cls-30{fill:url(#linear-gradient-21);}.cls-31{fill:url(#linear-gradient-22);}.cls-32{fill:url(#linear-gradient-23);}.cls-33{fill:url(#linear-gradient-24);}.cls-34{fill:url(#linear-gradient-25);}.cls-35{fill:url(#linear-gradient-26);}.cls-36{fill:url(#linear-gradient-27);}.cls-37{mix-blend-mode:overlay;}.cls-38{fill:url(#linear-gradient-28);}</style><linearGradient id="linear-gradient" x1="107.47" y1="90.07" x2="201.19" y2="90.07" gradientUnits="userSpaceOnUse"><stop offset="0" stop-color="#ff9085"/><stop offset="1" stop-color="#fb6fbb"/></linearGradient><linearGradient id="linear-gradient-2" x1="69.62" y1="16.53" x2="115.94" y2="224.53" gradientUnits="userSpaceOnUse"><stop offset="0" stop-color="#ffc444"/><stop offset="1" stop-color="#f36f56"/></linearGradient><linearGradient id="linear-gradient-3" x1="421" y1="160.63" x2="507.94" y2="118.57" gradientTransform="translate(-434.89 -94.46) rotate(4.36)" gradientUnits="userSpaceOnUse"><stop offset="0" stop-color="#311944"/><stop offset="1" stop-color="#893976"/></linearGradient><linearGradient id="linear-gradient-4" x1="566.16" y1="193.11" x2="477.83" y2="382.21" gradientTransform="translate(-434.89 -94.46) rotate(4.36)" gradientUnits="userSpaceOnUse"><stop offset="0" stop-color="#aa80f9"/><stop offset="1" stop-color="#6165d7"/></linearGradient><linearGradient id="linear-gradient-5" x1="467.82" y1="168.73" x2="528.65" y2="209.69" xlink:href="#linear-gradient-3"/><linearGradient id="linear-gradient-6" x1="1755.18" y1="161.4" x2="1730.31" y2="175.14" gradientTransform="matrix(-0.96, -0.07, -0.08, 1, 1700.22, 68.94)" xlink:href="#linear-gradient-3"/><linearGradient id="linear-gradient-7" x1="579.29" y1="66.03" x2="494.68" y2="128.43" gradientTransform="matrix(0.97, 0.07, -0.08, 1, -405.49, -92.34)" xlink:href="#linear-gradient-3"/><linearGradient id="linear-gradient-8" x1="447.38" y1="134.18" x2="546.69" y2="134.18" gradientTransform="matrix(0.97, 0.07, -0.08, 1, -405.49, -92.34)" xlink:href="#linear-gradient-3"/><linearGradient id="linear-gradient-9" x1="26.97" y1="78.52" x2="-17.35" y2="53.14" gradientTransform="matrix(1, 0.01, -0.01, 1, 0.34, -0.02)" gradientUnits="userSpaceOnUse"><stop offset="0" stop-color="#444b8c"/><stop offset="1" stop-color="#26264f"/></linearGradient><linearGradient id="linear-gradient-10" x1="-359.05" y1="144.16" x2="-344.16" y2="235.26" gradientTransform="translate(421.4 -124.39) rotate(-11.19)" xlink:href="#linear-gradient-2"/><linearGradient id="linear-gradient-11" x1="268.01" y1="127.69" x2="239.49" y2="87.28" gradientTransform="matrix(1, 0, 0, 1, 0, 0)" xlink:href="#linear-gradient-9"/><linearGradient id="linear-gradient-12" x1="104.29" y1="94.26" x2="182.18" y2="94.26" gradientTransform="matrix(1, 0, 0, 1, 0, 0)" xlink:href="#linear-gradient-4"/><linearGradient id="linear-gradient-13" x1="237.36" y1="42.28" x2="260.81" y2="185.7" gradientTransform="matrix(1, 0, 0, 1, 0, 0)" xlink:href="#linear-gradient-4"/><linearGradient id="linear-gradient-14" x1="197.6" y1="47.54" x2="222.79" y2="10.97" xlink:href="#linear-gradient-2"/><linearGradient id="linear-gradient-15" x1="195.35" y1="29.03" x2="235.24" y2="5.01" xlink:href="#linear-gradient-2"/><linearGradient id="linear-gradient-16" x1="157.09" y1="123.84" x2="225.31" y2="123.84" gradientTransform="matrix(1, 0, 0, 1, 0, 0)" xlink:href="#linear-gradient-4"/><linearGradient id="linear-gradient-17" x1="213.55" y1="110.46" x2="226.88" y2="133.36" xlink:href="#linear-gradient-2"/><linearGradient id="linear-gradient-18" x1="-108.19" y1="294.21" x2="139.48" y2="294.21" gradientTransform="matrix(1, 0, 0, 1, 0, 0)" xlink:href="#linear-gradient-3"/><linearGradient id="linear-gradient-19" x1="-30.63" y1="234.61" x2="115.33" y2="249.48" xlink:href="#linear-gradient-2"/><linearGradient id="linear-gradient-20" x1="187.82" y1="205.33" x2="190.12" y2="406.33" xlink:href="#linear-gradient-2"/><linearGradient id="linear-gradient-21" x1="183.65" y1="225.16" x2="167.52" y2="167.56" gradientTransform="matrix(1, 0, 0, 1, 0, 0)" xlink:href="#linear-gradient-3"/><linearGradient id="linear-gradient-22" x1="157.9" y1="215.93" x2="79.87" y2="372.92" gradientTransform="matrix(1, 0, 0, 1, 0, 0)" xlink:href="#linear-gradient-3"/><linearGradient id="linear-gradient-23" x1="145.49" y1="174.38" x2="10.7" y2="222.75" gradientTransform="matrix(1, 0, 0, 1, 0, 0)" xlink:href="#linear-gradient-3"/><linearGradient id="linear-gradient-24" x1="243.13" y1="194.2" x2="243.13" y2="312.31" gradientUnits="userSpaceOnUse"><stop offset="0" stop-color="#e38ddd"/><stop offset="1" stop-color="#9571f6"/></linearGradient><linearGradient id="linear-gradient-25" x1="196.69" y1="194.2" x2="196.69" y2="312.32" xlink:href="#linear-gradient-24"/><linearGradient id="linear-gradient-26" x1="220.32" y1="194.2" x2="220.32" y2="312.32" xlink:href="#linear-gradient-24"/><linearGradient id="linear-gradient-27" x1="294.26" y1="68.96" x2="286.08" y2="181.65" xlink:href="#linear-gradient-24"/><linearGradient id="linear-gradient-28" x1="280.66" y1="127.57" x2="276.57" y2="183.92" xlink:href="#linear-gradient-24"/></defs><g class="cls-1"><g id="Réteg_1" data-name="Réteg 1"><path class="cls-2" d="M77.4,18.16c-10.83,15,1.42,39.58-14.54,50.77-15.54,10.89-34.29-7.42-48.93,1.94C-7.78,84.75-4.53,149.35,26.57,189.79c9.35,12.16,17.22,16.94,20.58,30.62,7.22,29.37-19.44,46.52-14.55,61.06,11,32.74,185.16,61.92,256.21-35.39,33.18-45.45,38.78-111.51,10.1-162C247.1-7.25,101.72-15.45,77.4,18.16Z"/><path class="cls-3" d="M165.51,175.63c19.76.7,44.94-47.54,32.26-72.68-4.18-8.27-9.92-9-14.4-19.89-6.94-16.83,1.94-26.89-1-40.21-6-26.78-55.45-46.9-69.44-34.7-10.5,9.16-4.89,40,9.43,59.25C133.18,82,145.53,85.28,147,98.63c1.29,11.44-7.1,15-9.12,28.15C134.65,148.09,151,175.12,165.51,175.63Z"/><path class="cls-4" d="M164.65,168.58a1.61,1.61,0,0,1-.48-.08,1.41,1.41,0,0,1-.87-1.8c31-86.71-14.05-126.94-14.51-127.32a1.39,1.39,0,0,1-.18-2,1.44,1.44,0,0,1,2-.18c.13.11,12.8,11,20.59,34.37A119.7,119.7,0,0,1,177,111.7c-.33,17.57-4,36.39-11,55.94A1.43,1.43,0,0,1,164.65,168.58Z"/><path class="cls-5" d="M153.71,180.18c7.26-4.66-7.89-24.28-8-64.16-.07-23.78,5.26-33.49-2.8-47-5.51-9.2-17.1-19.93-29.5-19.39-10,.43-13,7.92-20,6.3-9.62-2.23-8.54-17.49-18.85-30.87C62.53,9.44,37.33-.48,24.5,7.09,7.7,17,8.38,59.15,27.4,76c13,11.46,30.22,7.46,35,19.29,4.18,10.24-7.27,16.86-4.25,28.4,3.36,12.84,19.93,13.74,47.88,28.48C137.9,168.93,147.51,184.15,153.71,180.18Z"/><path class="cls-4" d="M152.15,178.53a1.49,1.49,0,0,1-1.21-.61c-.19-.27-19.62-27.5-47.61-72.89-28.71-46.56-51-60.4-51.89-60.88a1.45,1.45,0,0,1-1-1.6,1.47,1.47,0,0,1,1.67-1.23c1.33.18,8.16,5,17,14C77.67,64,91,79.42,105.85,103.52c27.93,45.3,47.31,72.45,47.5,72.72a1.45,1.45,0,0,1-.35,2A1.49,1.49,0,0,1,152.15,178.53ZM51.65,44.2Z"/><path class="cls-6" d="M13.12,49c-2.32,3.86-2.79,9.79-3.22,15.21C9.41,70.47,8.73,79,11.15,84.64,13.38,89.82,15,89,18.63,90c7.1,1.94,49.56,8.75,58.56,1.48S89.13,70.15,83.34,59.2C79.76,52.44,71.28,43,27.07,43.59,17.32,43.72,15.07,45.73,13.12,49Z"/><path class="cls-7" d="M15.85,69a5.71,5.71,0,0,1-2.38,4.2,5.9,5.9,0,0,1-4.78,1L4,73.1,3.89,57.55l5.57-1a5.85,5.85,0,0,1,5,1.37,5.72,5.72,0,0,1,1.93,4.74Z"/><path class="cls-8" d="M57.74,86.84s-5.57,35.78-21,56.1C7.59,181.26,14.52,235.51,14.55,268a15.59,15.59,0,0,0,13,15.56c14.7,2.67,54.36,4.8,88.88-2A18.56,18.56,0,0,0,131,265.28c2.86-30.71-9.17-97.11-35.52-123.84C86.75,132.57,83.59,126.38,85,93Z"/><path class="cls-9" d="M110.07,257.14c-12.9-35.3-59.3-28.71-68.07-53.74-8.71-24.88,32.19-44.71,33-88.27a75.67,75.67,0,0,0-4-25.28l-13.31-3s-5.57,35.78-21,56.1C7.59,181.26,14.52,235.51,14.55,268a15.59,15.59,0,0,0,13,15.56c14.7,2.67,54.36,4.8,88.88-2a18.05,18.05,0,0,0,9.24-5,19,19,0,0,1-9.06-4.64C112.31,267.85,112.48,263.73,110.07,257.14Z"/><path class="cls-10" d="M5.65,142.35c19.93-23.48,16.12-65,16.12-65l23.11,7.72c-5,41.85-24.34,57.69-34.49,61.72C9.09,147.32,4.73,143.43,5.65,142.35Z"/><path class="cls-11" d="M9.38,144.74c19.94-23.49,21.71-64.57,21.71-64.57l17.53,7.3c-5,41.86-27.6,55.41-37.74,59.44A1.36,1.36,0,0,1,9.38,144.74Z"/><path class="cls-12" d="M23.11,48.16C20.47,52.39,20,58.8,19.51,64.65,19,71.46,18.24,80.7,21,86.87c2.58,5.74,5.26,2.95,37.29,10.36,19.67,4.56,35.35,9,48.14.74a28.44,28.44,0,0,0,8.46-39.58c-5.41-8.22-16.38-15.68-75.12-14.63C28.13,44,25.33,44.61,23.11,48.16Z"/><path class="cls-13" d="M88.63,83.8C66.42,76.91,63.88,69.53,50.34,67,36,64.39,31,73.41,26.14,69.83,23.82,68.11,21.8,63.59,21.38,52c-1.17,3.74-1.53,8.33-1.87,12.61C19,71.46,18.24,80.7,21,86.87c2.58,5.74,5.26,2.95,37.29,10.36,19.67,4.56,35.35,9,48.14.74a28,28,0,0,0,8.14-8.09A211.28,211.28,0,0,1,88.63,83.8Z"/><ellipse class="cls-14" cx="3.93" cy="65.32" rx="3.61" ry="7.77" transform="translate(-0.34 0.02) rotate(-0.3)"/><path class="cls-15" d="M108.93,91.9s-1.44-5.58-3.84-7.06-5.79-3-6.57-3.7-1.69,1.29.55,2.77l2.24,1.49a2.08,2.08,0,0,1-.09.95,3.38,3.38,0,0,1-3.06,1.9c-5.75,1.19-8,1.25-8.87,1-.13,0-.63-.2-.84,0s.27,1.47.53,1.86c1.55,2.35,7,3.37,11,1.53,1.48-.67,2-1.39,3.12-1.21,1.71.29,2.76,2.52,3.38,4.36Z"/><path class="cls-16" d="M104.29,93.67l4.91-4.31c.6.6,9.34,9,21.55,6.47,8.41-1.76,13.26-8.58,16.37-12.93,9.33-13.07,3.75-22.66,13.79-31.54,2.79-2.47,8.27-5.46,11.84-4.55,8.53,2.17,13.44,27.49,5.19,47.4-1.67,4-10.84,26.15-31.64,28.55C129.5,124.69,111.69,113,104.29,93.67Z"/><path class="cls-17" d="M202.84,55.3c-3.57-3.26-10.4-7-13.82-15.75-1-2.62-4.69-11.94.7-19.06,3.2-4.23,9.14-7.1,14.38-6.08,4.47.86,5.17,3.94,12.78,10.13,3,2.42,7.71,6.29,13,8.44,9.07,3.7,14.52.22,23.63.62,11.18.49,24.18,6.65,30.44,15.62,11.12,15.91-5,32.05,7.19,50.69,4,6.11,6,4.74,15.4,16.56s14.2,17.76,13.35,25c-1.16,10.07-12.15,19.68-22.49,20.34-10.1.64-16.52-7.21-21.66-3.78-3.66,2.44-1.57,7.2-5.46,12.91-5,7.36-14.86,8.82-16.45,9.06-14.76,2.2-34.67-14.9-43.13-35.15C195.47,108.34,222.25,73,202.84,55.3Z"/><path class="cls-18" d="M170.85,71.05c-15.38,12-13.67,35-23.12,36.16-2.89.35-2.73-1.83-9.61-4-10.08-3.24-14.81,0-21.89-2.43-2.94-1-6.75-3.19-10.51-8.32l-1.43,1.25c7.4,19.34,25.21,31,42,29.09,20.8-2.4,30-24.53,31.64-28.55a60.37,60.37,0,0,0,3.91-28.65A32.39,32.39,0,0,0,170.85,71.05Z"/><path class="cls-16" d="M159.69,52.87c.94-1.44,3.94-5.45,16.65-8.4a72.89,72.89,0,0,1,72,21,51.67,51.67,0,0,0-20.48,25.28c-1.7,4.62-6.72,20.44.46,35.26,4.14,8.54,11.45,15,17,19.82,8.34,7.3,12.65,8.42,15.45,15,3,7.12,0,10.6,3.75,15.47,4.06,5.24,8.82,2.81,15.7,8.1,7.05,5.43,4.54,9.89,10.95,15.89,9.32,8.71,21.68,5.88,22.25,9.8.5,3.37-8.28,7.95-15.74,9.8-14.78,3.68-27.66-2.49-31.49-4.39-10.61-5.26-8.78-8.67-16.87-12.68-13.54-6.72-22.8.75-53.65,1.52-16.7.42-25.15.52-29.78-5.06-4.22-5.1-2-10.69.54-34.79h0c.81-8.05,2.52-24.9,2.53-34.5,0-5.67-2-15-6-33.49-.24-1.09-2.4-11.11-4.14-24.49C157.26,60,157.49,56.26,159.69,52.87Z"/><g class="cls-19"><path class="cls-20" d="M291.15,200.29c-6.41-6-3.9-10.46-10.95-15.89-6.88-5.29-11.64-2.86-15.7-8.1-3.78-4.87-.71-8.35-3.75-15.47-2.8-6.54-7.11-7.66-15.45-15-5.56-4.87-12.87-11.28-17-19.82-7.18-14.82-2.16-30.64-.46-35.26a51.67,51.67,0,0,1,20.48-25.28c-.38-.41-.83-.88-1.32-1.37-26.33,3.57-41.68,18.59-43.58,23-4.39,10.28,2.56,14.06,2.74,43.71.09,14.18-1.46,19.77,3.2,25.69,5.32,6.76,11.46,4.67,19.16,13.52,5.92,6.79,5,11.1,10.5,14,5.94,3.08,9.73-.51,16.43.9,11.2,2.36,13.59,15.1,21,22.08,5.6,5.27,15.95,9,36.36,5a2.8,2.8,0,0,0,.61-2C312.83,206.17,300.47,209,291.15,200.29Z"/></g><path class="cls-21" d="M201.1,27.56s1.33,10.48,5.25,12.88,10.25,5.54,11,6.39-24.27,3.5-36.64-2.66h0c4.07-.84,5.18-1.15,5.18-1.15A22.88,22.88,0,0,0,191.08,41a17.69,17.69,0,0,0,5.76-5.26l0-5.8Z"/><path class="cls-22" d="M201.7,31.27s-2.55,3.47-6.56,2c-3.59-1.29-1.45-10.44,1.4-11.48a5.05,5.05,0,0,1,3.85.53,5.46,5.46,0,0,1,1.76,6.19c.9-.26,1.7,0,1.9.42s-.51,1.33-.69,1.5A3,3,0,0,1,201.7,31.27Z"/><path class="cls-23" d="M169,46.65l5.85-1.81s-2.35,8.67-3.77,16.33a5.42,5.42,0,0,0,4.72,6.35L196.26,70a8.48,8.48,0,0,0,7.67-3.12l16.13-20.24,5,2.1s-22.16,26.38-21.69,38.43c.26,6.47.44,13.24.55,18.12a7,7,0,0,0,7.29,6.78l13.36-.51.7,5.73-9,1.15a12,12,0,0,0-6.9,3.75,11.74,11.74,0,0,0-2.49,7.38c-.46,13.92,11.72,50.38,3.41,63.52-8.12,12.83-41.93,13.16-51.11,0-7-10,5.11-21.19,6.73-59.66.46-10.94,0-22.63-.11-25.79-.74-19.4-2.58-28-.82-42.35A111.59,111.59,0,0,1,169,46.65Z"/><path class="cls-24" d="M227.65,116.42s-11.38-4.08-13.05-4.08-7.7,3.64-8.15,4.08,4.8.33,6.7.66S223.75,123.25,227.65,116.42Z"/><path class="cls-16" d="M234.36,53.87S267,75.18,270.16,95.8s-42.51,23.92-42.51,23.92l-2.87-6.14s18.6-11.48,19.05-13.69S213,75.22,213,75.22Z"/><polygon class="cls-25" points="279.35 303.04 279.35 273.76 31.68 273.43 31.68 302.45 85.46 315 279.35 303.04"/><polygon class="cls-26" points="278.8 206.75 278.8 210.41 295.29 210.56 291.64 206.8 278.8 206.75"/><polygon class="cls-27" points="84.92 285.42 31.68 274.11 31.68 206.84 84.92 207.35 84.92 285.42"/><path class="cls-28" d="M291.64,206.62l-12.29.23v67.61l-123.39,7-51.12,2.88-19.91,1.12V207.35l85.67-24.1,51.07-48.69Zm-35,61.9v-67l-75.21-.12v70.92l75.21-3.81Z"/><g class="cls-29"><polygon class="cls-26" points="292.88 206.88 223.62 135.22 221.5 133.03 219.39 135.03 168.62 183.22 83.58 206.87 71.92 210.11 71.92 211.88 84.92 211.88 84.92 210.74 170.3 186.99 221.67 138.31 288.02 206.88 292.88 206.88"/></g><polygon class="cls-16" points="221.5 129.28 223.62 131.48 293.72 203.93 295.53 205.79 295.53 210.54 295.29 210.56 291.67 206.82 221.67 134.56 170.3 183.24 85.66 208.02 71.92 211.78 71.92 206.36 83.58 203.12 168.62 179.47 219.39 131.28 221.5 129.28"/><path class="cls-16" d="M255.87,202.47v65.15l-73.6,3.68V202.4ZM252,261.41v-54.7l-17.69,0v55.45l17.69-.8Zm-22.5,1V206.77l-18.31,0v56.44l18.31-.83Zm-23.29,1.05V206.82l-19,.05v57.46l19-.86Z"/><path class="cls-16" d="M181.12,272.49V201.26l75.9.07V268.7Zm2.3-69v66.58l71.3-3.57V203.6Zm2.63,62V205.73l21.28,0v58.88Zm2.3-57.51v55.14l16.68-.75V208ZM210,264.44V205.68l20.61-.05v57.88Zm2.3-56.5v54.12l16-.72V207.91Zm20.82,55.46V205.62l20,0V262.5Zm2.3-55.51V261l15.39-.69V207.85Z"/><polygon class="cls-30" points="221.5 129.28 219.4 131.28 168.62 179.47 107.05 182.65 153.36 140.48 155.29 138.73 221.5 129.28"/><polygon class="cls-2" points="120.83 241.78 150.33 241.4 150.31 298.35 121.93 301.29 120.83 241.78"/><polygon class="cls-31" points="111.74 301.51 111.74 239.38 151.13 238.98 151.13 298.97 111.74 301.51"/><polygon class="cls-16" points="104.84 301.29 104.84 234.96 155.87 234.45 155.87 298.04 147.98 298.69 147.98 241.86 114.89 242.54 114.89 300.83 104.84 301.29"/><polygon class="cls-32" points="168.62 179.47 83.58 203.12 71.92 206.36 20.08 205.99 30.49 203.2 107.05 182.65 168.62 179.47"/><polygon class="cls-16" points="71.92 211.78 20.08 210.65 20.08 205.99 71.92 206.36 71.92 211.78"/><polygon class="cls-33" points="251.63 207.13 251.63 261.01 234.63 261.77 234.63 207.18 251.63 207.13"/><polygon class="cls-34" points="205.81 207.25 205.81 263.06 187.57 263.87 187.57 207.3 205.81 207.25"/><polygon class="cls-35" points="229.12 207.19 229.12 262.01 211.52 262.8 211.52 207.24 229.12 207.19"/><ellipse class="cls-36" cx="291.64" cy="104.98" rx="21.68" ry="21.4"/><ellipse class="cls-37" cx="291.64" cy="101.29" rx="14.75" ry="14.57"/><ellipse class="cls-38" cx="279.35" cy="145.58" rx="10.84" ry="10.7"/><ellipse class="cls-37" cx="279.35" cy="143.74" rx="7.38" ry="7.28"/></g></g></svg>