<svg xmlns="http://www.w3.org/2000/svg" xmlns:xlink="http://www.w3.org/1999/xlink" viewBox="0 0 334.19 319.88"><defs><style>.cls-1{fill:url(#linear-gradient);}.cls-2{fill:url(#linear-gradient-2);}.cls-3{fill:url(#linear-gradient-3);}.cls-4{fill:url(#linear-gradient-4);}.cls-5{isolation:isolate;}.cls-6{fill:#f4f7fa;}.cls-7{clip-path:url(#clip-path);}.cls-17,.cls-36,.cls-8{opacity:0.5;}.cls-11,.cls-36,.cls-38,.cls-8{mix-blend-mode:soft-light;}.cls-36,.cls-9{fill:#fff;}.cls-10{clip-path:url(#clip-path-2);}.cls-12{fill:#fcfdfe;}.cls-13,.cls-17{fill:#d8dee8;}.cls-14{fill:url(#linear-gradient-7);}.cls-15{fill:url(#linear-gradient-8);}.cls-16{fill:url(#linear-gradient-9);}.cls-17,.cls-30{mix-blend-mode:multiply;}.cls-18{fill:url(#linear-gradient-10);}.cls-19{fill:url(#linear-gradient-11);}.cls-20{fill:url(#linear-gradient-12);}.cls-21{fill:url(#linear-gradient-13);}.cls-22{fill:url(#linear-gradient-14);}.cls-23{fill:url(#linear-gradient-15);}.cls-24{fill:url(#linear-gradient-16);}.cls-25{fill:url(#linear-gradient-17);}.cls-26{fill:url(#linear-gradient-18);}.cls-27{fill:url(#linear-gradient-19);}.cls-28{fill:url(#linear-gradient-20);}.cls-29{fill:url(#linear-gradient-21);}.cls-30{opacity:0.3;fill:url(#linear-gradient-22);}.cls-31{fill:url(#linear-gradient-23);}.cls-32{fill:url(#linear-gradient-24);}.cls-33{fill:url(#linear-gradient-25);}.cls-34{fill:url(#linear-gradient-26);}.cls-35{fill:url(#linear-gradient-27);}.cls-37{clip-path:url(#clip-path-3);}.cls-38{opacity:0.77;}.cls-39{clip-path:url(#clip-path-4);}</style><linearGradient id="linear-gradient" x1="131.2" y1="109.37" x2="275.64" y2="109.37" gradientUnits="userSpaceOnUse"><stop offset="0" stop-color="#e38ddd"/><stop offset="1" stop-color="#9571f6"/></linearGradient><linearGradient id="linear-gradient-2" x1="275.42" y1="69.87" x2="171.01" y2="301.12" gradientUnits="userSpaceOnUse"><stop offset="0" stop-color="#ffc444"/><stop offset="1" stop-color="#f36f56"/></linearGradient><linearGradient id="linear-gradient-3" x1="156.43" y1="226.69" x2="158.9" y2="313.84" xlink:href="#linear-gradient-2"/><linearGradient id="linear-gradient-4" x1="179.59" y1="250.96" x2="181.16" y2="306.09" gradientUnits="userSpaceOnUse"><stop offset="0" stop-color="#ff9085"/><stop offset="1" stop-color="#fb6fbb"/></linearGradient><clipPath id="clip-path" transform="translate(0 4.88)"><path class="cls-1" d="M146.4,206.21c-15.09-3.52-26.06-71.06,2.93-96.83,12.1-10.76,25-8.81,35.21-24,9.07-13.59,2.77-21.15,10.1-37.09,10.31-22.41,38.52-41.74,57.1-34.2,9.32,3.78,17.73,14.93,17.5,27.23-.18,9.85-10.44,16.93-8.31,19.55,1.75,2.16,8-2.73,11.58-.43,5.27,3.38,4.15,22-5.35,35.14C250.9,118,220.44,110.1,213.92,127.81c-4.15,11.3,6.8,18.39,1.35,29.68-4.79,9.94-15.45,9-32.14,18.15C157,190,154.49,208.09,146.4,206.21Z"/></clipPath><clipPath id="clip-path-2" transform="translate(0 4.88)"><path class="cls-2" d="M160.52,222.7c.63-36.22,7.61-62.84,13.59-79.89,4.7-13.38,12.6-31.78,22.93-32,5-.12,6.83,4,12,3.68,9.85-.64,13-16.06,21.37-25.94,14.25-16.9,49.78-25,70.26-8.56,24.66,19.78,17.23,66.9-.86,77.9-10.72,6.52-26,.87-28.27,6.85s12.82,12.91,11.71,23.11c-1.15,10.56-18.76,16.44-19.82,16.79-21.27,6.85-33.52-7.87-55.29-7.37C196.36,197.53,180,202.32,160.52,222.7Z"/></clipPath><linearGradient id="linear-gradient-7" x1="1.04" y1="258.83" x2="320" y2="258.83" gradientUnits="userSpaceOnUse"><stop offset="0" stop-color="#444b8c"/><stop offset="1" stop-color="#26264f"/></linearGradient><linearGradient id="linear-gradient-8" x1="164.52" y1="301.98" x2="165.38" y2="205.96" gradientUnits="userSpaceOnUse"><stop offset="0" stop-color="#2c759e"/><stop offset="1" stop-color="#051042"/></linearGradient><linearGradient id="linear-gradient-9" x1="185.3" y1="166.21" x2="132.57" y2="404" xlink:href="#linear-gradient-8"/><linearGradient id="linear-gradient-10" x1="184.92" y1="163.58" x2="133.21" y2="396.81" gradientUnits="userSpaceOnUse"><stop offset="0" stop-color="#aa80f9"/><stop offset="1" stop-color="#6165d7"/></linearGradient><linearGradient id="linear-gradient-11" x1="36.31" y1="287.18" x2="50.56" y2="287.18" gradientUnits="userSpaceOnUse"><stop offset="0" stop-color="#40447e"/><stop offset="1" stop-color="#3c3b6b"/></linearGradient><linearGradient id="linear-gradient-12" x1="40.49" y1="270.56" x2="48.21" y2="315.69" xlink:href="#linear-gradient-2"/><linearGradient id="linear-gradient-13" x1="144.66" y1="236.33" x2="103.75" y2="226.29" xlink:href="#linear-gradient-11"/><linearGradient id="linear-gradient-14" x1="103.53" y1="297.17" x2="117.65" y2="297.17" xlink:href="#linear-gradient-11"/><linearGradient id="linear-gradient-15" x1="99.86" y1="260.42" x2="107.57" y2="305.55" xlink:href="#linear-gradient-2"/><linearGradient id="linear-gradient-16" x1="73.82" y1="213.74" x2="11.68" y2="204.86" xlink:href="#linear-gradient-11"/><linearGradient id="linear-gradient-17" x1="78.09" y1="140.25" x2="29.1" y2="52.69" xlink:href="#linear-gradient-4"/><linearGradient id="linear-gradient-18" x1="68.03" y1="62.28" x2="98.32" y2="62.28" xlink:href="#linear-gradient-2"/><linearGradient id="linear-gradient-19" x1="-2463.33" y1="-193.37" x2="-2475.25" y2="-223.65" gradientTransform="matrix(-0.87, -0.48, -0.48, 0.87, -2170.78, -957.43)" gradientUnits="userSpaceOnUse"><stop offset="0" stop-color="#311944"/><stop offset="1" stop-color="#6b3976"/></linearGradient><linearGradient id="linear-gradient-20" x1="498.04" y1="-129.14" x2="497.49" y2="-84.97" gradientTransform="translate(-407.65 -44.72) rotate(25.47)" xlink:href="#linear-gradient-2"/><linearGradient id="linear-gradient-21" x1="-2466.97" y1="-191.92" x2="-2478.9" y2="-222.23" xlink:href="#linear-gradient-19"/><linearGradient id="linear-gradient-22" x1="26.33" y1="115.92" x2="82.25" y2="115.92" xlink:href="#linear-gradient-4"/><linearGradient id="linear-gradient-23" x1="115.71" y1="119.22" x2="66.72" y2="31.66" xlink:href="#linear-gradient-4"/><linearGradient id="linear-gradient-24" x1="62.92" y1="148.73" x2="13.93" y2="61.17" xlink:href="#linear-gradient-4"/><linearGradient id="linear-gradient-25" x1="37.02" y1="141.68" x2="157.09" y2="141.68" gradientTransform="matrix(1, 0, 0, 1, 0, 0)" xlink:href="#linear-gradient-19"/><linearGradient id="linear-gradient-26" x1="72.41" y1="128.37" x2="68.94" y2="207.83" xlink:href="#linear-gradient-2"/><linearGradient id="linear-gradient-27" x1="107.8" y1="129.92" x2="104.33" y2="209.37" xlink:href="#linear-gradient-2"/><clipPath id="clip-path-3" transform="translate(0 4.88)"><path class="cls-3" d="M143.25,287.86c10.22,3.69,23.79-6.82,25.9-16.74,1.5-7-3.35-10.79-.58-17.61,2.62-6.48,8.06-5.72,11.36-12.11,3.48-6.74,2.91-18.24-4.25-23.09-8-5.42-20.89-.2-24.79,7.11-3.76,7.06,2.52,12.9-1.72,20.43-3.71,6.59-10.06,4.81-14.11,10.78C129.22,265.24,132.36,283.92,143.25,287.86Z"/></clipPath><clipPath id="clip-path-4" transform="translate(0 4.88)"><path class="cls-4" d="M162.05,288.13c6.11,4.86,17.76.8,21.48-5.48,2.63-4.43.19-8.12,3.63-12.13,3.27-3.82,6.81-2,10.52-5.65,3.91-3.8,6.16-11.77,2.39-16.71-4.22-5.53-14.19-4.91-18.52-.82s-1.24,9.37-5.85,13.52c-4,3.65-8,1-12.08,4.12C157.67,269.52,155.53,283,162.05,288.13Z"/></clipPath></defs><g class="cls-5"><g id="Réteg_2" data-name="Réteg 2"><g id="Réteg_1" data-name="Réteg 1"><path class="cls-6" d="M77.08,18.31C66.29,33.4,78.5,58.19,62.6,69.46c-15.47,11-34.15-7.47-48.72,2-21.62,14-18.39,79.09,12.58,119.84,9.31,12.26,17.15,17.07,20.5,30.86,7.19,29.6-19.36,46.88-14.5,61.53,10.95,33,184.4,62.41,255.15-35.66,33.05-45.8,38.62-112.38,10.07-163.29C246.07-7.3,101.3-15.57,77.08,18.31Z" transform="translate(0 4.88)"/><path class="cls-1" d="M146.4,206.21c-15.09-3.52-26.06-71.06,2.93-96.83,12.1-10.76,25-8.81,35.21-24,9.07-13.59,2.77-21.15,10.1-37.09,10.31-22.41,38.52-41.74,57.1-34.2,9.32,3.78,17.73,14.93,17.5,27.23-.18,9.85-10.44,16.93-8.31,19.55,1.75,2.16,8-2.73,11.58-.43,5.27,3.38,4.15,22-5.35,35.14C250.9,118,220.44,110.1,213.92,127.81c-4.15,11.3,6.8,18.39,1.35,29.68-4.79,9.94-15.45,9-32.14,18.15C157,190,154.49,208.09,146.4,206.21Z" transform="translate(0 4.88)"/><g class="cls-7"><g class="cls-8"><path class="cls-9" d="M146.35,220.34a.78.78,0,0,1-.55-1.32,33.44,33.44,0,0,0,.41-3.75c.82-9.94,3-36.33,19.64-74.47,21-48,56.74-96.53,106.38-144.31a.78.78,0,0,1,1.09,0,.78.78,0,0,1,0,1.1C220,48.94,154.9,128.4,147.75,215.39c-.32,3.94-.38,4.65-1.15,4.91A1.09,1.09,0,0,1,146.35,220.34Z" transform="translate(0 4.88)"/><path class="cls-9" d="M194.87,91.93a.77.77,0,0,1,0-1.54C230,88.55,252.2,82.66,264.66,78c13.5-5,18.77-9.62,18.82-9.67a.78.78,0,1,1,1,1.15c-.22.2-5.46,4.82-19.17,9.92-12.58,4.68-35,10.64-70.44,12.49Z" transform="translate(0 4.88)"/><path class="cls-9" d="M216.9,59.5a.79.79,0,0,1-.46-.15c-7.75-5.71-10.59-18.2-8.44-37.13a163.21,163.21,0,0,1,5.48-26.56.78.78,0,0,1,1-.51.78.78,0,0,1,.51,1c-.16.49-15.05,49.13,2.4,62a.77.77,0,0,1,.16,1.08A.75.75,0,0,1,216.9,59.5Z" transform="translate(0 4.88)"/><path class="cls-9" d="M163,150.45a.76.76,0,0,1-.6-.29c-9.58-11.81-11.14-28-10.76-39.54a106.16,106.16,0,0,1,3.13-22.33.77.77,0,1,1,1.49.41,104.17,104.17,0,0,0-3.07,22c-.37,11.24,1.14,27.05,10.41,38.48a.78.78,0,0,1-.11,1.09A.83.83,0,0,1,163,150.45Z" transform="translate(0 4.88)"/></g></g><path class="cls-2" d="M160.52,222.7c.63-36.22,7.61-62.84,13.59-79.89,4.7-13.38,12.6-31.78,22.93-32,5-.12,6.83,4,12,3.68,9.85-.64,13-16.06,21.37-25.94,14.25-16.9,49.78-25,70.26-8.56,24.66,19.78,17.23,66.9-.86,77.9-10.72,6.52-26,.87-28.27,6.85s12.82,12.91,11.71,23.11c-1.15,10.56-18.76,16.44-19.82,16.79-21.27,6.85-33.52-7.87-55.29-7.37C196.36,197.53,180,202.32,160.52,222.7Z" transform="translate(0 4.88)"/><g class="cls-10"><g class="cls-11"><path class="cls-12" d="M150.38,249.84l.54.14C172.5,167.79,240.55,107.3,333,88.17l-.12-.54C289,96.69,249.23,115.82,217.69,143,184.53,171.47,161.26,208.43,150.38,249.84Z" transform="translate(0 4.88)"/><path class="cls-12" d="M151.81,124c11.43,20.24,18.86,56.43,16.55,80.66l.55.06c2.31-24.34-5.14-60.67-16.62-81Z" transform="translate(0 4.88)"/><path class="cls-12" d="M154.8,233.76l.48.28c6.48-10.87,18.22-18,34.88-21.34,12.21-2.41,26.75-2.71,43.19-.89l.06-.55c-16.5-1.82-31.09-1.52-43.36.9C173.23,215.48,161.37,222.74,154.8,233.76Z" transform="translate(0 4.88)"/><path class="cls-12" d="M222.31,139.28l.46.3c13.28-19.86,12.88-45,10.2-62.55l-.54.08C235.09,94.59,235.49,119.56,222.31,139.28Z" transform="translate(0 4.88)"/><path class="cls-12" d="M268.27,109.58l.14.53c26-7.15,52.2,3.36,65.53,10.27l.25-.49C320.79,113,294.41,102.37,268.27,109.58Z" transform="translate(0 4.88)"/></g></g><path class="cls-13" d="M147.93,243.15c-.85,2-.25,4,1.27,4.69l.36.15c1.53.64,3.41-.35,4.25-2.35l58.05-137.25c.85-2,.3-4.16-1.23-4.8l-.36-.16c-1.52-.64-3.45.46-4.3,2.47Z" transform="translate(0 4.88)"/><path class="cls-13" d="M226.74,63.88a1.16,1.16,0,0,0,.78,1.59h0a1.17,1.17,0,0,0,1.69-.54q2.29-5.34,4.6-10.68c.25-.59.06-1.24-.82-1.61h0c-.89-.38-1.49-.07-1.74.52Z" transform="translate(0 4.88)"/><path class="cls-9" d="M289.72,130.33a25.29,25.29,0,0,1-1.37,5.85,5.42,5.42,0,0,1-4.58,3.37c-6.83.85-11.91,1.26-15.15,1.42a4.16,4.16,0,0,1-2.88-1.06,3.85,3.85,0,0,1-1.38-2.65c-.11-2.43-.25-4.88-.43-7.33A256.44,256.44,0,0,1,289.72,130.33Z" transform="translate(0 4.88)"/><path class="cls-13" d="M264,128.34a47.73,47.73,0,0,1-2.95,7.77,4.9,4.9,0,0,1-5.35,2.29c-8.3-1.56-30-5-47.48-14.61-2.34-1.31-4.24-3.42-4-5.76.56-4.41,1.65-5.85,1.66-5.84A264.17,264.17,0,0,1,264,128.34Z" transform="translate(0 4.88)"/><path class="cls-13" d="M227.36,62.33A119.53,119.53,0,0,1,256,79.11c14.83,11.54,30.47,30.06,33.69,51.22-.12-.18-20.06,3.94-25.79-.4C267.27,123.16,256.75,87.67,227.36,62.33Z" transform="translate(0 4.88)"/><path class="cls-9" d="M227.36,62.33Q216.62,87.25,206,112.19c0,.07,9,3.4,20.55,7.6s25.72,9.07,37.43,10.14C271.4,111.37,252.5,83.84,227.36,62.33Z" transform="translate(0 4.88)"/><path class="cls-13" d="M136,65.4a26.17,26.17,0,0,0-3.25,5.06,5.43,5.43,0,0,0,.78,5.63c4.15,5.5,7.4,9.42,9.54,11.85a4.15,4.15,0,0,0,2.77,1.33,3.88,3.88,0,0,0,2.86-.86q2.75-2.43,5.56-4.8A257.24,257.24,0,0,0,136,65.4Z" transform="translate(0 4.88)"/><path class="cls-9" d="M155.3,82.43A47.83,47.83,0,0,0,151.77,90a4.93,4.93,0,0,0,2.09,5.44c6.91,4.85,24.5,18,43.58,23.83,2.58.77,5.42.65,6.89-1.19,2.77-3.47,3-5.25,3-5.25A263.78,263.78,0,0,0,155.3,82.43Z" transform="translate(0 4.88)"/><path class="cls-9" d="M228.22,62.7a119,119,0,0,0-32-8.86C177.58,51.27,153.39,53,136,65.4c.22,0,11.16,17.12,18.26,18.21C156.76,76.5,189.55,59.3,228.22,62.7Z" transform="translate(0 4.88)"/><path class="cls-13" d="M228.22,62.7q-10.4,25-20.85,50.09c-.05.06-8.73-4.08-19.78-9.43s-24.44-12.11-33.37-19.75C162.34,65.32,195.26,59.68,228.22,62.7Z" transform="translate(0 4.88)"/><path class="cls-14" d="M319.13,292l0-.05c1.7-4.18.32-10.81.32-10.81l-1.61.85a41.57,41.57,0,0,0-4.63-7.08c-22.5-28.58-45.82-27.19-8.62-42.52,4.3-1.77,6.93-3.55,8-5.32h0s1.83-2.17.21-6.77a2.52,2.52,0,0,0-1.84,1.19c-13.48-11.08-86.84-20-180.9-18.37-74,1.25-107.6,9.71-122.69,16.33a10.2,10.2,0,0,0-5,4.68,7.47,7.47,0,0,0-.89-1.06c-.91,2.33-.32,7.64-.32,7.64a.71.71,0,0,0,.12-.1A10.39,10.39,0,0,0,8.19,239c20.21,6.9,49.83-6.8,10.4,39.4a31.6,31.6,0,0,0-5.52,8.67,32.34,32.34,0,0,1-.36-4.26c-1.55,4.41-.63,10.45-.63,10.45v0c3.87,38.14,210.42,14.12,245.17,11.6,27.75-2,56.2-1.84,61.58-12.25h0C319,292.46,319,292.25,319.13,292Z" transform="translate(0 4.88)"/><path class="cls-15" d="M242.11,293.18C211.37,295.56,12,320.62,51.81,270.51c31.43-39.55,7.83-27.82-8.29-33.73a8.43,8.43,0,0,1-4.77-4.66,9.51,9.51,0,0,1-.77-3.47,9,9,0,0,1,4.92-8.59c12-5.66,38.85-12.91,97.82-14,92.83-1.69,160.37,10.35,143.39,22.71a23.09,23.09,0,0,1-4.25,2.34c-29.66,13.12-11.07,11.93,6.87,36.38S272.85,290.79,242.11,293.18Z" transform="translate(0 4.88)"/><path class="cls-16" d="M242.11,293.18C211.37,295.56,12,320.62,51.81,270.51c31.43-39.55,7.83-27.82-8.29-33.73a8.43,8.43,0,0,1-4.77-4.66,8.55,8.55,0,0,1,4.15-4.39c12-5.66,38.85-12.91,97.82-14,73.22-1.33,130.71,5.89,143.39,15.05a23.09,23.09,0,0,1-4.25,2.34c-29.66,13.12-11.07,11.93,6.87,36.38S272.85,290.79,242.11,293.18Z" transform="translate(0 4.88)"/><path class="cls-13" d="M313.23,270.06c-22.5-27.71-45.82-26.35-8.62-41.22s-50.73-30.42-174.51-28.39c-74,1.21-107.6,9.42-122.69,15.83a10.13,10.13,0,0,0,.78,18.95c20.21,6.7,49.83-6.59,10.4,38.21-49.95,56.78,200.12,28.39,238.67,25.69S335.73,297.78,313.23,270.06Z" transform="translate(0 4.88)"/><path class="cls-17" d="M242.11,287.75c-30.74,2.31-230.13,26.6-190.3-22,31.43-38.35,7.83-27-8.29-32.71a8.31,8.31,0,0,1-4.77-4.52,8.94,8.94,0,0,1-.77-3.36,8.72,8.72,0,0,1,4.92-8.33c12-5.49,38.85-12.52,97.82-13.55,92.83-1.64,160.37,10,143.39,22a23.94,23.94,0,0,1-4.25,2.27c-29.66,12.72-11.07,11.56,6.87,35.28S272.85,285.43,242.11,287.75Z" transform="translate(0 4.88)"/><path class="cls-18" d="M242.11,287.75c-30.74,2.31-230.13,26.6-190.3-22,31.43-38.35,7.83-27-8.29-32.71a8.31,8.31,0,0,1-4.77-4.52,8.44,8.44,0,0,1,4.15-4.26c12-5.48,38.85-12.51,97.82-13.55,73.22-1.29,130.71,5.71,143.39,14.6a23.94,23.94,0,0,1-4.25,2.27c-29.66,12.72-11.07,11.56,6.87,35.28S272.85,285.43,242.11,287.75Z" transform="translate(0 4.88)"/><path class="cls-9" d="M64.54,283.58c-4-.9-6.58-2.55-7.77-4.91-2.76-5.51,3.07-13.39,8.69-21,5.42-7.34,11-14.92,8.4-19.8-2-3.75-8.49-5.37-10.62-5.9a34.16,34.16,0,0,0-9-.77c-2.47,0-4.1.06-4.42-.94-.26-.8.48-1.83,2.26-3.13,7-5.16,26.46-6,37.41-6v.58c-8.76,0-29.91.64-37.06,5.89-2.08,1.53-2.13,2.24-2.05,2.48.18.59,1.8.56,3.85.54a34.53,34.53,0,0,1,9.13.78c2.19.55,8.86,2.21,11,6.19,2.79,5.21-2.66,12.6-8.43,20.42-5.53,7.49-11.24,15.23-8.64,20.42,1.1,2.19,3.58,3.74,7.37,4.6Z" transform="translate(0 4.88)"/><path class="cls-19" d="M37.25,281.52l-.7,1.79a3.38,3.38,0,0,0,.83,3.72c2.45,2.3,7.21,6.2,11.26,6,5.72-.28-3-5.61-4.46-7.65C40.34,280,37.25,281.52,37.25,281.52Z" transform="translate(0 4.88)"/><path class="cls-20" d="M42.53,271.13a33.59,33.59,0,0,0-4.41,10.6l2.48,2.55,5.32-7Z" transform="translate(0 4.88)"/><path class="cls-21" d="M80.24,153.1c5.09,7.24,17,26.36,15.81,52.06-2.25,48.35-48.71,73-51,74.17L40,272.17c-.2-6.65.5-16.5,5.8-26.18,6.21-11.33,13.79-13.44,17.92-20.76,4.53-8,5.15-22.71-14-52Z" transform="translate(0 4.88)"/><path class="cls-22" d="M103.53,292.46l1.86,8.46a2.45,2.45,0,0,0,2.34,1.74h7.47a2.45,2.45,0,0,0,1.81-4.09l-6.26-6.89Z" transform="translate(0 4.88)"/><path class="cls-23" d="M99.77,284.56l5.63,8.85a1.73,1.73,0,0,0,1.45.8h1a1.72,1.72,0,0,0,1.64-2.22l-2.51-8.2Z" transform="translate(0 4.88)"/><path class="cls-24" d="M39.42,150.5a66.43,66.43,0,0,0-.51,16.71c2.46,25.21,18.07,30.12,29.85,59.4,7.72,19.18,4.62,26,15.18,42.17a91.06,91.06,0,0,0,16.5,18.83l8.46-1.09c-2.33-8-5.65-19.5-9.52-33.43C87.69,211,85.48,199,84.47,193a328.06,328.06,0,0,1-4.23-39.87q2.13-4.15.87-6.46Q77.13,139.37,39.42,150.5Z" transform="translate(0 4.88)"/><path class="cls-25" d="M43.4,62.22c-7.43,4.85-10.29,13.15-14,46.37-6.38,56.89-1.14,60.77,1,61.71,5.69,2.47,9.31-7,25.47-10,16-3,27.68,3.32,30.88-1.8,1.78-2.84-1.52-5.25-2.4-11.15-2.49-16.82,20.13-25.7,26.85-53.13,1.17-4.76,1-6.62.94-7.25-1.6-14.75-24.83-24.58-41.7-27C60.31,58.4,51.28,57.08,43.4,62.22Z" transform="translate(0 4.88)"/><path class="cls-26" d="M93.46,52.42A39.46,39.46,0,0,1,68,59.87S80.27,73.1,98.32,72.08c0,0-9-3.91-2.8-13.53Z" transform="translate(0 4.88)"/><path class="cls-27" d="M103.85,56.25a6.63,6.63,0,0,0,3.6-6.7c-.38-2.36-2.27-3.72-3.41-4.54-3.29-2.37-8.55-3.38-11.9-1-2,1.41-2.23,6.5-2.32,7.38A6.83,6.83,0,0,0,90.44,54c.34,1.31.87,3.37,1.69,6.79a16.33,16.33,0,0,1,2.13-1.94,14.44,14.44,0,0,1,3.24-1.87C100.58,55.73,101.71,57.2,103.85,56.25Z" transform="translate(0 4.88)"/><path class="cls-28" d="M90.22,57.19a9,9,0,0,0,5,7.35c4.27,2,10-6.86,8.5-10.29a6,6,0,0,0-3.77-2.8c-1-.23-1.46,0-3-.46s-1.75-.72-2.32-.61-1.62.93-2.32,4.08c-.34-1.23-1.12-2.06-2-2.12a1.55,1.55,0,0,0-.85.23C88.25,53.3,88.46,55.18,90.22,57.19Z" transform="translate(0 4.88)"/><path class="cls-29" d="M94.67,49.72c.11.26-.91.66-1.54,1.69a5.76,5.76,0,0,0,1.46,7c1.17.81,1.93.26,4.11,1.19a10.7,10.7,0,0,1,2.9,1.84c-.6,2.6-2.45,4.48-4.52,4.68-2.23.22-3.91-1.61-4.61-2.37a6.73,6.73,0,0,1-2-4.36c0-2.31,1.55-2.82,1.07-4.66a10.87,10.87,0,0,1-1-3.18,7.58,7.58,0,0,1,0-1C92.31,50,94.5,49.35,94.67,49.72Z" transform="translate(0 4.88)"/><path class="cls-30" d="M72.75,149.08c-5.68-12.32,2.34-19.56-2.32-33.16-6.17-18-24.56-17.91-29-32.79C40,78,40.06,71,45.26,61.14q-.93.48-1.86,1.08c-7.43,4.85-10.29,13.15-14,46.37-6.38,56.89-1.14,60.77,1,61.71,5.69,2.47,9.31-7,25.47-10,11.57-2.19,20.88.52,26.36.26A30.41,30.41,0,0,1,72.75,149.08Z" transform="translate(0 4.88)"/><path class="cls-31" d="M111.73,151.78c0,2.42.44,5.32,2.28,6.3,4.5,2.39,16.43-7.35,20.85-16.44,12.55-25.83-23-72.32-33.25-68.84-5.54,1.88-7.58,19.51-2.23,32.7,5.53,13.63,16.89,17.42,17.76,29.57C117.65,142.18,114.28,148.18,111.73,151.78Z" transform="translate(0 4.88)"/><path class="cls-32" d="M57.44,59.73c-2.52-3.31-13.61,0-21.1,4.12-24.14,13.25-40.72,51-27.8,66.34,7.89,9.33,25.28,8.56,35.72,5.49A45,45,0,0,0,67,119.9l-2.32-4.63c-21.5,3.45-25.64-2.36-26.5-3.85C35.07,106.09,39.85,96.93,49,79.53,55.44,67.1,59.32,62.21,57.44,59.73Z" transform="translate(0 4.88)"/><path class="cls-33" d="M155.16,238.65a1.93,1.93,0,0,1-1.65-.92L37.3,47.65a1.93,1.93,0,0,1,3.3-2L156.8,235.71a1.93,1.93,0,0,1-1.64,2.94Z" transform="translate(0 4.88)"/><path class="cls-34" d="M65.38,116.21a18.52,18.52,0,0,0,5.78-6.27c1.92-3.8,3.69-7.14,5.78-6.59s4.18,6.39,3.76,7.84c0,0-3.28-1.25-3.76,1.26s-4.11,3.08-4.11,3.08L67,119.9Z" transform="translate(0 4.88)"/><path class="cls-35" d="M114.27,153.21a1.48,1.48,0,0,0-1.38-.88c-1.41,0-4-.07-5.38-1.16-2-1.54-5.86-.61-7.86,0s.57,2.4,3.14,3.53,4.3,3.23,6.57,3.35c1.59.08,3.68-1.58,4.79-2.59a1.49,1.49,0,0,0,.36-1.71Z" transform="translate(0 4.88)"/><path class="cls-36" d="M117.3,245.48a2.76,2.76,0,0,0-1.06,2.63c1.45,9.09,8.92,53.31,27.25,56.4,36.29,6.13,57.59-22.49,70.41-45.24l-21.48-26.58-71,9.72Z" transform="translate(0 4.88)"/><path class="cls-36" d="M137.69,275.39l-4.5-2.57s-9.64-14.51-16.92-25.67a2.8,2.8,0,0,0,0,1c1.45,9.09,8.92,53.31,27.25,56.4,33.67,5.68,54.43-18.53,67.49-40.23Z" transform="translate(0 4.88)"/><path class="cls-13" d="M139.21,276.94a9.89,9.89,0,0,1-8-4.05l-15.46-21.06A6.84,6.84,0,0,1,120.25,241l67.47-10.4a9.92,9.92,0,0,1,9.22,3.57l17,21.05a6.77,6.77,0,0,1-4.24,10.95l-69,10.63A9.83,9.83,0,0,1,139.21,276.94Zm50-43.34a6,6,0,0,0-1,.08l-67.47,10.4a3.75,3.75,0,0,0-2.45,5.92l15.45,21.06a6.82,6.82,0,0,0,6.54,2.71l69-10.63a3.69,3.69,0,0,0,2.3-6l-17-21.05A6.84,6.84,0,0,0,189.22,233.6Z" transform="translate(0 4.88)"/><path class="cls-3" d="M143.25,287.86c10.22,3.69,23.79-6.82,25.9-16.74,1.5-7-3.35-10.79-.58-17.61,2.62-6.48,8.06-5.72,11.36-12.11,3.48-6.74,2.91-18.24-4.25-23.09-8-5.42-20.89-.2-24.79,7.11-3.76,7.06,2.52,12.9-1.72,20.43-3.71,6.59-10.06,4.81-14.11,10.78C129.22,265.24,132.36,283.92,143.25,287.86Z" transform="translate(0 4.88)"/><g class="cls-37"><g class="cls-38"><path class="cls-9" d="M143.55,292.4a.15.15,0,0,0,.14-.13c4.8-28.17,14.11-48.53,21.07-60.65,7.54-13.13,14-19.67,14.08-19.73a.16.16,0,1,0-.23-.23c-.06.06-6.57,6.64-14.13,19.8a166.46,166.46,0,0,0-11.68,25.12,200.88,200.88,0,0,0-9.43,35.63.17.17,0,0,0,.14.19Z" transform="translate(0 4.88)"/><path class="cls-9" d="M161.24,237.94a.11.11,0,0,0,.09,0,.16.16,0,0,0,0-.23c-4.36-4.87-4.29-12.45-3.47-17.94a54.16,54.16,0,0,1,2.86-10.91.15.15,0,0,0-.09-.21.17.17,0,0,0-.21.09,54.76,54.76,0,0,0-2.88,11c-.83,5.57-.89,13.25,3.54,18.22A.16.16,0,0,0,161.24,237.94Z" transform="translate(0 4.88)"/><path class="cls-9" d="M152.67,274c6.68-.66,12.19-4.15,15.91-7.31a44.87,44.87,0,0,0,8-8.92.17.17,0,0,0,0-.23.18.18,0,0,0-.23.06,44.13,44.13,0,0,1-7.93,8.84c-4.59,3.9-11.92,8.31-20.8,7.17a.16.16,0,1,0,0,.32A22.27,22.27,0,0,0,152.67,274Z" transform="translate(0 4.88)"/><path class="cls-9" d="M144.92,285.12a.14.14,0,0,0,.1,0,.17.17,0,0,0,0-.23c-14.11-15.06-6.13-38.65-6-39a.17.17,0,0,0,0-.22.16.16,0,0,0-.23,0,47.65,47.65,0,0,0-2.43,14.14c-.22,7.2,1.06,17.44,8.42,25.29A.13.13,0,0,0,144.92,285.12Z" transform="translate(0 4.88)"/></g></g><path class="cls-4" d="M162.05,288.13c6.11,4.86,17.76.8,21.48-5.48,2.63-4.43.19-8.12,3.63-12.13,3.27-3.82,6.81-2,10.52-5.65,3.91-3.8,6.16-11.77,2.39-16.71-4.22-5.53-14.19-4.91-18.52-.82s-1.24,9.37-5.85,13.52c-4,3.65-8,1-12.08,4.12C157.67,269.52,155.53,283,162.05,288.13Z" transform="translate(0 4.88)"/><g class="cls-39"><g class="cls-38"><path class="cls-9" d="M161.21,291.3a.12.12,0,0,0,.13-.06c9.72-18.1,20.72-29.84,28.24-36.51,8.14-7.22,14.06-10.2,14.12-10.22a.12.12,0,0,0-.11-.21c-.06,0-6,3-14.16,10.26A119,119,0,0,0,175.72,269a143,143,0,0,0-14.59,22.12.12.12,0,0,0,.05.16Z" transform="translate(0 4.88)"/><path class="cls-9" d="M185.74,258.24h.07a.11.11,0,0,0,.06-.15c-1.85-4.32-.07-9.47,1.75-13a38.25,38.25,0,0,1,4.45-6.78.11.11,0,0,0,0-.16.1.1,0,0,0-.16,0,38.58,38.58,0,0,0-4.48,6.82c-1.84,3.6-3.64,8.82-1.75,13.22A.11.11,0,0,0,185.74,258.24Z" transform="translate(0 4.88)"/><path class="cls-9" d="M171.63,280.86a21.25,21.25,0,0,0,12.52-1.35,31.65,31.65,0,0,0,7.48-4.25.11.11,0,0,0,0-.16.11.11,0,0,0-.16,0,31.82,31.82,0,0,1-7.43,4.22c-4,1.61-10,2.93-15.82.12a.13.13,0,0,0-.16.05.13.13,0,0,0,.06.16A15.66,15.66,0,0,0,171.63,280.86Z" transform="translate(0 4.88)"/><path class="cls-9" d="M163.81,286.65a.11.11,0,0,0,.08,0,.1.1,0,0,0,.05-.15c-6.16-13.49,4.68-27.74,4.87-27.95a.11.11,0,0,0,0-.15.11.11,0,0,0-.16,0,34.38,34.38,0,0,0-4.89,9.08c-1.8,4.86-3.27,12.12-.06,19.16A.16.16,0,0,0,163.81,286.65Z" transform="translate(0 4.88)"/></g></g><path class="cls-36" d="M137.69,275.39l-4.5-2.57s-9.64-14.51-16.92-25.67a2.8,2.8,0,0,0,0,1c1.45,9.09,8.92,53.31,27.25,56.4,33.67,5.68,54.43-18.53,67.49-40.23Z" transform="translate(0 4.88)"/><path class="cls-13" d="M212.35,259.6a3.74,3.74,0,0,1-.25,1.22,3.65,3.65,0,0,1-2.87,2.32l-69,10.63a6.82,6.82,0,0,1-6.54-2.71L118.27,250a3.75,3.75,0,0,1,2.45-5.92l8.12-1.26c-.4-1-.8-2-1.19-2.94l-7.4,1.14a6.84,6.84,0,0,0-4.48,10.81l15.46,21.06a9.86,9.86,0,0,0,9.5,3.93l69-10.63a6.71,6.71,0,0,0,5.29-4.25,7.27,7.27,0,0,0,.36-1.29C214.34,260.34,213.33,260,212.35,259.6Z" transform="translate(0 4.88)"/></g></g></g></svg>