<svg id="b2d8908f-2205-4630-b40f-da2f03f4fff4" data-name="Réteg 1" xmlns="http://www.w3.org/2000/svg" viewBox="0 0 138 61">
  <defs>
    <style>
      .a09272b3-53d4-4cd1-8ecd-605a75792e1e {
        fill: red;
      }

      .b5d9f297-a64e-4f28-882b-0d5be49f7601 {
        fill: #ababab;
      }
    </style>
  </defs>
  <g>
    <rect class="a09272b3-53d4-4cd1-8ecd-605a75792e1e" x="67.6" y="29.2" width="70.4" height="7.99"/>
    <path class="a09272b3-53d4-4cd1-8ecd-605a75792e1e" d="M38.6,28.4l-4.7-6.5,1-.8a7.7,7.7,0,0,0,2.2-5.4,8,8,0,0,0-2.2-5.5A7.7,7.7,0,0,0,24,21.1a3.4,3.4,0,0,0,.9.8l-4.7,6.5-1.9-1.6A15.7,15.7,0,0,1,40.5,4.6a15.5,15.5,0,0,1,4.6,11.1,15.5,15.5,0,0,1-4.6,11.1Z"/>
    <polygon class="b5d9f297-a64e-4f28-882b-0d5be49f7601" points="6.6 61 0 56.4 29.4 14.1 58.8 56.3 52.3 60.8 29.4 28.1 6.6 61"/>
  </g>
</svg>
